<svg width="568" height="568" viewBox="0 0 568 568" fill="none" xmlns="http://www.w3.org/2000/svg">
<path d="M113.654 353.436C110.036 345.941 101.087 344.117 93.5044 347.256C82.4 351.856 78.7563 363.469 74.8939 374.741C73.8005 377.928 58.1833 421.348 57.2461 423.944C61.7077 417.492 67.1728 411.795 73.4341 407.069C86.2437 398.573 100.927 393.318 116.219 391.758C115.892 363.415 116.31 358.937 113.654 353.436ZM107.352 378.487C105.666 380.195 103.48 381.321 101.11 381.702C98.7404 382.083 96.3111 381.699 94.1746 380.606C92.6163 379.919 91.2371 378.882 90.144 377.576C89.0509 376.27 88.2733 374.729 87.8713 373.074C87.4693 371.419 87.4538 369.694 87.8259 368.032C88.1981 366.37 88.948 364.816 90.0174 363.49C91.0869 362.165 92.4472 361.103 93.9929 360.388C95.5386 359.673 97.2283 359.323 98.9309 359.366C100.633 359.409 102.303 359.844 103.811 360.636C105.319 361.428 106.624 362.557 107.625 363.935C109.313 365.999 110.213 368.595 110.163 371.261C110.113 373.927 109.117 376.488 107.352 378.487Z" fill="#000001"/>
<path d="M479.008 241.227C477.832 225.584 469.892 212.392 460.849 199.672C459.611 197.687 458.198 195.816 456.626 194.083C452.767 197.189 448.431 199.651 443.787 201.373C441.85 202.115 439.808 202.549 437.737 202.66C436.604 202.73 435.467 202.574 434.394 202.2C433.322 201.827 432.334 201.244 431.489 200.484C430.629 199.576 430.055 198.434 429.84 197.202C429.626 195.969 429.779 194.7 430.282 193.555C432.696 187.968 436.246 188.65 430.427 189.712C429.049 190.108 427.588 190.114 426.206 189.731C424.824 189.347 423.575 188.589 422.597 187.54C420.935 185.258 420.239 182.413 420.658 179.622C421.077 176.831 422.579 174.316 424.838 172.624C414.401 174.731 409.022 163.987 419.124 156.129C419.124 153.141 419.124 135.028 419.124 128.959C418.97 128.096 418.626 127.279 418.116 126.566C417.607 125.853 416.945 125.263 416.179 124.838C415.413 124.413 414.562 124.164 413.687 124.109C412.813 124.054 411.937 124.194 411.124 124.52C410.183 125.131 409.389 125.943 408.8 126.898C408.21 127.852 407.84 128.926 407.716 130.041C405.969 140.072 406.364 158.674 406.699 168.793C414.733 177.219 418.44 189.005 421.03 200.385C425.595 222.056 427.655 244.18 427.17 266.321C449.594 267.091 480.701 263.725 479.008 241.227ZM466.612 250.423C466.001 251.59 464.246 250.559 464.848 249.395C466.031 247.095 466.534 244.506 466.299 241.931C466.186 240.622 468.233 240.633 468.341 241.931C468.582 244.868 467.982 247.814 466.612 250.423Z" fill="#EAEAEA"/>
<path d="M482.664 57.5927C469.117 65.9224 427.25 92.2407 419.616 96.654C419.466 96.7485 419.341 96.8785 419.253 97.0325C419.165 97.1865 419.116 97.3599 419.11 97.5373C419.139 107.227 419.11 153.142 419.11 156.129C422.132 153.664 426.068 151.225 428.886 148.95C430.133 147.953 431.554 147.195 433.077 146.715V107.693C536.99 174.388 521.37 164.493 521.117 163.894C520.726 162.965 520.385 162.014 520.018 161.074C510.002 135.309 506.415 109.386 511.632 76.2316C511.677 75.0359 512.995 68.0354 513.421 65.9934C515.381 56.3235 518.371 46.8911 522.339 37.8575C523.506 35.2078 523.489 35.0374 523.867 34.8414C509.76 41.7228 496.04 49.368 482.664 57.5927Z" fill="#59DFFD"/>
<path d="M521.522 92.0504C520.086 87.652 517.834 83.5638 514.883 80.0003C512.744 77.4755 511.671 77.2426 511.639 76.2316C508.599 94.5117 508.559 113.165 511.523 131.458C511.494 131.28 511.512 131.097 511.574 130.927C511.798 129.754 528.313 112.728 521.522 92.0504Z" fill="#EAEAEA"/>
<path d="M422.655 155.979C420.397 157.399 418.451 159.262 416.935 161.457C416.222 162.488 415.825 163.704 415.791 164.956C415.758 166.209 416.089 167.444 416.745 168.512C417.491 169.354 418.43 170.004 419.481 170.407C420.532 170.81 421.664 170.954 422.782 170.826C425.63 170.52 428.379 169.611 430.848 168.159C434.242 166.387 437.8 164.99 441.177 163.181C443.028 162.22 444.432 160.576 445.093 158.598C445.754 156.62 445.62 154.463 444.719 152.582C443.68 150.768 442.043 149.372 440.089 148.63C438.135 147.889 435.984 147.849 434.003 148.518C431.858 149.327 429.877 150.517 428.156 152.031C426.324 153.36 424.481 154.652 422.655 155.979Z" fill="#EAEAEA"/>
<path d="M436.433 189.176C434.195 190.642 432.564 192.868 431.841 195.443C431.667 196.426 431.849 197.438 432.354 198.299C432.86 199.159 433.655 199.811 434.598 200.138C436.373 200.728 438.279 200.8 440.094 200.345C451.201 197.681 467.562 185.378 459.161 178.418C457.998 177.88 456.708 177.68 455.437 177.839C454.166 177.998 452.965 178.51 451.97 179.318C439.736 186.503 441.107 185.387 436.433 189.176Z" fill="#EAEAEA"/>
<path d="M424.959 175.336C423.479 176.829 422.617 178.825 422.544 180.925C422.471 183.026 423.194 185.077 424.567 186.668C426.555 188.613 429.503 187.852 431.926 187.301C434.731 186.652 437.41 185.548 439.858 184.032C443.456 181.823 447.154 179.772 450.795 177.651C452.261 176.428 453.221 174.704 453.489 172.814C453.756 170.923 453.312 169.001 452.242 167.419C451.172 165.838 449.553 164.71 447.699 164.255C445.844 163.8 443.887 164.05 442.207 164.956C435.987 168.27 430.736 169.247 424.959 175.336Z" fill="#EAEAEA"/>
<path d="M533.832 62.3695C531.931 53.0417 529.067 43.9362 525.286 35.1992C525.139 34.9714 524.91 34.808 524.647 34.7416C524.383 34.6753 524.105 34.7109 523.866 34.8414C523.486 35.0487 523.511 35.1964 522.339 37.8575C517.297 49.4284 513.804 61.614 511.95 74.0987C511.766 74.7959 511.66 75.5111 511.632 76.2316C511.637 76.4211 511.683 76.6072 511.768 76.7768C512.235 77.3564 512.768 77.8797 513.356 78.336C517.402 82.5049 520.33 87.6289 521.866 93.2321C523.402 98.8352 523.497 104.736 522.143 110.385C520.199 117.757 516.662 124.612 511.779 130.467C511.571 130.753 511.477 131.106 511.515 131.458C513.386 141.582 516.234 151.5 520.018 161.074C520.385 162.014 520.725 162.965 521.117 163.894C521.452 164.686 522.628 164.945 522.983 164.138C530.06 148.406 534.604 131.653 536.448 114.501C538.246 97.092 537.364 79.5106 533.832 62.3695Z" fill="#000001"/>
<path d="M544.284 77.5691C544.168 76.2712 542.126 76.2599 542.242 77.5691C544.079 98.4204 545.798 119.979 537.249 139.12C536.718 140.31 538.473 141.347 539.01 140.149C547.774 120.641 546.133 98.5482 544.284 77.5691Z" fill="#000001"/>
<path d="M550.937 68.7848C550.901 68.6555 550.84 68.5345 550.758 68.4286C550.676 68.3228 550.573 68.2342 550.457 68.168C550.34 68.1018 550.212 68.0592 550.079 68.0428C549.946 68.0263 549.811 68.0362 549.681 68.072C549.423 68.1482 549.204 68.3216 549.071 68.5557C548.938 68.7899 548.902 69.0665 548.968 69.3273C552.501 95.3956 554.779 122.898 542.294 146.558C541.681 147.72 543.43 148.754 544.055 147.589C556.875 123.395 554.543 95.407 550.937 68.7848Z" fill="#000001"/>
<path d="M407.315 84.0814L413.614 91.4001C414.466 92.3998 415.912 90.9485 415.057 89.9574L408.761 82.6444C407.9 81.639 406.463 83.0903 407.315 84.0814Z" fill="#000001"/>
<path d="M201.463 451.628C200.951 452.12 182.381 469.949 173.821 478.111C173.626 478.296 173.368 478.399 173.099 478.399C172.831 478.399 172.573 478.296 172.378 478.111L172.284 478.029C172 477.785 141.11 450.021 121.144 432.086C120.955 431.893 120.849 431.634 120.849 431.363C120.849 431.093 120.955 430.833 121.144 430.641L155.168 399.665C143.424 392.766 129.715 389.984 116.211 391.758C100.921 393.322 86.2384 398.576 73.4268 407.069C51.9223 422.637 37.0748 457.905 35.5781 484.816C35.5811 485.086 35.6894 485.344 35.88 485.534C36.0706 485.725 36.3282 485.833 36.5977 485.836H207.134C207.403 485.833 207.661 485.725 207.852 485.534C208.042 485.344 208.151 485.086 208.154 484.816C208.284 474.337 206.404 460.728 201.463 451.628ZM61.3057 471.539C81.0245 459.786 99.8378 446.577 117.589 432.021C118.597 431.194 120.048 432.631 119.032 433.464C101.225 448.234 82.2668 461.556 62.3366 473.303C62.1036 473.426 61.8322 473.454 61.5789 473.382C61.3256 473.309 61.11 473.142 60.9771 472.915C60.8441 472.687 60.8041 472.417 60.8653 472.161C60.9265 471.905 61.0843 471.682 61.3057 471.539ZM166.67 485.356C165.698 486.239 164.253 484.788 165.227 483.913L169.904 479.653C170.876 478.773 172.321 480.221 171.347 481.099L166.67 485.356Z" fill="white"/>
<path d="M107.635 363.935C106.634 362.557 105.329 361.428 103.822 360.636C102.314 359.844 100.644 359.409 98.9414 359.366C97.2388 359.323 95.5492 359.673 94.0034 360.388C92.4577 361.103 91.0974 362.165 90.028 363.49C88.9585 364.816 88.2086 366.37 87.8365 368.032C87.4643 369.694 87.4798 371.419 87.8818 373.074C88.2838 374.729 89.0614 376.269 90.1545 377.576C91.2476 378.882 92.6268 379.919 94.1851 380.606C96.4236 381.83 99.0209 382.229 101.524 381.733C104.026 381.236 106.275 379.877 107.877 377.891C109.479 375.905 110.332 373.42 110.288 370.869C110.244 368.318 109.305 365.864 107.635 363.935Z" fill="#EAEAEA"/>
<path d="M421.028 200.385C418.293 188.326 414.266 175.756 405.167 167.27C396.833 159.966 386.737 154.963 375.878 152.755C363.3 149.835 350.121 150.967 338.225 155.99C320.978 163.422 310.478 174.041 303.39 197.587C311.214 197.431 331.528 197.059 339.134 198.385C346.546 199.675 349.758 206.937 350.701 213.647C351.428 220.032 351.748 226.455 351.658 232.88C373.327 232.88 372.106 232.826 372.39 232.954C372.579 233.033 372.741 233.164 372.858 233.331C372.975 233.498 373.042 233.696 373.052 233.9V286.471H425.808C426.077 286.466 426.334 286.356 426.524 286.165C426.714 285.975 426.823 285.718 426.827 285.448C427.515 256.228 427.603 229.361 421.028 200.385Z" fill="white"/>
<path d="M373.054 233.911C373.051 233.758 373.013 233.608 372.943 233.472C372.874 233.336 372.773 233.218 372.65 233.127C372.778 233.23 372.878 233.362 372.944 233.511C373.01 233.661 373.039 233.824 373.029 233.987C373.019 234.15 372.97 234.309 372.887 234.449C372.803 234.589 372.687 234.708 372.548 234.794C367.368 237.989 311.994 271.146 288.16 286.332C287.615 286.675 287.161 286.357 286.241 285.872C282.506 283.884 188.638 234.794 188.638 234.794C188.489 234.728 188.362 234.619 188.272 234.482C188.182 234.345 188.134 234.186 188.133 234.022C188.133 356.522 187.985 347.531 188.431 347.17C189.019 346.704 228.824 313.451 232.451 310.35C233.448 309.498 234.896 310.94 233.897 311.792C232.616 312.883 190.581 348.045 189.877 348.616C189.748 348.716 189.6 348.786 189.441 348.822C189.283 348.858 189.119 348.859 188.96 348.825C188.801 348.791 188.651 348.723 188.522 348.625C188.392 348.527 188.286 348.402 188.21 348.258C188.284 348.448 188.414 348.612 188.582 348.729C188.75 348.845 188.948 348.91 189.152 348.914H210.912L254.018 309.668C256.387 307.236 259.363 305.482 262.637 304.587C264.134 304.174 265.732 304.348 267.105 305.074C268.477 305.8 269.52 307.023 270.021 308.492C270.329 310.168 270.28 311.89 269.88 313.546C269.479 315.202 268.735 316.756 267.695 318.106C263.077 325.599 257.648 332.562 251.507 338.869C259.422 335.856 267.281 340.752 265.452 348.914H371.986C370.631 348.63 365.377 342.382 326.381 311.889C325.345 311.08 326.799 309.645 327.824 310.443C340.771 320.548 360.521 336.319 372.77 347.17C372.945 347.325 373.058 347.538 373.088 347.769C374.349 347.616 373.346 260.488 373.054 233.911Z" fill="#59DFFD"/>
<path d="M271.37 355.165C268.111 354.805 264.813 355.215 261.742 356.363C263.967 353.659 265.342 350.357 265.695 346.872C265.917 339.704 258.419 336.231 251.495 338.869C257.635 332.562 263.064 325.599 267.683 318.106C268.723 316.756 269.467 315.202 269.868 313.546C270.268 311.89 270.317 310.168 270.009 308.492C269.508 307.023 268.465 305.8 267.092 305.074C265.72 304.348 264.122 304.174 262.625 304.587C259.35 305.482 256.374 307.236 254.006 309.668L121.134 430.652C120.944 430.845 120.838 431.105 120.838 431.375C120.838 431.645 120.944 431.905 121.134 432.098L172.387 478.111C172.582 478.296 172.84 478.399 173.109 478.399C173.377 478.399 173.635 478.296 173.83 478.111C221.173 432.87 233.754 419.923 247.363 405.777C260.172 392.451 271.364 381.506 277.018 365.605C277.431 364.553 277.608 363.423 277.539 362.295C277.469 361.167 277.155 360.068 276.617 359.074C276.079 358.08 275.331 357.215 274.425 356.54C273.519 355.865 272.476 355.396 271.37 355.165ZM232.49 353.91L239.36 347.17C240.297 346.25 241.743 347.693 240.803 348.616L233.933 355.352C232.993 356.275 231.55 354.833 232.49 353.91ZM246.312 366.076L252.91 360.714C253.921 359.894 255.375 361.331 254.352 362.157L247.758 367.519C246.747 368.348 245.293 366.911 246.312 366.076ZM196.59 436.625C193.026 439.557 189.555 442.596 186.175 445.741C185.215 446.636 183.77 445.196 184.733 444.298C188.11 441.155 191.581 438.117 195.144 435.182C196.152 434.353 197.604 435.79 196.59 436.625Z" fill="#EAEAEA"/>
<path d="M371.902 232.88C371.601 232.923 294.475 280.061 287.616 284.259L189.668 233.031C188.441 232.394 187.538 234.226 188.637 234.794C290.735 287.618 287.145 287.005 288.159 286.332L372.547 234.794C372.752 234.675 372.909 234.488 372.993 234.266C373.077 234.044 373.081 233.799 373.005 233.574C372.929 233.349 372.778 233.157 372.577 233.031C372.376 232.904 372.138 232.851 371.902 232.88Z" fill="#000001"/>
<path d="M243.071 223.875H322.46C322.722 223.861 322.968 223.747 323.148 223.557C323.329 223.367 323.429 223.116 323.429 222.854C323.429 222.592 323.329 222.34 323.148 222.15C322.968 221.96 322.722 221.847 322.46 221.833H243.071C242.81 221.847 242.563 221.96 242.383 222.15C242.203 222.34 242.103 222.592 242.103 222.854C242.103 223.116 242.203 223.367 242.383 223.557C242.563 223.747 242.81 223.861 243.071 223.875Z" fill="#000001"/>
<path d="M322.46 248.549C322.722 248.535 322.968 248.421 323.148 248.231C323.329 248.041 323.429 247.79 323.429 247.528C323.429 247.266 323.329 247.014 323.148 246.824C322.968 246.634 322.722 246.521 322.46 246.507H243.071C242.81 246.521 242.563 246.634 242.383 246.824C242.203 247.014 242.103 247.266 242.103 247.528C242.103 247.79 242.203 248.041 242.383 248.231C242.563 248.421 242.81 248.535 243.071 248.549H322.46Z" fill="#000001"/>
<path d="M255.545 177.943C255.807 177.929 256.053 177.816 256.233 177.626C256.413 177.436 256.514 177.184 256.514 176.922C256.514 176.66 256.413 176.409 256.233 176.219C256.053 176.029 255.807 175.915 255.545 175.901H176.394C176.133 175.915 175.887 176.029 175.706 176.219C175.526 176.409 175.426 176.66 175.426 176.922C175.426 177.184 175.526 177.436 175.706 177.626C175.887 177.816 176.133 177.929 176.394 177.943H255.545Z" fill="#000001"/>
<path d="M176.396 155.825H255.546C255.817 155.825 256.076 155.718 256.267 155.527C256.458 155.336 256.566 155.076 256.566 154.806C256.566 154.535 256.458 154.276 256.267 154.085C256.076 153.894 255.817 153.786 255.546 153.786H176.396C176.125 153.786 175.866 153.894 175.675 154.085C175.483 154.276 175.376 154.535 175.376 154.806C175.376 155.076 175.483 155.336 175.675 155.527C175.866 155.718 176.125 155.825 176.396 155.825Z" fill="#000001"/>
<path d="M189.876 348.616C190.595 348.048 232.629 312.883 233.896 311.792C234.896 310.94 233.447 309.503 232.45 310.35C228.81 313.451 188.998 346.702 188.43 347.17C187.439 347.957 188.831 349.439 189.876 348.616Z" fill="#000001"/>
<path d="M466.611 250.423C467.982 247.814 468.581 244.869 468.341 241.931C468.233 240.633 466.185 240.622 466.299 241.931C466.534 244.506 466.03 247.095 464.848 249.395C464.237 250.559 465.992 251.59 466.611 250.423Z" fill="#000001"/>
<path d="M327.81 310.443C326.788 309.645 325.331 311.08 326.368 311.889C335.413 318.949 359.675 338.267 371.314 348.616C371.418 348.708 371.54 348.778 371.672 348.823C371.804 348.868 371.943 348.886 372.082 348.877C372.221 348.868 372.357 348.831 372.482 348.769C372.607 348.707 372.719 348.621 372.81 348.517C372.895 348.425 372.961 348.317 373.005 348.199C373.048 348.082 373.068 347.957 373.063 347.832C373.058 347.707 373.028 347.584 372.975 347.471C372.923 347.357 372.848 347.255 372.756 347.17C362.646 337.991 338.699 318.952 327.81 310.443Z" fill="#000001"/>
<path d="M371.525 232.88C370.364 232.858 365.828 232.88 351.645 232.88C351.775 226.451 351.455 220.021 350.688 213.636C349.745 206.925 346.533 199.664 339.121 198.374C333.625 197.417 288.961 197.886 288.12 197.988C288.023 197.704 285.706 195.673 284.857 184.663C284.492 179.835 284.403 174.991 284.59 170.153C285.107 155.706 280.702 135.329 268.513 127.513C262.875 123.898 258.005 123.702 250.391 123.929C247.835 124.009 107.641 124.003 105.783 124.003C96.0877 124.003 85.6194 126.218 79.2408 134.119C71.7403 143.398 71.9193 156.317 71.3513 167.455C71.2831 168.767 73.3393 168.764 73.3932 167.455C73.4269 160.459 74.1277 153.481 75.4863 146.618C76.1937 142.937 77.7363 139.468 79.9953 136.477C82.2542 133.486 85.1693 131.053 88.5162 129.365C93.9306 126.916 99.8467 125.778 105.783 126.045H119.185C128.435 126.613 135.226 130.476 139.869 140.467C149.304 160.767 141.482 184.938 157.613 201.97C161.893 206.512 167.724 209.278 173.949 209.717C180.427 210.143 185.681 206.553 191.089 203.495C193.613 201.854 196.457 200.768 199.432 200.308C200.799 200.174 202.178 200.332 203.478 200.773C204.778 201.214 205.97 201.927 206.973 202.864C212.423 207.976 212.593 217.485 212.749 232.894H189.362C190.645 233.491 197.987 237.396 215.016 246.296C214.811 238.103 214.712 229.907 214.507 221.713C214.311 213.881 213.3 204.605 206.811 200.274C253.759 200.234 338.036 200.027 340.473 200.817C347.516 203.106 349.191 213.56 349.302 221.001C349.39 227.058 349.941 246.035 349.938 246.211C373.982 231.509 372.261 232.906 371.525 232.88ZM181.055 206.539C170.075 210.708 156.063 203.032 151.133 186.83C146.685 172.263 148.349 156.51 142.823 142.242C141.714 138.714 139.886 135.454 137.455 132.668C135.024 129.882 132.042 127.63 128.697 126.054C128.697 126.054 251.669 125.923 256.11 125.991C269.742 126.204 276.141 136.181 279.995 149.279C283.971 162.8 282.122 171.042 282.622 181.479C282.548 187.169 283.61 192.816 285.746 198.09C214.746 198.229 202.772 198.207 200.688 198.235C192.662 198.352 188.058 203.881 181.055 206.539Z" fill="#59DFFD"/>
<path d="M147.346 256.168L129.485 237.455C128.576 236.501 127.134 237.947 128.04 238.898L145.903 257.611C146.812 258.551 148.249 257.108 147.346 256.168Z" fill="#000001"/>
<path d="M120.255 293.625H147.476C147.738 293.611 147.984 293.498 148.164 293.308C148.344 293.118 148.445 292.866 148.445 292.604C148.445 292.342 148.344 292.09 148.164 291.9C147.984 291.71 147.738 291.597 147.476 291.583H120.255C119.993 291.597 119.747 291.71 119.567 291.9C119.387 292.09 119.286 292.342 119.286 292.604C119.286 292.866 119.387 293.118 119.567 293.308C119.747 293.498 119.993 293.611 120.255 293.625Z" fill="#000001"/>
<path d="M132.034 344.362L149.898 326.498C150.074 326.304 150.169 326.049 150.162 325.786C150.155 325.524 150.048 325.274 149.862 325.089C149.676 324.903 149.426 324.797 149.164 324.79C148.902 324.784 148.647 324.879 148.453 325.055L130.592 342.919C130.4 343.11 130.293 343.37 130.293 343.64C130.293 343.911 130.4 344.17 130.592 344.362C130.783 344.553 131.043 344.661 131.313 344.661C131.584 344.661 131.843 344.553 132.034 344.362Z" fill="#000001"/>
<path d="M363.401 114.248C361.453 113.666 359.396 113.547 357.394 113.9C355.392 114.253 353.5 115.068 351.868 116.281C350.523 117.345 349.411 118.674 348.6 120.186C347.79 121.698 347.298 123.36 347.156 125.069C347.014 126.778 347.225 128.499 347.775 130.123C348.325 131.748 349.203 133.242 350.354 134.514C352.412 136.617 355.134 137.944 358.059 138.269C360.983 138.595 363.93 137.899 366.4 136.3C366.629 136.159 366.795 135.935 366.863 135.675C366.931 135.415 366.897 135.138 366.767 134.903C365.287 132.228 363.751 129.581 362.192 126.951C365.094 126.667 370.873 126.193 371.396 125.951C371.594 125.886 371.767 125.763 371.894 125.598C372.021 125.433 372.096 125.233 372.109 125.025C372.294 122.46 371.498 119.919 369.882 117.918C368.265 115.917 365.949 114.605 363.401 114.248Z" fill="#EAEAEA"/>
<path d="M390.087 98.9061C389.831 98.1474 389.346 97.4869 388.699 97.0158C388.052 96.5446 387.275 96.2862 386.474 96.2763C382.589 95.8017 378.667 95.717 374.765 96.0235C376.844 94.2615 378.518 92.0711 379.672 89.6023C379.874 88.9547 379.925 88.2695 379.82 87.5994C379.716 86.9292 379.46 86.2918 379.071 85.7361C378.682 85.1803 378.171 84.721 377.577 84.3933C376.984 84.0656 376.323 83.8782 375.645 83.8456C374.061 83.9741 372.585 84.7 371.516 85.8762C370.127 87.0633 368.838 88.3725 367.54 89.6505C361.556 95.1522 356.378 101.47 352.158 108.417C352.081 108.574 352.044 108.748 352.049 108.923C352.055 109.098 352.104 109.269 352.191 109.421C352.278 109.572 352.401 109.7 352.55 109.793C352.698 109.886 352.867 109.941 353.042 109.954C363.646 110.215 374.221 108.708 384.33 105.495C386.038 105.098 387.619 104.277 388.925 103.106C389.455 102.56 389.839 101.889 390.042 101.155C390.245 100.421 390.26 99.6475 390.087 98.9061Z" fill="#000001"/>
<path d="M439.26 336.239C438.292 336.353 437.311 336.243 436.392 335.918C431.592 334.558 430.229 329.224 434.176 325.126C430.794 325.104 427.472 324.224 424.52 322.57C423.279 321.884 422.297 320.811 421.723 319.514C421.58 319.235 421.506 318.925 421.506 318.611C421.506 318.297 421.58 317.988 421.723 317.708C421.7 317.731 421.666 317.731 421.646 317.756C411.042 331.042 430.436 345.267 439.652 336.009C439.535 336.106 439.402 336.184 439.26 336.239Z" fill="white"/>
<path d="M444.46 324.274C444.175 321.782 443.133 319.436 441.474 317.554C439.815 315.672 437.619 314.344 435.182 313.749C433.097 313.159 430.9 313.086 428.78 313.537C426.661 313.989 424.684 314.95 423.021 316.339C422.529 316.741 422.096 317.208 421.731 317.728C421.591 318.009 421.519 318.318 421.519 318.631C421.519 318.945 421.591 319.254 421.731 319.534C422.305 320.831 423.288 321.904 424.529 322.59C427.48 324.243 430.802 325.123 434.185 325.146C430.209 329.273 431.654 334.586 436.4 335.938C437.319 336.264 438.3 336.374 439.268 336.259C439.896 335.895 440.422 335.379 440.796 334.757C443.194 331.792 444.489 328.087 444.46 324.274Z" fill="#000001"/>
<path d="M525.171 406.93C524.137 400.243 521.603 393.877 517.759 388.309C513.915 382.74 508.86 378.115 502.973 374.778C497.252 371.788 491.162 369.563 484.86 368.161C457.616 361.629 428.628 364.324 401.614 371.776C395.982 372.998 390.64 375.298 385.883 378.55C400.721 383.145 414.405 390.86 426.017 401.177C437.628 411.495 446.9 424.177 453.208 438.371C454.361 440.981 455.48 443.603 456.616 446.224C456.542 441.441 456.36 438.437 456.656 434.821C457.392 427.256 460.627 420.152 465.85 414.629C471.073 409.107 477.986 405.482 485.499 404.326C493.012 403.171 500.695 404.55 507.337 408.247C513.978 411.944 519.199 417.748 522.174 424.742C523.904 429.039 524.841 433.613 524.941 438.244C525.244 444.869 525.172 451.506 524.725 458.124C527.434 439.953 528.38 423.728 525.171 406.93Z" fill="white"/>
<path d="M396.03 453.213C388.438 457.729 380.175 461.006 371.552 462.92C371.58 468.37 371.836 482.976 371.864 484.831C371.869 485.1 371.977 485.357 372.168 485.547C372.358 485.737 372.615 485.846 372.884 485.85C374.176 485.87 403.272 486.188 403.272 486.188C399.886 475.433 397.463 464.397 396.03 453.213Z" fill="white"/>
<path d="M524.94 438.243C524.841 433.613 523.904 429.039 522.174 424.742C519.2 417.746 513.98 411.94 507.338 408.241C500.696 404.542 493.012 403.162 485.498 404.318C477.984 405.473 471.069 409.1 465.846 414.624C460.623 420.148 457.389 427.254 456.656 434.821C456.372 438.417 456.539 441.353 456.616 446.224C455.48 443.602 454.361 440.981 453.208 438.371C445.402 420.716 433.005 405.478 417.307 394.243C402.505 383.639 378.831 373.17 360.703 375.36C355.522 375.937 350.483 377.42 345.816 379.742C343.898 380.75 342.037 381.862 340.241 383.074C334.99 386.513 328.245 390.781 326.041 396.189C325.353 397.9 325.268 399.794 325.8 401.559C326.332 403.325 327.448 404.857 328.966 405.904C330.655 406.862 332.528 407.451 334.46 407.634C336.393 407.817 338.343 407.588 340.181 406.964C344.273 405.797 348.204 404.128 351.885 401.994C352.206 401.83 352.558 401.737 352.918 401.724C353.278 401.71 353.637 401.775 353.969 401.914C354.301 402.053 354.599 402.262 354.842 402.528C355.085 402.794 355.267 403.11 355.375 403.454C355.483 403.797 355.515 404.16 355.469 404.517C355.423 404.874 355.299 405.217 355.106 405.522C354.914 405.826 354.657 406.085 354.355 406.28C354.052 406.475 353.71 406.602 353.353 406.651C348.303 407.69 343.671 410.199 340.042 413.862C338.857 415.307 338.236 417.132 338.293 418.999C338.35 420.867 339.081 422.651 340.352 424.021C342.528 426.303 345.407 427.789 348.528 428.241C344.725 429.295 341.28 431.251 341.195 435.526C341.099 440.416 345.117 445.15 352.817 445.255C343.964 451.137 345.816 460.327 352.643 462.616C358.295 464.937 365.557 464.099 371.566 462.9C380.188 460.989 388.451 457.717 396.044 453.207C399.242 476.598 405.237 502.203 423.104 517.298C435.296 527.601 455.588 532.196 470.097 530.728C490.696 528.641 508.647 511.95 516.872 492.672C524.154 475.564 525.733 456.982 524.94 438.243ZM462.264 520.302C462.194 520.041 462.229 519.763 462.363 519.528C462.496 519.293 462.717 519.12 462.977 519.047L474.905 517.411C475.167 517.344 475.444 517.381 475.678 517.514C475.913 517.647 476.087 517.866 476.163 518.124C476.234 518.385 476.199 518.663 476.065 518.898C475.932 519.133 475.711 519.306 475.451 519.379L463.523 521.015C463.261 521.083 462.984 521.046 462.749 520.913C462.514 520.78 462.341 520.561 462.264 520.302ZM417.926 429.953C414.743 435.649 410.901 440.949 406.478 445.747C405.592 446.721 404.152 445.272 405.036 444.304C409.251 439.563 412.979 434.41 416.163 428.923C416.306 428.701 416.528 428.543 416.784 428.482C417.041 428.421 417.311 428.461 417.538 428.594C417.765 428.727 417.933 428.942 418.005 429.196C418.077 429.449 418.049 429.72 417.926 429.953ZM367.284 425.867L375.369 424.183C376.653 423.916 377.195 425.887 375.911 426.151L367.826 427.835C366.542 428.102 365.997 426.134 367.284 425.867ZM370.524 441.572C373.779 441.303 376.982 440.594 380.046 439.465C381.285 439.01 381.813 440.987 380.589 441.433C377.348 442.611 373.962 443.345 370.524 443.614C369.201 443.719 369.223 441.68 370.524 441.572Z" fill="#EAEAEA"/>
<path d="M317.432 429.062C316.714 430.166 318.48 431.189 319.196 430.09C321.752 426.159 325.1 419.13 328.599 417.332C328.796 417.211 329.025 417.152 329.255 417.163C329.486 417.175 329.708 417.257 329.891 417.398C331.729 418.744 331.01 421.834 330.479 423.603C329.319 427.243 327.761 430.743 325.833 434.04C325.188 435.176 326.952 436.218 327.594 435.071C329.511 431.755 331.091 428.255 332.308 424.623C332.909 423.329 333.182 421.908 333.104 420.484C333.026 419.06 332.598 417.677 331.859 416.458C327.043 410.82 320.681 424.055 317.432 429.062Z" fill="#000001"/>
<path d="M328.23 441.705C326.419 438.319 323.646 435.544 320.261 433.731C316.121 431.862 311.548 431.168 307.041 431.723C296.036 433.041 284.849 437.772 272.069 449.978C268.797 453.102 265.821 456.51 262.734 459.827C262.626 459.939 262.546 460.074 262.497 460.221C262.449 460.368 262.434 460.524 262.454 460.678C262.474 460.832 262.528 460.979 262.612 461.109C262.696 461.239 262.809 461.348 262.941 461.429C276.545 469.682 289.81 478.469 303.269 486.952C302.934 491.031 302.11 501.002 302.11 501.002C302.002 502.311 304.044 502.302 304.152 501.002L305.209 488.182C305.655 488.466 314.297 493.785 318.205 496.1C318.316 496.181 318.444 496.236 318.58 496.262C318.716 496.287 318.855 496.282 318.989 496.247C319.122 496.212 319.246 496.148 319.352 496.059C319.457 495.97 319.542 495.859 319.599 495.734C323.702 486.744 327.028 477.419 329.539 467.862C331.78 459.259 332.615 449.822 328.23 441.705Z" fill="#59DFFD"/>
<path d="M307.352 510.064C306.605 508.954 305.556 508.08 304.329 507.545C303.102 507.011 301.748 506.838 300.426 507.047C299.104 507.255 297.869 507.837 296.867 508.724C295.865 509.611 295.136 510.766 294.768 512.052C294.284 513.661 294.36 515.387 294.984 516.948C295.607 518.508 296.742 519.811 298.201 520.643C299.68 521.445 301.417 521.629 303.031 521.156C304.645 520.682 306.007 519.589 306.818 518.116C307.675 516.969 308.182 515.598 308.277 514.169C308.371 512.74 308.05 511.314 307.352 510.064Z" fill="#59DFFD"/>
<path d="M342.172 506.474C341.769 505.23 339.795 505.761 340.204 507.017L348.542 532.577C348.948 533.82 350.919 533.287 350.51 532.034L342.172 506.474Z" fill="#000001"/>
<path d="M347.455 504.348C347.311 504.13 347.089 503.976 346.834 503.917C346.58 503.857 346.313 503.898 346.088 504.029C345.862 504.161 345.695 504.373 345.622 504.624C345.548 504.874 345.573 505.143 345.691 505.376C349.474 512.192 358.355 527.624 358.925 528.573C359.062 528.806 359.286 528.976 359.548 529.044C359.81 529.113 360.088 529.074 360.321 528.938C360.555 528.801 360.724 528.577 360.793 528.315C360.861 528.054 360.823 527.775 360.686 527.542C357.974 522.654 347.617 504.632 347.455 504.348Z" fill="#000001"/>
<path d="M416.162 428.922C412.978 434.41 409.25 439.563 405.035 444.304C404.151 445.272 405.603 446.721 406.477 445.747C410.899 440.949 414.741 435.648 417.926 429.953C418.048 429.72 418.077 429.449 418.004 429.196C417.932 428.942 417.765 428.727 417.537 428.594C417.31 428.461 417.04 428.421 416.783 428.482C416.527 428.543 416.305 428.701 416.162 428.922Z" fill="#000001"/>
<path d="M380.047 439.464C376.983 440.594 373.78 441.303 370.525 441.572C369.224 441.68 369.213 443.719 370.525 443.614C373.963 443.345 377.349 442.611 380.59 441.433C381.814 440.987 381.285 439.01 380.047 439.464Z" fill="#000001"/>
<path d="M375.369 424.183L367.283 425.867C365.997 426.134 366.542 428.102 367.826 427.835L375.911 426.151C377.195 425.884 376.653 423.916 375.369 424.183Z" fill="#000001"/>
<path d="M474.893 517.411L462.965 519.047C462.705 519.12 462.484 519.293 462.351 519.528C462.217 519.763 462.182 520.041 462.252 520.302C462.329 520.56 462.502 520.779 462.736 520.912C462.97 521.045 463.247 521.082 463.508 521.015L475.436 519.379C475.696 519.306 475.917 519.133 476.051 518.898C476.184 518.663 476.219 518.385 476.149 518.124C476.072 517.866 475.898 517.648 475.664 517.515C475.43 517.382 475.154 517.345 474.893 517.411Z" fill="#000001"/>
<path d="M195.145 435.182C191.583 438.113 188.113 441.151 184.733 444.298C183.771 445.196 185.216 446.636 186.176 445.741C189.552 442.598 193.023 439.559 196.59 436.625C197.604 435.79 196.153 434.353 195.145 435.182Z" fill="white"/>
<path d="M117.59 432.021C99.8311 446.566 81.0186 459.775 61.3072 471.54C61.0858 471.683 60.9281 471.905 60.8669 472.161C60.8056 472.418 60.8457 472.688 60.9786 472.915C61.1115 473.142 61.3271 473.31 61.5804 473.382C61.8337 473.455 62.1051 473.426 62.3382 473.303C82.2662 461.553 101.225 448.231 119.033 433.464C120.05 432.632 118.599 431.195 117.59 432.021Z" fill="white"/>
<path d="M169.905 479.659L165.228 483.919C164.254 484.805 165.699 486.245 166.67 485.362L171.348 481.102C172.322 480.219 170.876 478.779 169.905 479.659Z" fill="white"/>
<path d="M239.361 347.17L232.491 353.91C231.551 354.833 232.994 356.275 233.934 355.352L240.804 348.616C241.744 347.693 240.298 346.25 239.361 347.17Z" fill="white"/>
<path d="M252.911 360.723L246.314 366.076C245.294 366.903 246.748 368.348 247.759 367.519L254.354 362.157C255.376 361.339 253.922 359.902 252.911 360.723Z" fill="white"/>
<path d="M34.5655 442.052C34.4501 441.984 34.3223 441.939 34.1895 441.92C34.0567 441.902 33.9215 441.91 33.7918 441.944C33.6621 441.978 33.5405 442.037 33.434 442.119C33.3274 442.2 33.2381 442.302 33.1711 442.418L23.5151 465.252C23.386 465.487 23.352 465.763 23.4201 466.023C23.4882 466.283 23.6533 466.507 23.8814 466.649C24.1154 466.785 24.3939 466.824 24.6559 466.755C24.9178 466.686 25.1418 466.516 25.2787 466.283L34.9347 443.446C35.0642 443.211 35.098 442.935 35.0293 442.675C34.9605 442.415 34.7945 442.192 34.5655 442.052Z" fill="#000001"/>
<path d="M26.5681 439.956L14.3107 466.164C13.7569 467.345 15.5148 468.385 16.0715 467.195L28.3289 440.987C28.8827 439.806 27.1247 438.78 26.5681 439.956Z" fill="#000001"/>
<path d="M454.33 175.998C455.173 174.443 455.564 172.683 455.461 170.918C455.357 169.152 454.763 167.45 453.745 166.004C452.759 164.783 451.504 163.805 450.079 163.146C448.654 162.488 447.096 162.166 445.526 162.207C446.406 160.953 447.009 159.525 447.294 158.02C447.58 156.515 447.542 154.966 447.182 153.477C445.399 146.158 435.561 143.568 428.895 148.95C426.095 151.222 422.991 153.051 419.12 156.129C408.896 164.26 414.599 174.689 424.834 172.624C422.574 174.316 421.071 176.83 420.652 179.622C420.232 182.414 420.93 185.259 422.593 187.54C425.271 190.828 429.56 190.096 433.578 188.985C432.152 190.244 431.025 191.805 430.278 193.555C429.776 194.701 429.622 195.969 429.837 197.202C430.051 198.434 430.625 199.576 431.485 200.484C432.33 201.244 433.318 201.827 434.391 202.201C435.463 202.574 436.6 202.73 437.733 202.66C439.805 202.549 441.846 202.115 443.783 201.373C450.789 198.673 458.173 194.273 462.078 187.827C463.02 186.445 463.524 184.812 463.524 183.141C463.524 181.469 463.02 179.836 462.078 178.455C461.221 177.267 460.006 176.388 458.61 175.945C457.215 175.503 455.714 175.521 454.33 175.998ZM422.784 170.826C421.665 170.954 420.533 170.81 419.482 170.407C418.431 170.004 417.492 169.354 416.746 168.512C416.09 167.444 415.759 166.209 415.793 164.956C415.826 163.704 416.224 162.488 416.936 161.457C418.452 159.263 420.398 157.399 422.656 155.979C424.482 154.653 426.325 153.349 428.157 152.031C429.879 150.518 431.86 149.327 434.004 148.518C435.985 147.85 438.136 147.889 440.09 148.631C442.045 149.372 443.681 150.768 444.72 152.582C445.621 154.463 445.756 156.62 445.095 158.599C444.434 160.577 443.029 162.22 441.178 163.181C437.802 164.99 434.243 166.387 430.849 168.16C428.381 169.611 425.631 170.52 422.784 170.826ZM431.928 187.298C429.506 187.849 426.547 188.61 424.57 186.665C423.198 185.073 422.476 183.023 422.549 180.923C422.621 178.822 423.483 176.827 424.962 175.333C430.738 169.244 435.992 168.268 442.209 164.942C443.89 164.036 445.847 163.786 447.701 164.241C449.556 164.696 451.175 165.824 452.245 167.405C453.315 168.987 453.759 170.909 453.491 172.8C453.224 174.69 452.264 176.414 450.797 177.637C447.157 179.772 443.459 181.809 439.861 184.018C437.414 185.539 434.734 186.648 431.928 187.301V187.298ZM440.096 200.342C438.282 200.797 436.376 200.726 434.601 200.135C433.658 199.809 432.862 199.157 432.357 198.296C431.851 197.436 431.669 196.423 431.843 195.441C432.567 192.865 434.198 190.639 436.436 189.173C441.107 185.387 439.88 186.415 451.973 179.315C452.968 178.508 454.169 177.995 455.44 177.836C456.711 177.677 458.001 177.878 459.164 178.415C467.582 185.396 451.212 197.679 440.096 200.345V200.342Z" fill="#000001"/>
<path d="M271.405 354.81C268.475 354.49 265.511 354.78 262.698 355.662C264.05 353.714 265.067 351.554 265.708 349.272H372.038C372.302 349.271 372.559 349.193 372.779 349.047C372.998 348.901 373.17 348.694 373.273 348.451C373.492 348.167 373.407 348.482 373.407 286.823H425.81C426.173 286.819 426.519 286.674 426.775 286.418C427.032 286.162 427.178 285.816 427.182 285.454C427.182 285.454 427.466 272.697 427.52 266.684C450.2 267.414 481.06 263.802 479.361 241.198C478.552 230.474 474.303 219.33 466.366 207.118C465.397 205.627 458.931 195.985 457.144 194.12C459.224 192.397 460.996 190.333 462.384 188.016C466.36 181.456 461.316 174.027 455 175.452C455.688 173.896 455.96 172.188 455.789 170.495C455.618 168.802 455.009 167.183 454.023 165.796C453.071 164.622 451.879 163.665 450.527 162.988C449.175 162.312 447.695 161.931 446.185 161.871C446.966 160.687 447.495 159.355 447.74 157.958C447.985 156.561 447.939 155.129 447.607 153.75C447.275 152.371 446.663 151.074 445.809 149.942C444.955 148.809 443.878 147.864 442.643 147.166C439.82 145.652 436.511 145.321 433.444 146.246V108.343C522.794 165.685 521.899 165.33 522.353 164.981C522.562 164.961 522.762 164.885 522.932 164.762C523.101 164.638 523.235 164.472 523.319 164.28C532.463 144.027 537.382 122.124 537.777 99.9063C538.172 77.689 534.035 55.6243 525.617 35.0597C525.432 34.7417 525.132 34.5076 524.779 34.4064C524.426 34.3053 524.047 34.345 523.722 34.5172C506.597 42.8668 442.118 81.4937 419.344 96.4292C419.119 96.5769 418.977 96.6451 418.889 97.3267C418.659 99.096 418.793 104.995 418.781 127.059C418.078 125.68 416.876 124.621 415.419 124.096C413.963 123.571 412.362 123.62 410.94 124.233C409.954 124.867 409.122 125.713 408.505 126.709C407.887 127.706 407.5 128.827 407.37 129.992C406.104 137.249 405.749 150 406.317 167.904C397.805 160.06 387.304 154.703 375.957 152.417C363.307 149.457 350.044 150.598 338.086 155.674C322.656 162.323 310.802 171.948 303.128 197.249C299.683 197.317 289.885 197.57 288.3 197.644C286.277 193.614 285.223 189.166 285.225 184.657C284.864 179.837 284.776 175.002 284.961 170.173C285.509 154.857 280.664 134.88 268.719 127.223C262.897 123.489 257.91 123.358 250.395 123.582C249.367 123.617 105.799 123.656 105.799 123.656C93.4992 123.656 84.4737 127.107 78.9811 133.906C71.5119 143.136 71.5971 155.845 70.9979 167.446C70.9041 169.227 73.6589 169.264 73.747 167.483C74.2866 156.975 74.1332 145.615 80.0944 136.959C86.4702 127.698 98.4408 126.369 104.967 126.422C118.44 126.508 120.417 125.965 125.847 127.558C128.928 128.637 131.744 130.36 134.106 132.612C136.469 134.865 138.324 137.596 139.547 140.622C145.863 154.212 144.375 169.832 147.874 184.251C150.742 196.096 159.092 209.101 173.925 210.08C180.505 210.501 185.853 206.868 191.286 203.801C193.759 202.187 196.549 201.122 199.468 200.677C200.783 200.544 202.111 200.693 203.363 201.115C204.616 201.537 205.763 202.221 206.73 203.122C210.618 206.76 211.558 212.903 211.924 217.851C212.308 222.897 212.356 228.208 212.387 232.539H189.142C188.804 232.553 188.483 232.687 188.235 232.916C187.987 233.146 187.83 233.456 187.79 233.792C187.79 233.874 187.773 233.885 187.773 347.579C187.735 347.784 187.741 347.994 187.792 348.196C187.843 348.398 187.938 348.587 188.069 348.749C188.199 348.911 188.364 349.042 188.551 349.135C188.738 349.227 188.942 349.277 189.15 349.283H209.99L155.122 399.236C143.484 392.44 129.928 389.678 116.56 391.38C116.276 365.09 116.713 358.982 113.967 353.293C110.037 345.151 100.619 343.921 93.3629 346.943C82.4771 351.453 78.6431 362.674 74.9341 373.525C74.9341 373.525 57.8657 421.186 56.9228 423.793C44.3877 441.842 36.8938 462.908 35.2139 484.819C35.2197 485.182 35.3665 485.527 35.6231 485.784C35.8797 486.04 36.226 486.186 36.5884 486.191H207.133C207.496 486.186 207.843 486.041 208.099 485.784C208.356 485.528 208.503 485.182 208.508 484.819C208.63 474.998 206.957 461.185 201.902 451.696C223.469 430.862 235.175 418.923 249.924 403.618C261.772 391.318 272.016 380.708 277.344 365.724C277.775 364.621 277.959 363.438 277.885 362.257C277.81 361.076 277.479 359.925 276.913 358.885C276.347 357.846 275.561 356.942 274.61 356.238C273.659 355.534 272.565 355.047 271.405 354.81ZM194.791 235.288H212.43C212.453 237.378 212.543 242.55 212.589 244.618C210.828 243.703 197.006 236.447 194.791 235.288ZM171.585 481.38C172.903 480.181 170.989 478.216 169.665 479.412L165.218 483.453C158.572 483.453 45.8298 483.368 38.0936 483.422C40.2463 455.76 56.1674 419.411 79.2452 406.143C100.261 394.058 131.146 387.881 153.009 401.164L120.888 430.416C120.634 430.679 120.493 431.032 120.496 431.398C120.499 431.764 120.646 432.114 120.905 432.373C122.797 434.077 172.079 478.341 172.136 478.381C172.399 478.624 172.743 478.76 173.102 478.76C173.46 478.76 173.805 478.624 174.067 478.381C181.94 470.855 197.321 456.121 199.829 453.715C203.879 463.098 205.888 473.235 205.722 483.453H169.304L171.585 481.38ZM123.95 431.322C123.95 431.322 253.86 312.999 256.376 310.761C258.485 308.521 261.326 307.111 264.385 306.785C267.526 306.785 268.523 310.009 267.56 312.749C266.994 314.375 266.24 315.93 265.313 317.381C259.163 327.268 251.589 336.195 242.835 343.873C241.492 345.06 243.357 346.931 244.732 345.861C248.14 343.203 252.832 339.564 258.026 340.507C259.02 340.673 259.961 341.066 260.776 341.658C261.592 342.249 262.258 343.022 262.723 343.915C263.097 344.929 263.266 346.007 263.222 347.087C263.177 348.166 262.919 349.227 262.462 350.206C261.296 352.812 259.759 355.235 257.901 357.402C257.699 357.623 257.574 357.903 257.544 358.2C257.515 358.497 257.582 358.796 257.737 359.052C257.891 359.308 258.124 359.507 258.401 359.619C258.678 359.731 258.984 359.751 259.273 359.674C264.013 358.13 271.408 355.307 274.245 359.649C274.677 360.339 274.958 361.112 275.069 361.919C275.18 362.725 275.119 363.545 274.89 364.326C274.197 366.73 273.258 369.056 272.09 371.267C265.808 383.584 256.819 392.451 246.655 403.033C232.611 417.653 217.403 433.216 173.07 475.504C169.472 472.292 127.858 434.844 123.95 431.322ZM372.93 232.894C372.339 232.366 374.009 232.536 351.993 232.536C352.084 226.209 351.769 219.883 351.05 213.596C350.465 209.436 348.139 199.592 339.19 198.033C331.866 196.758 313.528 197.053 306.028 197.181C312.511 176.387 323.414 161.812 346.924 155.464C355.519 153.37 364.455 153.079 373.168 154.609C381.881 156.14 390.183 159.458 397.55 164.356C406.799 170.366 412.627 178.965 416.444 192.242C425.174 222.591 425.208 254.234 424.467 284.065H373.407V233.899C373.399 233.708 373.353 233.521 373.271 233.348C373.189 233.175 373.073 233.021 372.93 232.894ZM352.064 235.288H367.139L352.291 244.356C352.291 243.805 352.254 242.559 352.064 235.288ZM326.146 312.167C333.439 317.847 356.634 336.293 368.374 346.531H266.052C266.029 339.84 259.386 336.327 252.724 338.113C258.487 332.06 263.604 325.422 267.992 318.307C270.462 314.277 271.235 311.034 270.352 308.393C269.823 306.837 268.719 305.543 267.268 304.775C265.816 304.006 264.125 303.821 262.542 304.258C259.212 305.166 256.186 306.949 253.777 309.421L213.015 346.517H192.999C200.88 340.059 232.676 313.309 234.139 312.065C235.505 310.9 233.571 308.941 232.233 310.077C228.405 313.337 196.032 340.465 190.528 344.989V236.183C289.243 287.837 286.435 286.411 287.051 286.647C287.247 286.765 287.473 286.825 287.702 286.822C287.931 286.819 288.155 286.753 288.349 286.63C294.554 282.679 368.363 237.782 370.655 236.382V344.853C359.579 335.108 338.75 318.543 328.026 310.165C326.632 309.071 324.741 311.071 326.146 312.167ZM348.946 221.003C349.017 225.865 349.571 245.711 349.579 246.012C347.852 247.066 291.109 281.631 287.582 283.866L215.364 246.075C214.761 221.58 215.591 212.807 211.569 205.076C210.668 203.35 209.413 201.834 207.886 200.626C345.171 200.504 336.799 199.981 340.349 201.151C347.881 203.594 348.869 215.84 348.946 221.003ZM513.626 79.3353C519.067 85.8703 522.276 93.9733 522.785 102.461C522.329 111.675 519.043 120.523 513.373 127.8C511.106 111.718 511.191 95.3923 513.626 79.3353ZM525.196 97.0171C523.894 88.9237 520.009 81.4687 514.12 75.7654C515.898 63.1881 519.336 50.9021 524.344 39.2288C539.251 78.2705 538.48 121.565 522.192 160.051C518.596 150.814 515.847 141.269 513.978 131.534C520.769 123.298 527.255 109.95 525.196 97.0171ZM508.909 104.495C508.766 123.55 512.293 142.454 519.298 160.176L432.763 104.634C432.451 104.452 432.081 104.401 431.732 104.49C431.383 104.579 431.083 104.802 430.897 105.111C430.613 105.395 430.687 104.875 430.687 147.336C430.147 147.62 421.8 153.641 421.514 153.851C421.514 147.339 421.514 103.768 421.514 98.3121C439.491 87.8524 505.549 46.5134 521.638 38.5926C513.23 59.547 508.909 81.9166 508.909 104.495ZM440.01 200.001C438.262 200.44 436.425 200.371 434.714 199.802C433.854 199.499 433.128 198.902 432.666 198.115C432.204 197.329 432.035 196.404 432.189 195.505C432.904 193.017 434.489 190.868 436.656 189.451C441.325 185.668 440.127 186.687 452.177 179.607C453.11 178.844 454.237 178.355 455.432 178.195C456.628 178.035 457.844 178.21 458.945 178.701C467.127 185.506 450.422 197.505 440.01 200.001ZM450.57 177.361C449.255 178.13 441.956 182.317 439.672 183.719C437.186 185.258 434.46 186.37 431.607 187.008C429.253 187.542 426.589 188.158 424.816 186.415C423.516 184.886 422.836 182.926 422.909 180.92C422.983 178.914 423.805 177.009 425.214 175.58C430.931 169.554 436.222 168.551 442.351 165.268C443.952 164.399 445.819 164.155 447.59 164.585C449.361 165.015 450.908 166.088 451.933 167.595C452.957 169.102 453.385 170.936 453.133 172.74C452.881 174.545 451.967 176.192 450.57 177.361ZM441.007 162.877C437.648 164.669 434.089 166.072 430.664 167.858C428.241 169.289 425.539 170.182 422.74 170.477C421.688 170.598 420.623 170.467 419.632 170.093C418.641 169.72 417.753 169.115 417.043 168.33C416.425 167.32 416.112 166.153 416.145 164.97C416.177 163.786 416.552 162.638 417.225 161.664C418.716 159.5 420.634 157.664 422.86 156.268C431.59 149.929 431.411 149.878 434.115 148.858C436.013 148.224 438.072 148.263 439.944 148.969C441.817 149.675 443.389 151.005 444.395 152.735C445.257 154.534 445.385 156.597 444.753 158.489C444.12 160.38 442.777 161.952 441.007 162.871V162.877ZM418.762 155.961C409.04 163.663 413.65 174.322 423.703 173.166C421.706 174.997 420.458 177.503 420.201 180.201C419.945 182.898 420.698 185.595 422.314 187.769C424.768 190.783 428.525 190.584 432.374 189.666C426.111 196.443 430.619 203.412 437.755 203.014C439.864 202.905 441.942 202.464 443.913 201.708C447.843 200.238 451.561 198.254 454.972 195.809C457.598 198.939 459.995 202.253 462.145 205.727C467.284 212.868 471.37 220.711 474.278 229.015C475.559 232.987 476.342 237.104 476.61 241.269C478.314 261.902 448.283 264.481 427.52 263.944C427.899 242.574 425.836 221.23 421.372 200.328C419.182 190.672 416.021 179.672 409.16 171.113C408.876 163.308 408.498 148.739 409.216 137.924C409.233 134.888 409.665 131.869 410.5 128.95C411.713 125.59 414.712 125.732 416.464 128.453C417.134 130.999 417.573 133.601 417.776 136.226C418.732 142.756 419.062 149.363 418.762 155.956V155.961ZM285.193 197.741C258.072 197.792 206.242 197.854 202.657 197.885C191.101 197.982 189.61 202.909 180.929 206.207C178.52 207.068 175.959 207.422 173.407 207.245C170.855 207.068 168.368 206.364 166.101 205.179C162.538 203.255 159.403 200.626 156.887 197.453C154.372 194.279 152.529 190.627 151.469 186.719C147.036 172.195 148.7 156.433 143.154 142.099C141.005 135.441 136.424 129.837 130.325 126.408C144.912 126.408 251.983 126.283 256.103 126.349C267.747 126.53 275.018 133.633 279.653 149.381C281.756 156.68 282.629 164.279 282.237 171.865C282.126 180.294 281.993 190.734 285.193 197.741ZM80.7277 365.462C82.3169 361.273 84.664 357.413 87.6516 354.074C92.4995 348.794 101.215 346.219 107.571 350.013C109.241 351.182 110.613 352.726 111.579 354.52C112.545 356.315 113.078 358.31 113.135 360.348C113.578 363.92 113.544 365.931 113.817 391.656C103.198 393.053 92.8783 396.172 83.2638 400.891C75.2018 404.647 68.0552 410.115 62.3217 416.915C73.8975 384.879 79.8785 367.627 80.7277 365.462Z" fill="#000001"/>
<path d="M544.634 77.5317C544.478 75.7595 541.729 75.8277 541.885 77.5942C543.62 97.2697 545.577 119.572 536.924 138.967C536.199 140.583 538.599 141.92 539.332 140.29C548.403 120.132 546.307 96.5171 544.634 77.5317Z" fill="#000001"/>
<path d="M551.286 68.728C551.243 68.5411 551.161 68.3656 551.045 68.2128C550.929 68.0601 550.782 67.9337 550.613 67.8419C550.38 67.7182 550.116 67.6641 549.853 67.6861C549.59 67.708 549.339 67.8051 549.129 67.9658C548.92 68.1265 548.761 68.344 548.672 68.5924C548.582 68.8408 548.566 69.1097 548.625 69.367C552.141 95.3104 554.524 122.628 541.988 146.385C541.159 147.953 543.539 149.33 544.38 147.748C557.321 123.31 554.887 95.3161 551.286 68.728Z" fill="#000001"/>
<path d="M413.344 91.6326C414.503 92.9787 416.491 91.0816 415.332 89.7269L409.033 82.4054C407.86 81.0394 405.909 82.9734 407.045 84.311L413.344 91.6326Z" fill="#000001"/>
<path d="M94.0311 380.926C96.3441 382.185 99.0257 382.591 101.608 382.075C104.19 381.558 106.509 380.151 108.159 378.099C109.81 376.047 110.687 373.481 110.639 370.848C110.59 368.215 109.618 365.683 107.893 363.693C106.856 362.276 105.507 361.116 103.951 360.304C102.394 359.492 100.671 359.048 98.9158 359.008C97.1604 358.968 95.4192 359.332 93.8271 360.073C92.2349 360.813 90.8343 361.91 89.7338 363.278C88.6332 364.646 87.8621 366.249 87.4802 367.963C87.0982 369.677 87.1156 371.455 87.531 373.162C87.9465 374.868 88.7488 376.455 89.8759 377.802C91.003 379.148 92.4247 380.217 94.0311 380.926ZM89.9613 369.566C90.2847 367.852 91.0988 366.269 92.3047 365.008C93.5106 363.748 95.0565 362.865 96.7546 362.466C98.4222 362.172 100.137 362.307 101.738 362.857C103.34 363.407 104.775 364.354 105.911 365.61C107.067 367.066 107.73 368.853 107.802 370.712C107.875 372.57 107.353 374.403 106.314 375.945C105.194 377.48 103.597 378.601 101.772 379.133C99.948 379.664 97.9988 379.577 96.2292 378.884C94.3321 378.194 92.703 376.919 91.5766 375.243C90.4502 373.568 89.8847 371.578 89.9613 369.561V369.566Z" fill="#000001"/>
<path d="M322.458 221.477H243.057C242.703 221.493 242.369 221.645 242.124 221.902C241.879 222.158 241.742 222.499 241.742 222.853C241.742 223.208 241.879 223.548 242.124 223.805C242.369 224.061 242.703 224.213 243.057 224.229H322.472C322.653 224.224 322.83 224.182 322.995 224.107C323.159 224.032 323.307 223.925 323.429 223.792C323.609 223.598 323.73 223.356 323.776 223.095C323.823 222.834 323.793 222.565 323.69 222.321C323.588 222.077 323.417 221.867 323.198 221.718C322.98 221.568 322.723 221.484 322.458 221.477Z" fill="#000001"/>
<path d="M322.458 246.151H243.057C242.703 246.167 242.369 246.319 242.124 246.576C241.879 246.832 241.742 247.173 241.742 247.527C241.742 247.882 241.879 248.222 242.124 248.479C242.369 248.735 242.703 248.887 243.057 248.903H322.472C322.826 248.887 323.16 248.735 323.405 248.479C323.65 248.222 323.787 247.882 323.787 247.527C323.787 247.173 323.65 246.832 323.405 246.576C323.16 246.319 322.826 246.167 322.472 246.151H322.458Z" fill="#000001"/>
<path d="M255.546 175.546H176.384C176.03 175.562 175.696 175.714 175.451 175.97C175.206 176.227 175.069 176.567 175.069 176.922C175.069 177.276 175.206 177.617 175.451 177.873C175.696 178.13 176.03 178.282 176.384 178.298H255.558C255.912 178.282 256.246 178.13 256.491 177.873C256.736 177.617 256.873 177.276 256.873 176.922C256.873 176.567 256.736 176.227 256.491 175.97C256.246 175.714 255.912 175.562 255.558 175.546H255.546Z" fill="#000001"/>
<path d="M255.546 153.431H176.395C176.209 153.422 176.023 153.452 175.849 153.517C175.675 153.582 175.515 153.682 175.381 153.811C175.246 153.939 175.139 154.094 175.066 154.265C174.993 154.436 174.955 154.621 174.955 154.807C174.955 154.993 174.993 155.177 175.066 155.348C175.139 155.519 175.246 155.674 175.381 155.803C175.515 155.931 175.675 156.031 175.849 156.096C176.023 156.162 176.209 156.191 176.395 156.183H255.557C255.911 156.167 256.246 156.015 256.49 155.758C256.735 155.502 256.872 155.161 256.872 154.807C256.872 154.452 256.735 154.111 256.49 153.855C256.246 153.599 255.911 153.447 255.557 153.431H255.546Z" fill="#000001"/>
<path d="M466.918 250.587C468.318 247.918 468.932 244.906 468.687 241.902C468.542 240.144 465.779 240.173 465.938 241.965C466.165 244.472 465.673 246.992 464.518 249.229C463.706 250.809 466.091 252.169 466.918 250.587Z" fill="#000001"/>
<path d="M146.583 258.267C146.852 258.258 147.113 258.173 147.336 258.021C147.558 257.87 147.733 257.658 147.84 257.411C147.947 257.164 147.981 256.892 147.939 256.626C147.897 256.36 147.781 256.112 147.603 255.91L129.739 237.197C128.507 235.905 126.553 237.844 127.783 239.134C147.293 259.576 145.819 258.267 146.583 258.267Z" fill="#000001"/>
<path d="M118.914 292.651C118.928 292.999 119.072 293.329 119.319 293.575C119.565 293.821 119.895 293.966 120.243 293.98H147.487C147.841 293.964 148.175 293.812 148.42 293.555C148.665 293.299 148.802 292.958 148.802 292.604C148.802 292.249 148.665 291.908 148.42 291.652C148.175 291.396 147.841 291.244 147.487 291.228H120.243C119.878 291.241 119.534 291.398 119.285 291.665C119.036 291.931 118.902 292.286 118.914 292.651Z" fill="#000001"/>
<path d="M130.329 342.677C130.093 342.94 129.967 343.283 129.976 343.636C129.986 343.989 130.13 344.325 130.38 344.574C130.631 344.824 130.967 344.967 131.32 344.976C131.673 344.984 132.016 344.857 132.278 344.62L150.17 326.728C150.405 326.465 150.531 326.121 150.52 325.768C150.51 325.415 150.364 325.08 150.113 324.831C149.862 324.582 149.525 324.44 149.172 324.432C148.819 324.425 148.477 324.553 148.216 324.791L130.329 342.677Z" fill="#000001"/>
<path d="M352.158 136.465C354.289 137.897 356.792 138.673 359.359 138.697C361.925 138.722 364.443 137.993 366.6 136.601C366.905 136.411 367.126 136.112 367.217 135.764C367.308 135.416 367.262 135.047 367.088 134.732C365.861 132.511 364.532 130.188 362.794 127.246C365.58 126.985 370.99 126.533 371.558 126.269C371.814 126.175 372.036 126.01 372.199 125.792C372.362 125.574 372.458 125.314 372.476 125.042C372.655 122.4 371.832 119.788 370.171 117.725C368.511 115.662 366.135 114.299 363.516 113.909C361.511 113.313 359.395 113.192 357.336 113.556C355.277 113.921 353.331 114.76 351.653 116.008C350.079 117.228 348.814 118.801 347.96 120.6C347.106 122.399 346.686 124.373 346.735 126.364C346.785 128.355 347.301 130.306 348.243 132.061C349.185 133.815 350.526 135.324 352.158 136.465ZM360.499 124.721C360.261 124.729 360.028 124.798 359.824 124.921C359.62 125.045 359.451 125.219 359.334 125.427C359.217 125.634 359.155 125.869 359.155 126.107C359.154 126.346 359.215 126.581 359.332 126.789C359.943 127.857 363.087 133.221 364.007 134.863C362.47 135.663 360.751 136.048 359.02 135.979C357.289 135.91 355.606 135.389 354.138 134.47C352.67 133.55 351.468 132.262 350.651 130.735C349.834 129.207 349.43 127.492 349.48 125.761C349.59 123.201 350.667 120.778 352.494 118.983C354.322 117.187 356.763 116.152 359.324 116.088C362.017 116.061 364.657 116.833 366.912 118.306C367.753 118.959 368.44 119.788 368.927 120.734C369.413 121.681 369.686 122.723 369.727 123.787C366.256 124.156 362.965 124.474 360.485 124.721H360.499Z" fill="#000001"/>
<path d="M353.024 110.308C363.664 110.579 374.275 109.067 384.417 105.835C386.184 105.421 387.819 104.567 389.168 103.353C389.807 102.792 390.263 102.052 390.477 101.229C390.69 100.406 390.651 99.5382 390.365 98.7375C390.08 97.9367 389.56 97.2403 388.873 96.7386C388.187 96.2369 387.366 95.953 386.516 95.9237C382.931 95.4866 379.314 95.3782 375.71 95.5999C377.537 93.9551 379.002 91.9483 380.012 89.7069C380.231 89.0042 380.285 88.2606 380.169 87.5337C380.054 86.8069 379.773 86.1163 379.348 85.5156C378.923 84.9149 378.365 84.4203 377.718 84.07C377.07 83.7197 376.351 83.5233 375.616 83.4958C373.956 83.6247 372.408 84.3801 371.285 85.6088C369.944 86.7448 368.661 88.0484 367.283 89.3974C361.273 94.9461 356.068 101.307 351.817 108.295C351.72 108.505 351.675 108.735 351.688 108.967C351.7 109.198 351.769 109.422 351.888 109.621C352.007 109.819 352.172 109.986 352.37 110.105C352.568 110.225 352.793 110.295 353.024 110.308ZM370.862 96.327C370.673 96.5238 370.547 96.7719 370.499 97.0403C370.451 97.3087 370.483 97.5853 370.591 97.8353C370.7 98.0854 370.88 98.2977 371.109 98.4457C371.338 98.5937 371.606 98.6708 371.878 98.6671C376.584 98.1494 381.332 98.1342 386.041 98.6217C388.796 98.954 387.922 101.078 386.521 101.996C385.147 102.754 383.673 103.314 382.142 103.66C373.487 106.282 364.49 107.601 355.446 107.573C359.047 102.122 363.25 97.0925 367.976 92.581C373.338 87.2106 374.792 85.765 376.238 86.387C376.617 86.5459 376.94 86.8153 377.165 87.1602C377.389 87.5052 377.504 87.9096 377.496 88.321C377.124 90.4198 373.702 93.93 370.862 96.327Z" fill="#000001"/>
<path d="M435.265 313.405C433.123 312.795 430.864 312.718 428.686 313.183C426.507 313.647 424.476 314.638 422.769 316.069C420.93 317.64 419.57 319.697 418.844 322.005C418.118 324.313 418.056 326.778 418.665 329.119C421.221 337.829 433.226 342.955 439.877 336.29C443.025 333.078 444.789 328.76 444.79 324.263C444.503 321.696 443.436 319.28 441.733 317.338C440.029 315.397 437.772 314.024 435.265 313.405ZM435.43 335.983C428.015 339.019 417.254 329.877 422.227 321.178C423.7 322.801 425.623 323.948 427.75 324.473C429.515 325.021 431.337 325.361 433.181 325.487C432.438 326.246 431.895 327.177 431.6 328.197C431.305 329.217 431.268 330.295 431.49 331.333C431.713 332.371 432.189 333.338 432.877 334.148C433.564 334.957 434.441 335.584 435.43 335.972V335.983ZM434.234 330.235C434.395 329.08 434.864 327.99 435.591 327.079C436.318 326.168 437.276 325.468 438.366 325.055C438.653 324.963 438.901 324.78 439.074 324.534C439.247 324.287 439.335 323.991 439.324 323.691C439.313 323.39 439.204 323.101 439.014 322.868C438.823 322.635 438.562 322.47 438.27 322.399C436.944 322.294 436.424 322.794 434.149 322.737C430.951 322.672 424.956 321.289 423.999 318.761C430.926 311.832 442.675 317.56 442.041 325.558C441.766 328.639 440.491 331.546 438.412 333.836C436.359 333.635 434.234 332.584 434.234 330.235Z" fill="#000001"/>
<path d="M516.814 386.351C510.481 377.601 500.995 371.867 486.96 368.328C472.641 364.684 457.833 363.348 443.093 364.369C429.031 365.309 415.101 367.676 401.518 371.435C395.906 372.666 390.577 374.946 385.81 378.154C377.753 375.302 369.174 374.228 360.662 375.008C355.439 375.587 350.358 377.082 345.653 379.424C341.74 381.613 337.958 384.028 334.327 386.657C330.665 388.964 327.686 392.207 325.699 396.052C324.973 397.837 324.88 399.816 325.435 401.661C325.99 403.506 327.159 405.105 328.749 406.194C333.671 409.644 341.165 407.489 346.584 405.058C348.459 404.223 350.245 403.175 352.026 402.297C352.302 402.155 352.607 402.075 352.917 402.063C353.228 402.052 353.537 402.108 353.824 402.229C354.11 402.35 354.367 402.533 354.575 402.764C354.783 402.995 354.938 403.268 355.029 403.566C355.12 403.863 355.144 404.177 355.1 404.485C355.057 404.793 354.946 405.087 354.776 405.347C354.606 405.608 354.381 405.828 354.117 405.992C353.853 406.155 353.556 406.259 353.247 406.296C348.103 407.295 343.391 409.853 339.751 413.623C338.517 415.137 337.871 417.046 337.932 418.998C337.992 420.951 338.755 422.815 340.081 424.25C341.978 426.241 344.405 427.648 347.076 428.303C342.94 429.757 340.893 432.12 340.828 435.502C340.731 440.401 344.591 445.056 351.744 445.553C343.645 451.605 345.644 460.634 352.497 462.931C358.376 465.342 365.899 464.351 371.201 463.32C371.238 469.137 371.485 483.166 371.511 484.808C371.515 485.17 371.661 485.516 371.918 485.772C372.174 486.028 372.52 486.173 372.883 486.177C374.101 486.194 400.169 486.483 403.024 486.512C406.74 498.45 413.59 509.172 422.861 517.561C434.903 527.734 455.22 532.582 470.121 531.071C489.337 529.126 508.251 513.747 517.186 492.794C521.758 481.78 524.427 470.07 525.078 458.163C528.225 437.036 528.358 421.689 525.521 406.847C524.141 399.464 521.17 392.469 516.814 386.351ZM359.665 444.985C361.435 444.67 360.736 441.997 358.998 442.316C351.801 443.625 347.005 442.634 344.741 439.37C343.895 438.177 343.493 436.725 343.605 435.267C344.111 432.603 346.323 431.007 350.563 430.209C352.676 429.82 354.823 429.499 356.925 429.192C358.512 428.959 358.171 426.397 356.581 426.483C352.822 426.768 349.048 426.201 345.539 424.824C342.375 423.506 339.674 420.331 340.901 417.042C342.949 411.553 353.241 409.292 355.101 408.588C356.062 408.123 356.843 407.355 357.325 406.403C357.807 405.451 357.963 404.367 357.77 403.318C357.576 402.269 357.044 401.312 356.254 400.594C355.464 399.877 354.46 399.438 353.397 399.346C351.731 399.377 350.116 399.924 348.774 400.911C344.937 403.223 340.65 404.688 336.201 405.211C334.527 405.536 332.792 405.267 331.294 404.451C329.796 403.636 328.629 402.324 327.994 400.741C327.193 398.094 328.562 395.214 332.222 391.937C335.573 389.033 339.179 386.436 342.994 384.178C351.756 378.614 362.213 376.351 372.491 377.796C377.285 378.548 382.002 379.728 386.586 381.324C404.303 387.206 420.223 397.52 432.832 411.286C445.087 424.813 449.361 435.446 456.526 451.963C457.094 453.269 459.128 452.645 459.108 451.301C459.108 451.301 458.952 441.518 458.912 438.655C458.856 434.457 459.631 430.289 461.193 426.392C462.754 422.495 465.072 418.946 468.011 415.948C470.951 412.951 474.454 410.564 478.32 408.927C482.186 407.289 486.337 406.432 490.535 406.406C494.733 406.38 498.895 407.185 502.781 408.774C506.667 410.363 510.2 412.705 513.177 415.666C516.154 418.627 518.515 422.147 520.125 426.024C521.735 429.901 522.563 434.059 522.559 438.257C522.951 451.761 522.67 469.369 516.987 485.81C509.575 507.255 492.946 523.645 474.62 527.558C466.659 529.19 458.434 529.014 450.551 527.041C443.05 525.962 435.877 523.249 429.539 519.093C423.201 514.938 417.853 509.441 413.872 502.992C403.779 487.122 400.791 468.094 398.147 451.259C398.064 450.97 397.89 450.716 397.65 450.536C397.41 450.355 397.118 450.257 396.818 450.256C395.398 450.256 385.396 457.575 372.494 460.327C365.416 461.838 355.976 462.837 351.176 459.026C350.354 458.365 349.753 457.47 349.453 456.458C349.152 455.447 349.167 454.369 349.495 453.366C350.244 451.162 351.592 449.21 353.388 447.729C355.185 446.249 357.359 445.299 359.665 444.985ZM477.176 406.321C471.426 408.705 466.44 412.619 462.76 417.638C459.08 422.657 456.846 428.589 456.302 434.79C456.103 437.998 456.079 441.215 456.228 444.426C455.333 442.358 454.442 440.288 453.53 438.229C447.432 424.498 438.564 412.174 427.483 402.028C416.401 391.883 403.345 384.134 389.13 379.268C391.951 377.539 394.989 376.192 398.164 375.263C411.246 371.395 424.669 368.787 438.248 367.476C453.637 365.921 469.177 366.934 484.233 370.475C497.899 373.698 507.124 378.711 513.258 386.245C517.586 391.648 520.639 397.958 522.187 404.705C524.277 413.767 525.137 423.068 524.743 432.359C523.895 427.202 521.884 422.306 518.863 418.042C515.841 413.778 511.888 410.258 507.304 407.749C502.72 405.24 497.625 403.807 492.405 403.56C487.185 403.312 481.977 404.257 477.176 406.321ZM395.75 453.784C397.164 463.917 399.301 473.936 402.143 483.765C390.516 483.635 374.357 483.413 374.237 483.413C374.058 475.126 373.953 468.728 373.936 462.755C381.568 460.73 388.902 457.714 395.75 453.784Z" fill="#000001"/>
<path d="M317.133 428.868C316.159 430.374 318.527 431.771 319.49 430.288C322.06 426.329 325.357 419.4 328.785 417.636C328.945 417.549 329.128 417.512 329.309 417.533C329.49 417.553 329.66 417.629 329.796 417.75C332.841 420.084 327.402 430.53 325.522 433.87C325.34 434.185 325.29 434.56 325.384 434.913C325.478 435.265 325.708 435.566 326.023 435.748C326.339 435.931 326.714 435.981 327.067 435.887C327.419 435.793 327.719 435.563 327.902 435.247C329.834 431.914 331.423 428.393 332.645 424.739C333.883 420.874 333.713 418.093 332.128 416.219C326.996 410.221 320.456 423.751 317.133 428.868Z" fill="#000001"/>
<path d="M320.408 433.406C316.209 431.512 311.57 430.808 306.998 431.37C294.544 432.861 283.369 438.692 271.824 449.722C268.558 452.846 265.616 456.226 262.475 459.583C262.332 459.733 262.224 459.914 262.16 460.112C262.096 460.31 262.077 460.519 262.104 460.725C262.131 460.932 262.204 461.129 262.317 461.303C262.431 461.477 262.582 461.624 262.759 461.733C276.311 469.969 289.594 478.747 302.902 487.136L301.766 500.973C301.616 502.756 304.371 502.793 304.513 501.03L305.524 488.786C307.478 489.993 314.583 494.367 318.02 496.403C318.174 496.511 318.35 496.583 318.535 496.615C318.721 496.647 318.911 496.638 319.092 496.588C319.274 496.538 319.442 496.449 319.585 496.327C319.728 496.204 319.842 496.052 319.92 495.881C324.021 486.871 327.347 477.527 329.86 467.952C332.7 457.089 332.257 448.45 328.522 441.54C326.683 438.085 323.859 435.254 320.408 433.406ZM327.869 464.536C325.459 474.367 322.184 483.966 318.082 493.22C303.919 484.836 274.062 465.422 265.585 460.236C270.269 454.91 275.4 449.993 280.921 445.539C293.388 435.451 315.501 427.715 324.833 440.793C329.067 446.732 330.09 454.726 327.869 464.536Z" fill="#000001"/>
<path d="M300.256 506.713C298.719 507.025 297.314 507.8 296.23 508.934C295.146 510.068 294.434 511.506 294.191 513.055C293.947 514.605 294.183 516.192 294.868 517.603C295.552 519.015 296.651 520.183 298.018 520.952C299.577 521.8 301.407 521.997 303.11 521.499C304.813 521.002 306.25 519.851 307.106 518.297C307.997 517.091 308.521 515.653 308.614 514.156C308.708 512.659 308.368 511.167 307.634 509.859C306.828 508.691 305.707 507.775 304.401 507.218C303.095 506.661 301.658 506.486 300.256 506.713ZM304.851 510.799C305.503 511.611 305.873 512.614 305.904 513.654C305.936 514.695 305.627 515.718 305.024 516.567C302.184 521.361 296.612 518.519 296.874 513.881C296.887 512.961 297.174 512.067 297.7 511.312C298.225 510.557 298.964 509.977 299.822 509.646C300.68 509.314 301.617 509.247 302.513 509.453C303.409 509.658 304.224 510.127 304.851 510.799Z" fill="#000001"/>
<path d="M342.504 506.372C341.936 504.668 339.309 505.443 339.86 507.133L348.198 532.693C348.749 534.38 351.399 533.636 350.842 531.929L342.504 506.372Z" fill="#000001"/>
<path d="M347.757 504.162C347.569 503.856 347.268 503.635 346.919 503.547C346.571 503.46 346.201 503.512 345.89 503.693C345.579 503.874 345.352 504.169 345.256 504.516C345.16 504.863 345.204 505.233 345.377 505.548C349.12 512.29 358.061 527.825 358.62 528.754C358.74 528.954 358.91 529.119 359.113 529.233C359.317 529.347 359.546 529.406 359.779 529.404C360.018 529.406 360.254 529.345 360.462 529.227C360.671 529.11 360.845 528.94 360.968 528.735C361.091 528.53 361.158 528.296 361.163 528.057C361.168 527.818 361.111 527.581 360.997 527.371C358.157 522.253 347.806 504.245 347.757 504.162Z" fill="#000001"/>
<path d="M406.739 445.985C411.178 441.167 415.036 435.844 418.233 430.126C418.396 429.812 418.432 429.448 418.334 429.108C418.235 428.768 418.01 428.479 417.704 428.301C417.399 428.123 417.036 428.069 416.692 428.151C416.348 428.232 416.048 428.444 415.855 428.74C407.051 443.508 403.876 443.534 404.467 445.394C404.525 445.628 404.644 445.841 404.813 446.012C404.982 446.183 405.194 446.306 405.427 446.366C405.66 446.427 405.905 446.423 406.136 446.356C406.366 446.289 406.575 446.161 406.739 445.985Z" fill="#000001"/>
<path d="M370.553 443.969C374.023 443.696 377.44 442.955 380.711 441.765C382.361 441.163 381.626 438.516 379.925 439.129C376.891 440.249 373.719 440.952 370.496 441.219C368.704 441.364 368.795 444.147 370.553 443.969Z" fill="#000001"/>
<path d="M367.592 428.215C367.876 428.215 367.413 428.286 375.981 426.511C377.745 426.145 377.024 423.483 375.294 423.847L367.211 425.531C366.902 425.63 366.637 425.835 366.464 426.11C366.292 426.385 366.222 426.712 366.268 427.034C366.313 427.355 366.471 427.651 366.714 427.867C366.956 428.083 367.267 428.206 367.592 428.215Z" fill="#000001"/>
<path d="M463.243 521.407C463.527 521.407 463.939 521.316 475.535 519.72C475.887 519.626 476.188 519.396 476.371 519.081C476.554 518.765 476.604 518.39 476.51 518.037C476.417 517.685 476.187 517.384 475.871 517.201C475.555 517.018 475.18 516.968 474.828 517.062L462.88 518.703C462.56 518.793 462.283 518.995 462.101 519.272C461.918 519.55 461.842 519.884 461.886 520.213C461.931 520.542 462.092 520.844 462.342 521.064C462.591 521.283 462.911 521.405 463.243 521.407Z" fill="#000001"/>
<path d="M194.92 434.909C191.364 437.834 187.854 440.904 184.491 444.037C183.182 445.258 185.119 447.212 186.417 445.999C196.641 436.477 197.493 437.047 197.274 435.775C197.226 435.527 197.115 435.296 196.952 435.104C196.788 434.912 196.578 434.765 196.341 434.678C196.105 434.591 195.849 434.566 195.6 434.607C195.351 434.647 195.117 434.751 194.92 434.909Z" fill="#000001"/>
<path d="M117.365 431.745C99.6261 446.286 80.8302 459.486 61.1329 471.238C60.9786 471.331 60.8449 471.455 60.7399 471.601C60.6349 471.748 60.5609 471.914 60.5223 472.09C60.461 472.349 60.4762 472.621 60.5659 472.872C60.6557 473.122 60.8163 473.342 61.0281 473.503C61.24 473.664 61.4941 473.761 61.7597 473.781C62.0253 473.801 62.291 473.743 62.5245 473.615C82.4711 461.857 101.446 448.524 119.268 433.742C120.651 432.6 118.728 430.626 117.365 431.745Z" fill="#000001"/>
<path d="M234.18 355.608L241.053 348.868C241.298 348.608 241.431 348.263 241.426 347.905C241.421 347.548 241.277 347.207 241.025 346.954C240.773 346.701 240.432 346.555 240.075 346.548C239.718 346.542 239.372 346.674 239.111 346.917L232.241 353.657C232.003 353.918 231.875 354.261 231.883 354.614C231.891 354.967 232.034 355.303 232.283 355.554C232.532 355.804 232.868 355.949 233.221 355.959C233.574 355.969 233.917 355.844 234.18 355.608Z" fill="#000001"/>
<path d="M247.982 367.803L254.577 362.441C255.971 361.305 254.054 359.334 252.685 360.453L246.091 365.815C244.699 366.928 246.611 368.916 247.982 367.803Z" fill="#000001"/>
<path d="M34.752 441.748C34.5932 441.652 34.4168 441.591 34.2333 441.566C34.0499 441.541 33.8633 441.554 33.685 441.604C33.5067 441.653 33.3404 441.739 33.1962 441.855C33.052 441.971 32.933 442.115 32.8464 442.279L23.1904 465.084C23.0599 465.318 23.0004 465.585 23.019 465.853C23.0375 466.12 23.1335 466.376 23.295 466.59C23.4566 466.804 23.6769 466.967 23.9291 467.058C24.1813 467.149 24.4545 467.165 24.7154 467.103C24.9005 467.055 25.0738 466.97 25.2247 466.853C25.3757 466.736 25.501 466.589 25.593 466.422L35.249 443.616C35.4224 443.301 35.4675 442.93 35.3749 442.582C35.2824 442.234 35.0593 441.935 34.752 441.748Z" fill="#000001"/>
<path d="M26.2459 439.805L13.9885 466.012C13.2302 467.625 15.6414 468.955 16.3911 467.344L28.6514 441.137C29.3983 439.538 27.0042 438.177 26.2459 439.805Z" fill="#000001"/>
</svg>
