<svg width="40" height="40" viewBox="0 0 40 40" fill="none" xmlns="http://www.w3.org/2000/svg">
<g clip-path="url(#clip0_4572_4473)">
<rect width="40" height="40" rx="20" fill="#FBDFB1"/>
<path d="M24.9357 26.0971C24.9357 26.0971 23.8831 27.6048 22.2022 29.1583C20.8046 30.4489 19.7865 30.8736 19.8739 31.1525L19.6491 30.9998C19.379 30.5831 16.9249 26.7906 16.8415 26.7345C16.9825 25.4291 16.9509 22.769 16.9509 22.769C15.5241 23.2731 14.0432 23.3961 12.9401 22.515C9.12118 19.465 13.9314 11.6962 15.345 9.5918C15.355 9.62585 15.8426 11.257 16.4701 11.5708C17.1036 11.8873 18.1982 11.7723 18.8028 12.2042C19.4079 12.6362 19.494 13.817 19.8975 14.1628C20.3006 14.5086 21.9426 14.7966 22.1441 15.3147C22.3457 15.8332 21.971 16.8125 22.5184 17.2737C23.0657 17.7344 23.6992 17.4175 23.9873 18.1664C24.2753 18.9152 23.3562 19.9378 23.932 20.5713C24.5081 21.2047 24.9269 21.4163 24.8696 22.3852C24.8119 23.3544 23.958 24.425 24.4765 25.3181C24.6227 25.5702 24.7806 25.8306 24.9357 26.0971Z" fill="#CC927A" stroke="black" stroke-width="0.356161" stroke-linecap="round" stroke-linejoin="round"/>
<path d="M39.9847 31.8088C39.9539 32.1185 35.586 39.5219 35.3072 39.7386C35.1789 39.8384 32.0725 41.3358 28.7348 42.9293C27.5856 43.4778 26.4092 44.038 25.3174 44.5564C27.5155 41.2524 30.2217 36.9339 30.2217 36.6226C30.2217 36.1121 27.8481 35.2694 27.7716 34.989C27.6946 34.7081 30.4513 33.1002 30.3748 32.6919C30.3539 32.5817 30.1228 32.1029 29.7601 31.471C29.5137 31.0403 29.206 30.539 28.8634 30.0341C29.4953 30.067 30.269 30.5518 31.0427 30.5518C31.1625 30.5518 31.2984 30.5462 31.4434 30.5374C32.2379 30.4897 33.3094 30.3435 33.577 30.4653C33.894 30.6095 34.9598 31.7903 35.7663 31.3584C36.5725 30.9261 37.0333 30.6095 37.1198 30.3214C37.1363 30.2661 37.1255 30.1467 37.0986 29.9849C37.5177 30.0922 37.7682 30.1584 37.7854 30.1672C37.8327 30.1908 38.1708 30.3916 38.5679 30.6476C39.2086 31.0603 40.004 31.6176 39.9847 31.8088Z" fill="#F5D256" stroke="black" stroke-width="0.356161" stroke-linecap="round" stroke-linejoin="round"/>
<path d="M30.2216 36.6215C30.2216 36.8667 28.542 39.5989 26.7545 42.3628C26.2729 43.1073 25.7837 43.8542 25.3173 44.5553C24.5808 44.9051 23.8824 45.2357 23.2578 45.5306C22.4452 45.9149 21.756 46.2394 21.266 46.4682C21.0272 46.0399 20.8545 45.7077 20.8545 45.7077C20.8545 45.7077 23.9357 36.5077 25.2135 31.6859C25.526 30.5059 25.7308 29.5879 25.7556 29.1315C25.7721 28.829 25.7813 28.573 25.7841 28.3566C25.8053 28.2929 25.8205 28.2368 25.8294 28.1887C26.002 29.168 25.5413 30.2915 26.319 30.7234C26.8367 31.0107 27.507 30.5968 28.0844 30.2963C28.3749 30.1452 28.6417 30.0226 28.8537 30.0323C28.8569 30.0323 28.8601 30.0327 28.8633 30.0331C29.2059 30.5379 29.5136 31.0392 29.76 31.4699C30.1226 32.1018 30.3538 32.5806 30.3747 32.6908C30.4512 33.0991 27.6945 34.707 27.7715 34.9879C27.7847 35.0356 27.8632 35.0989 27.9854 35.1742C28.584 35.5444 30.2216 36.1975 30.2216 36.6215Z" fill="#F5D256" stroke="black" stroke-width="0.356161" stroke-linecap="round" stroke-linejoin="round"/>
<path d="M16.6514 10.9664C16.6986 11.6952 17.0641 12.3976 17.6338 12.8544C18.0101 13.1561 18.462 13.3496 18.8531 13.6325C19.4625 14.0732 19.9089 14.734 20.0908 15.4636C20.1513 15.7072 20.1878 15.9669 20.336 16.1696C20.5881 16.5138 21.0793 16.5847 21.3914 16.8756C22.073 17.5099 21.5749 18.764 22.1423 19.5025C22.2869 19.6908 22.4909 19.8282 22.6259 20.0238C22.8595 20.3627 22.8455 20.8079 22.8271 21.219C22.7169 23.672 22.8399 26.3165 24.3148 28.2798C24.5636 28.6108 24.911 28.9429 25.3237 28.9069C25.7945 28.8656 26.0798 28.3788 26.2593 27.9416C26.8916 26.4018 27.2109 24.7506 27.4016 23.097C27.5655 21.6774 27.6348 20.2225 27.2975 18.8337C26.9785 17.5211 26.311 16.3251 25.7 15.1206C25.1843 14.1041 24.6806 13.0379 23.8167 12.2942C23.0727 11.6539 22.1259 11.3098 21.2019 10.9788C20.5199 10.7344 19.8384 10.4904 19.1564 10.2459C18.3819 9.96867 17.4443 9.71384 16.8 10.2247" fill="#BA735A"/>
<path d="M10.6391 14.0692C10.3318 15.498 10.0894 16.95 10.1002 18.4117C10.111 19.8734 10.3855 21.3523 11.0634 22.6473C11.3872 23.2656 11.9413 23.9059 12.6353 23.8289C13.2235 23.764 13.6386 23.1774 13.7284 22.5928C13.8177 22.0079 13.6631 21.4172 13.5465 20.8375C13.409 20.1539 13.3237 19.4579 13.3337 18.7611C13.373 15.9872 14.8815 13.4858 16.0503 10.9695C16.2635 10.5103 16.4694 10.0355 16.5083 9.53104C16.5191 9.3932 16.5131 9.24295 16.4274 9.13436C16.3384 9.02177 16.1858 8.9825 16.0427 8.96848C15.5855 8.9224 15.1284 9.05903 14.7076 9.24375C13.5865 9.73618 12.6417 10.5756 11.8941 11.5453C11.1468 12.5153 10.5854 13.6152 10.0918 14.7359" fill="#FFC7B3"/>
<path d="M19.6564 23.7491C18.9868 24.5745 18.0312 25.1639 16.9926 25.3911C16.9886 24.6406 16.993 23.8897 17.0063 23.1392C17.0083 23.0186 17.0127 22.8916 17.0748 22.7883C17.1441 22.6737 17.2715 22.6095 17.3925 22.5526C17.911 22.3086 18.4367 22.0802 18.9492 21.8234C19.2128 21.6912 19.4733 21.5521 19.7257 21.3995C19.9044 21.2913 20.2766 20.9107 20.4693 20.8898C20.9385 20.8389 20.5583 21.9881 20.477 22.2357C20.2975 22.7838 20.0198 23.3003 19.6564 23.7483V23.7491Z" fill="#B27059"/>
<path d="M25.7843 28.358C25.7827 28.4654 25.7799 28.5824 25.775 28.7098C25.7706 28.8397 25.7642 28.9803 25.7558 29.133C25.6284 31.4557 20.8547 45.7091 20.8547 45.7091H20.3226C20.3226 45.7091 15.613 32.2811 15.2391 29.4114C15.2283 29.3309 15.2215 29.2588 15.2179 29.1955C15.181 28.5239 15.1995 28.0772 15.2447 27.7815C15.3048 27.7702 15.3633 27.759 15.4202 27.7478C15.4002 27.8848 15.6086 28.5884 15.9139 29.4864C16.5782 31.4417 17.7021 34.3194 17.9261 34.2849C18.005 34.2729 18.1733 34.1154 18.3769 33.8742C19.0135 33.1177 19.994 31.5342 19.6478 31.0005L19.8726 31.1532C19.8726 31.1532 20.837 34.3538 21.4525 34.3951C21.9229 34.4264 24.1182 31.4233 25.2133 29.5172C25.3283 29.3173 25.4309 29.1294 25.5182 28.9583C25.6392 28.7219 25.7306 28.5175 25.7843 28.358Z" fill="#C9C4FE" stroke="black" stroke-width="0.356161" stroke-linecap="round" stroke-linejoin="round"/>
<path d="M25.7752 28.7097C25.7708 28.8395 25.7644 28.9802 25.7559 29.1328C25.6285 31.4556 20.8548 45.709 20.8548 45.709H20.3227C20.3227 45.709 15.6131 32.281 15.2393 29.4113C15.3262 29.239 15.4208 29.0707 15.5225 28.9069C15.6532 29.0996 15.7838 29.2927 15.914 29.4862C16.64 30.5657 17.3472 31.6599 17.9146 32.8295C18.0813 33.1725 18.2352 33.5211 18.377 33.8741C19.2308 35.9961 19.6576 38.2836 19.8315 40.5695C19.8755 41.1489 19.9941 41.8565 20.5427 42.0484C23.0053 38.3157 23.2982 33.5568 25.2134 29.5171C25.2399 29.461 25.2667 29.4049 25.294 29.3488C25.3597 29.2134 25.4286 29.0779 25.5183 28.9581C25.5456 28.9217 25.5744 28.8864 25.6061 28.8536C25.6582 28.7991 25.7151 28.7514 25.7752 28.7097Z" fill="#A2A0F2"/>
<path d="M20.5801 6.15658C21.6118 5.60284 22.9737 5.74147 23.8725 6.49195C24.0356 6.62818 24.187 6.78445 24.3777 6.87901C24.9331 7.15548 25.6271 6.83453 26.2125 7.04008C26.6732 7.20196 26.983 7.71282 26.9136 8.19605C26.874 8.47131 26.7273 8.74258 26.7902 9.01344C26.8936 9.45819 27.467 9.58922 27.9222 9.55115C28.3773 9.51349 28.887 9.41091 29.2504 9.68738C29.6447 9.98709 29.6511 10.5813 29.5193 11.0589C29.387 11.5361 29.1531 12.0053 29.1959 12.4986C29.9043 12.87 30.9273 12.3219 31.5091 12.8712C31.937 13.2755 31.7963 13.9747 31.6301 14.5392C31.4638 15.1038 31.3436 15.8134 31.7911 16.1956C32.2784 16.612 33.1102 16.3247 33.6026 16.7346C34.1367 17.1793 33.8767 18.0248 33.6675 18.6875C33.4283 19.4468 33.3181 20.2465 33.3442 21.0423C33.351 21.251 33.3718 21.4734 33.4996 21.6389C33.6892 21.8853 34.0494 21.9226 34.3559 21.8689C34.662 21.8152 34.9589 21.6922 35.2699 21.695C36.0075 21.7018 36.5624 22.4234 36.7111 23.1459C36.8598 23.8687 36.7235 24.616 36.7299 25.3536C36.7327 25.6978 36.8642 26.141 37.2079 26.151C37.3221 26.8602 36.5488 27.567 36.8433 28.2221C36.9247 28.4032 37.0773 28.541 37.1887 28.7053C37.4548 29.0992 37.454 29.6553 37.1863 30.048C36.9187 30.4407 36.401 30.645 35.9374 30.5408" stroke="black" stroke-width="0.356161" stroke-linecap="round" stroke-linejoin="round"/>
<path d="M19.8867 5.67953C20.9185 5.12579 22.2804 5.26442 23.1791 6.0149C23.3422 6.15113 23.4937 6.3074 23.6844 6.40196C24.2397 6.67843 24.9337 6.35748 25.5191 6.56303C25.9799 6.72491 26.2896 7.23577 26.2203 7.719C26.1806 7.99426 26.034 8.26553 26.0969 8.53639C26.2003 8.98114 26.7736 9.11216 27.2288 9.0741C27.684 9.03644 28.1936 8.93386 28.5571 9.21033C28.9513 9.51004 28.9577 10.1043 28.8259 10.5819C28.6937 11.0591 28.4597 11.5283 28.5026 12.0215C29.211 12.3929 30.2339 11.8448 30.8157 12.3941C31.2436 12.7984 31.103 13.4976 30.9367 14.0622C30.7704 14.6267 30.6502 15.3363 31.0978 15.7186C31.585 16.1349 32.4168 15.8476 32.9093 16.2575C33.4434 16.7023 33.1833 17.5477 32.9742 18.2104C32.735 18.9697 32.6248 19.7695 32.6508 20.5652C32.6576 20.774 32.6785 20.9964 32.8063 21.1619C32.9958 21.4083 33.356 21.4455 33.6625 21.3918C33.9687 21.3382 34.2656 21.2151 34.5765 21.2179C35.3141 21.2248 35.8691 21.9464 36.0177 22.6688C36.1664 23.3916 36.0302 24.1389 36.0366 24.8766C36.0394 25.2208 36.1708 25.6639 36.5146 25.6739C36.6288 26.3831 35.8555 27.0899 36.15 27.745C36.2313 27.9262 36.384 28.064 36.4954 28.2283C36.7614 28.6221 36.7606 29.1783 36.4929 29.5709C36.2253 29.9636 35.7076 30.168 35.244 30.0638" stroke="black" stroke-width="0.356161" stroke-linecap="round" stroke-linejoin="round"/>
<path d="M12.0568 8.06749C11.6437 7.82347 11.0863 7.97813 10.7362 8.30629C10.386 8.63445 10.1984 9.09684 10.0386 9.5492C9.87869 10.0016 9.73004 10.4708 9.43274 10.8474C8.99038 11.4072 8.26194 11.7057 7.8825 12.3103C7.34398 13.1682 7.69097 14.3073 7.4133 15.2814C7.21336 15.9825 6.69568 16.5687 6.54583 17.282C6.25012 18.6879 7.44456 20.1981 6.85636 21.5091C6.64079 21.9904 6.21647 22.3434 5.92918 22.7853C5.54012 23.3835 5.41951 24.1496 5.60583 24.8388C5.69318 25.1618 5.84544 25.4767 5.83261 25.8109C5.8222 26.0901 5.69678 26.351 5.57377 26.6018C5.30732 27.1463 5.04087 27.6913 4.77442 28.2358C4.66222 28.4646 4.54803 28.7042 4.54883 28.959C4.55044 29.4114 4.90464 29.7744 5.2348 30.0841C5.34859 30.1911 5.4692 30.3017 5.62065 30.341C5.80897 30.3898 6.00491 30.3185 6.18602 30.2484C6.85876 29.9884 7.5315 29.7279 8.20425 29.4679" stroke="black" stroke-width="0.356161" stroke-linecap="round" stroke-linejoin="round"/>
<path d="M12.9699 6.84996C12.5568 6.60594 11.9994 6.7606 11.6492 7.08876C11.299 7.41692 11.1115 7.87931 10.9517 8.33168C10.7918 8.78404 10.6431 9.25324 10.3458 9.62988C9.90347 10.1896 9.17503 10.4881 8.79559 11.0928C8.25707 11.9506 8.60406 13.0898 8.32639 14.0638C8.12645 14.765 7.60877 15.3512 7.45891 16.0644C7.16321 17.4704 8.35764 18.9806 7.76944 20.2916C7.55387 20.7728 7.12955 21.1258 6.84226 21.5678C6.4532 22.166 6.3326 22.9321 6.51891 23.6213C6.60626 23.9442 6.75852 24.2592 6.7457 24.5933C6.73528 24.8726 6.60987 25.1334 6.48686 25.3843C6.22041 25.9288 5.95395 26.4737 5.6875 27.0183C5.57531 27.247 5.46112 27.4866 5.46192 27.7415C5.46352 28.1938 5.81772 28.5569 6.14788 28.8666C6.26168 28.9736 6.38228 29.0842 6.53374 29.1234C6.72206 29.1723 6.91799 29.101 7.0991 29.0309C7.77185 28.7708 8.44459 28.5104 9.11733 28.2503" stroke="black" stroke-width="0.356161" stroke-linecap="round" stroke-linejoin="round"/>
<path d="M15.7134 9.05884C15.7134 9.05884 15.5735 9.25076 15.3447 9.59134" stroke="black" stroke-width="0.356161" stroke-linecap="round" stroke-linejoin="round"/>
<path d="M20.6691 20.7173C19.7836 21.36 18.3952 22.2591 16.9512 22.7684" stroke="black" stroke-width="0.356161" stroke-linecap="round" stroke-linejoin="round"/>
<path d="M37.1 29.9846C37.082 29.8764 37.0571 29.749 37.0283 29.6088C36.8756 28.8647 36.6188 27.7672 36.7758 27.2968C37.0062 26.6057 37.2078 25.7414 36.4301 25.3383C35.6523 24.9352 35.5085 24.6183 35.5373 23.7252C35.5594 23.0284 35.2136 22.3316 34.7592 21.6208C34.6314 21.4208 34.4952 21.2201 34.3561 21.0178C34.3153 20.9585 34.28 20.9016 34.2483 20.8463C33.796 20.0421 34.2976 19.6338 33.8665 18.7711C33.7727 18.5836 33.6505 18.4358 33.5147 18.3112C32.9826 17.8231 32.2421 17.6969 32.1961 16.9857C32.1925 16.9308 32.1901 16.8739 32.1888 16.8158C32.1664 15.9287 32.3515 14.7034 31.6487 14.1629C31.5698 14.102 31.4937 14.0427 31.4211 13.9834C30.8149 13.4934 30.4246 13.0526 30.1915 12.3274C30.1874 12.3154 30.1834 12.3033 30.1798 12.2909C29.9218 11.4591 29.8921 10.7988 28.9533 10.3949C28.9493 10.3933 28.9453 10.3913 28.9413 10.3897C28.5939 10.2422 28.412 9.97218 28.2902 9.66566C28.0783 9.13356 28.0474 8.49327 27.6451 8.20077C27.4404 8.05172 27.1964 8.01445 26.9359 8.00444C26.3902 7.9836 25.7707 8.08457 25.2835 7.53844C25.1116 7.34612 24.9762 7.15219 24.8584 6.96787C24.4813 6.37967 24.2846 5.89004 23.6708 5.868C23.3859 5.85799 23.0433 5.91969 22.6931 5.98941C22.1598 6.09639 21.6085 6.22261 21.2126 6.14447C21.1321 6.12845 21.0579 6.10441 20.9918 6.06955C20.3872 5.75261 20.4733 5.11913 19.696 5.34952C19.1743 5.50418 18.8209 5.68449 18.5232 5.85638C18.377 5.94053 18.2443 6.02267 18.1117 6.09839C18.1117 6.09839 16.8892 4.79137 16.0831 5.30024C15.2765 5.8087 14.4014 6.68379 14.0733 6.75671C13.9767 6.77835 13.8136 6.78076 13.6213 6.78476C13.1609 6.79438 12.5334 6.81281 12.2506 7.12133C11.8495 7.55888 11.5942 8.77294 11.1206 9.05903C10.6466 9.34512 9.334 10.2567 9.15169 10.7307C8.96938 11.2043 9.15169 11.8241 8.89645 12.4804C8.64122 13.1368 7.83946 14.2667 7.62069 14.8865C7.40191 15.5064 8.20408 16.2721 7.98531 16.9645C7.76653 17.6572 7.11022 18.7511 7.07376 19.2616C7.06654 19.365 7.07376 19.4683 7.08978 19.5777C7.15109 20.0056 7.3358 20.5189 7.2196 21.4489C7.19276 21.6645 7.13827 21.8612 7.06694 22.0431C6.75241 22.8469 6.10571 23.363 6.01636 23.9279C5.97228 24.2076 6.1001 24.5466 6.25196 24.8968C6.47634 25.4144 6.75201 25.9574 6.59975 26.3705C6.59975 26.3705 6.58973 26.3761 6.5713 26.3873C6.40582 26.4863 5.568 27.0083 5.46983 27.5008C5.41534 27.7724 5.65254 28.2032 5.8645 28.6355C6.0388 28.9909 6.19626 29.3471 6.161 29.6156C8.392 28.9745 11.6628 28.4215 13.9671 28.0133C14.1714 27.8213 14.3758 27.6554 14.5757 27.526C14.9055 27.3125 15.224 27.1971 15.5153 27.2227C15.579 27.2067 15.6271 27.2395 15.6271 27.2395C15.8851 26.8132 16.3487 26.4037 16.8416 26.7347C16.9826 25.4293 16.9509 22.7691 16.9509 22.7691C15.5241 23.2732 14.0432 23.3962 12.9401 22.5151C11.426 21.3059 11.2685 19.3549 11.7177 17.3095C12.4012 14.1954 14.492 10.8621 15.345 9.59194C15.355 9.62599 15.8427 11.2572 16.4701 11.5709C17.1036 11.8874 18.1983 11.7724 18.8029 12.2044C19.4079 12.6363 19.4941 13.8171 19.8976 14.1629C20.3006 14.5087 21.9426 14.7968 22.1442 15.3149C22.3457 15.8333 21.9711 16.8126 22.5184 17.2738C23.0657 17.7346 23.6992 17.4176 23.9873 18.1665C24.2754 18.9154 23.3562 19.9379 23.932 20.5714C24.5082 21.2049 24.9269 21.4164 24.8696 22.3853C24.8119 23.3545 23.9581 24.4252 24.4765 25.3183C24.6228 25.5703 24.7807 25.8307 24.9357 26.0972C24.9501 26.1216 24.9646 26.1465 24.9786 26.1717C25.1481 26.4642 25.3124 26.7631 25.453 27.0648C25.5924 27.3638 25.7086 27.6651 25.7832 27.9656C25.802 28.0405 25.8176 28.115 25.8308 28.1896C26.0035 29.1688 25.5427 30.2923 26.3205 30.7243C27.0982 31.1562 28.2213 30.0042 28.8552 30.0331C28.8584 30.0331 28.8616 30.0335 28.8648 30.0339C29.4967 30.0667 30.2704 30.5516 31.0441 30.5516C31.8178 30.5516 33.2619 30.3212 33.5784 30.465C33.8953 30.6093 34.9612 31.7901 35.7677 31.3581C36.5739 30.9258 37.0347 30.6093 37.1212 30.3212C37.1377 30.2659 37.1268 30.1465 37.1 29.9846ZM25.5524 27.2395C25.5524 27.2395 25.5976 27.181 25.6481 27.2239C25.6157 27.2275 25.584 27.2323 25.5524 27.2395Z" fill="#3D0027" stroke="black" stroke-width="0.356161" stroke-linecap="round" stroke-linejoin="round"/>
<path d="M37.1 29.9846C37.082 29.8764 37.0571 29.749 37.0283 29.6088C36.8756 28.8647 36.6188 27.7672 36.7758 27.2968C37.0062 26.6057 37.2078 25.7414 36.4301 25.3383C35.6523 24.9352 35.5085 24.6183 35.5373 23.7252C35.5594 23.0284 35.2136 22.3316 34.7592 21.6208C34.6314 21.4208 34.4952 21.2201 34.3561 21.0178C34.3153 20.9585 34.28 20.9016 34.2483 20.8463C33.796 20.0421 34.2976 19.6338 33.8665 18.7711C33.7727 18.5836 33.6505 18.4358 33.5147 18.3112C32.9826 17.8231 32.2421 17.6969 32.1961 16.9857C32.1925 16.9308 32.1901 16.8739 32.1888 16.8158C32.1664 15.9287 32.3515 14.7034 31.6487 14.1629C31.5698 14.102 31.4937 14.0427 31.4211 13.9834C30.8149 13.4934 30.4246 13.0526 30.1915 12.3274C30.1874 12.3154 30.1834 12.3033 30.1798 12.2909C29.9218 11.4591 29.8921 10.7988 28.9533 10.3949C28.9493 10.3933 28.9453 10.3913 28.9413 10.3897C28.5939 10.2422 28.412 9.97218 28.2902 9.66566C28.0783 9.13356 28.0474 8.49327 27.6451 8.20077C27.4404 8.05172 27.1964 8.01445 26.9359 8.00444C26.3902 7.9836 25.7707 8.08457 25.2835 7.53844C25.1116 7.34612 24.9762 7.15219 24.8584 6.96787C24.4813 6.37967 24.2846 5.89004 23.6708 5.868C23.3859 5.85799 23.0433 5.91969 22.6931 5.98941C22.1598 6.09639 21.6085 6.22261 21.2126 6.14447C21.1321 6.12845 21.0579 6.10441 20.9918 6.06955C20.3872 5.75261 20.4733 5.11913 19.696 5.34952C19.1743 5.50418 18.8209 5.68449 18.5232 5.85638C18.377 5.94053 18.2443 6.02267 18.1117 6.09839C18.1117 6.09839 16.8892 4.79137 16.0831 5.30024C15.2765 5.8087 14.4014 6.68379 14.0733 6.75671C13.9767 6.77835 13.8136 6.78076 13.6213 6.78476C13.1609 6.79438 12.5334 6.81281 12.2506 7.12133C11.8495 7.55888 11.5942 8.77294 11.1206 9.05903C10.6466 9.34512 9.334 10.2567 9.15169 10.7307C8.96938 11.2043 9.15169 11.8241 8.89645 12.4804C8.64122 13.1368 7.83946 14.2667 7.62069 14.8865C7.40191 15.5064 8.20408 16.2721 7.98531 16.9645C7.76653 17.6572 7.11022 18.7511 7.07376 19.2616C7.06654 19.365 7.07376 19.4683 7.08978 19.5777C7.15109 20.0056 7.3358 20.5189 7.2196 21.4489C7.19276 21.6645 7.13827 21.8612 7.06694 22.0431C6.75241 22.8469 6.10571 23.363 6.01636 23.9279C5.97228 24.2076 6.1001 24.5466 6.25196 24.8968C6.47634 25.4144 6.75201 25.9574 6.59975 26.3705C6.59975 26.3705 6.58973 26.3761 6.5713 26.3873C6.40582 26.4863 5.568 27.0083 5.46983 27.5008C5.41534 27.7724 5.65254 28.2032 5.8645 28.6355C6.0388 28.9909 6.19626 29.3471 6.161 29.6156C8.392 28.9745 11.6628 28.4215 13.9671 28.0133C14.1714 27.8213 14.3758 27.6554 14.5757 27.526C14.9055 27.3125 15.224 27.1971 15.5153 27.2227C15.579 27.2067 15.6271 27.2395 15.6271 27.2395C15.8851 26.8132 16.3487 26.4037 16.8416 26.7347C16.9826 25.4293 16.9509 22.7691 16.9509 22.7691C15.5241 23.2732 14.0432 23.3962 12.9401 22.5151C11.426 21.3059 11.2685 19.3549 11.7177 17.3095C12.4012 14.1954 14.492 10.8621 15.345 9.59194C15.3502 9.60916 15.48 10.0439 15.6896 10.5067C15.8899 10.949 16.1632 11.4178 16.4701 11.5709C16.8327 11.752 17.3464 11.7917 17.8324 11.8738C18.1959 11.9347 18.5441 12.0197 18.8029 12.2044C19.1307 12.4384 19.3062 12.8923 19.4624 13.3143C19.5946 13.6709 19.7128 14.0042 19.8976 14.1629C20.2413 14.4578 21.4875 14.711 21.9707 15.1005C22.054 15.1678 22.1145 15.2387 22.1442 15.3149C22.1858 15.4218 22.2031 15.5485 22.2087 15.6863C22.2303 16.2156 22.0841 16.908 22.5184 17.2738C23.0657 17.7346 23.6992 17.4176 23.9873 18.1665C24.2754 18.9154 23.3562 19.9379 23.932 20.5714C24.5082 21.2049 24.9269 21.4164 24.8696 22.3853C24.8119 23.3545 23.9581 24.4252 24.4765 25.3183C24.6228 25.5703 24.7807 25.8307 24.9357 26.0972C24.9501 26.1216 24.9646 26.1465 24.9786 26.1717C25.1481 26.4642 25.3124 26.7631 25.453 27.0648C25.5924 27.3638 25.7086 27.6651 25.7832 27.9656C25.7992 28.0301 25.8132 28.0942 25.8252 28.1583C25.8272 28.1687 25.8288 28.1791 25.8308 28.1896C26.0035 29.1688 25.5427 30.2923 26.3205 30.7243C27.0982 31.1562 28.2213 30.0042 28.8552 30.0331C28.8584 30.0331 28.8616 30.0335 28.8648 30.0339C29.4967 30.0667 30.2704 30.5516 31.0441 30.5516C31.8178 30.5516 33.2619 30.3212 33.5784 30.465C33.8953 30.6093 34.9612 31.7901 35.7677 31.3581C36.5739 30.9258 37.0347 30.6093 37.1212 30.3212C37.1377 30.2659 37.1268 30.1465 37.1 29.9846ZM25.5524 27.2395C25.5524 27.2395 25.5976 27.181 25.6481 27.2239C25.6157 27.2275 25.584 27.2323 25.5524 27.2395Z" fill="#3D0027" stroke="black" stroke-width="0.356161" stroke-linecap="round" stroke-linejoin="round"/>
<path d="M20.3225 45.7088C20.3225 45.7088 20.0957 46.1452 19.8024 46.6625C19.1221 46.4741 17.983 46.1472 16.6731 45.7665C14.3997 42.4253 10.9554 36.974 10.9554 36.6226C10.9554 36.1121 13.329 35.2695 13.4056 34.989C13.4821 34.7081 10.7258 33.1002 10.8023 32.6919C10.8576 32.3962 12.4255 29.458 13.9657 28.0136C14.1861 27.8068 14.4061 27.6305 14.6208 27.4971C14.9338 27.3023 15.2363 27.1986 15.514 27.223C15.4262 27.245 15.3084 27.36 15.2447 27.7812C15.1994 28.0769 15.181 28.5236 15.2179 29.1952C15.2944 30.5907 17.1219 36.2712 18.5683 40.5833C19.5296 43.4482 20.3225 45.7088 20.3225 45.7088Z" fill="#F5D256" stroke="black" stroke-width="0.356161" stroke-linecap="round" stroke-linejoin="round"/>
<path d="M15.6262 27.2393C15.5136 27.4252 15.4402 27.6147 15.4206 27.7469C15.3637 27.7581 15.3052 27.7694 15.2451 27.7806C15.3088 27.3595 15.4266 27.2445 15.5144 27.2224C15.5781 27.2064 15.6262 27.2393 15.6262 27.2393Z" stroke="black" stroke-width="0.356161" stroke-linecap="round" stroke-linejoin="round"/>
<path d="M25.6475 27.224C25.6151 27.2276 25.5834 27.2324 25.5518 27.2396C25.5518 27.2396 25.597 27.1811 25.6475 27.224Z" stroke="black" stroke-width="0.356161" stroke-linecap="round" stroke-linejoin="round"/>
<path d="M16.6736 45.7652C15.6354 45.4639 14.4903 45.1293 13.3804 44.804C10.5524 43.975 7.95516 43.2068 7.95516 43.2068L2.10081 32.6437C2.10081 32.6437 2.0387 31.9934 3.99002 30.5064C4.39872 30.1951 5.17884 29.8962 6.16011 29.6145C8.02087 29.08 10.6049 28.6064 12.7481 28.227C13.1748 28.1516 13.5839 28.0799 13.9662 28.0122C12.426 29.4567 10.8581 32.3949 10.8028 32.6906C10.7263 33.0989 13.4826 34.7068 13.406 34.9877C13.3295 35.2681 10.9559 36.1108 10.9559 36.6212C10.9559 36.9726 14.4001 42.4239 16.6736 45.7652Z" fill="#F5D256" stroke="black" stroke-width="0.356161" stroke-linecap="round" stroke-linejoin="round"/>
<path d="M6.5713 26.3862C6.66827 26.7757 6.73478 27.1712 6.67388 27.5642C6.60215 28.0286 6.29483 28.4886 5.8645 28.6345C5.65254 28.2021 5.41534 27.7714 5.46983 27.4997C5.568 27.0073 6.40582 26.4852 6.5713 26.3862Z" fill="#6D1151"/>
<path d="M7.06624 22.043C7.07345 22.2818 7.05662 22.5182 6.99372 22.7486C6.84186 23.3043 6.43276 23.7655 6.29893 24.3261C6.25406 24.514 6.24164 24.7051 6.25125 24.8966C6.0994 24.5464 5.97158 24.2075 6.01565 23.9278C6.105 23.3628 6.7517 22.8467 7.06624 22.043Z" fill="#6D1151"/>
<path d="M13.6196 6.78491C12.9292 7.55222 12.2216 8.31151 11.3858 8.91493C10.9054 9.26152 10.3697 9.57005 10.0527 10.0701C9.59316 10.7957 9.70175 11.7473 9.37319 12.5411C9.0282 13.3749 8.21001 14.0212 8.14069 14.9207C8.07658 15.7486 8.68442 16.5379 8.54658 17.3565C8.39753 18.2392 7.45993 18.7693 7.0881 19.5779C7.07248 19.4685 7.06486 19.3651 7.07207 19.2617C7.10854 18.7513 7.76485 17.6574 7.98362 16.9646C8.2024 16.2722 7.40023 15.5065 7.619 14.8867C7.83778 14.2668 8.63954 13.1369 8.89477 12.4806C9.15001 11.8243 8.9677 11.2044 9.15001 10.7308C9.33232 10.2568 10.6449 9.34527 11.119 9.05918C11.5926 8.77309 11.8478 7.55903 12.2489 7.12148C12.5318 6.81296 13.1592 6.79453 13.6196 6.78491Z" fill="#6D1151"/>
<path d="M18.5677 40.5833C18.4796 40.7043 18.3285 40.7861 18.1863 40.7456C18.0633 40.7107 17.9811 40.5978 17.9094 40.492C15.8375 37.4248 14.6018 33.799 14.3698 30.1051C14.3149 29.3029 14.3141 28.4695 14.5545 27.6946C14.575 27.6285 14.597 27.5628 14.6202 27.4971C14.9332 27.3023 15.2357 27.1986 15.5133 27.223C15.4256 27.245 15.3078 27.36 15.2441 27.7812C15.1988 28.0769 15.1804 28.5236 15.2172 29.1952C15.2938 30.5907 17.1213 36.2712 18.5677 40.5833Z" fill="#FFE8A9"/>
<path d="M17.9262 34.2843C17.5992 34.3344 15.3562 28.1831 15.4203 27.7472C15.4399 27.6149 15.5133 27.4254 15.6258 27.2395C15.8731 26.8312 16.309 26.4381 16.7786 26.697C16.799 26.7082 16.8199 26.7206 16.8403 26.7346C16.9168 26.7863 18.9984 29.9974 19.5429 30.8376C19.5902 30.9109 19.6262 30.9662 19.6479 30.9999C20.1043 31.7039 18.2535 34.2338 17.9262 34.2843Z" fill="#49A2A6" stroke="black" stroke-width="0.356161" stroke-linecap="round" stroke-linejoin="round"/>
<path d="M25.7841 28.358C25.3229 29.7327 22.0405 34.4347 21.4523 34.3955C21.1213 34.3734 20.689 33.4366 20.3608 32.576C20.0784 31.8367 19.8724 31.1535 19.8724 31.1535C19.7851 30.8747 20.8032 30.4499 22.2008 29.1593C22.692 28.7054 23.1295 28.255 23.503 27.8455C24.4069 26.8534 24.9342 26.0981 24.9342 26.0981C24.9486 26.1226 24.9631 26.1474 24.9771 26.1727C25.3321 26.8013 25.6655 27.7181 25.7837 28.0575C25.7853 28.1484 25.7853 28.2478 25.7841 28.358Z" fill="#49A2A6" stroke="black" stroke-width="0.356161" stroke-linecap="round" stroke-linejoin="round"/>
<path d="M25.7856 28.3563C25.7868 28.2461 25.7868 28.1467 25.7852 28.0562C25.8148 28.1403 25.8308 28.1888 25.8308 28.1888C25.822 28.2369 25.8068 28.293 25.7856 28.3563Z" stroke="black" stroke-width="0.356161" stroke-linecap="round" stroke-linejoin="round"/>
<path d="M15.6264 27.2393C15.5896 27.2312 15.5523 27.2256 15.5146 27.2224C15.5784 27.2064 15.6264 27.2393 15.6264 27.2393Z" stroke="black" stroke-width="0.356161" stroke-linecap="round" stroke-linejoin="round"/>
<path d="M25.6475 27.224C25.6151 27.2276 25.5834 27.2324 25.5518 27.2396C25.5518 27.2396 25.597 27.1811 25.6475 27.224Z" stroke="black" stroke-width="0.356161" stroke-linecap="round" stroke-linejoin="round"/>
<path d="M25.7837 28.3573C25.7849 28.2471 25.7849 28.1477 25.7833 28.0572C25.7833 28.0251 25.7821 27.9951 25.7812 27.9658C25.8001 28.0407 25.8157 28.1153 25.8289 28.1898C25.8201 28.2379 25.8049 28.294 25.7837 28.3573Z" stroke="black" stroke-width="0.356161" stroke-linecap="round" stroke-linejoin="round"/>
<path d="M14.8727 15.1118C14.8727 15.1118 13.8498 17.0908 14.2032 17.3697C14.5566 17.6485 15.4493 16.6444 15.4493 16.6444" stroke="black" stroke-width="0.356161" stroke-linecap="round" stroke-linejoin="round"/>
<path d="M16.8247 19.8833C16.0322 20.3786 15.2012 19.5271 15.2012 19.5271C15.2012 19.5271 15.8907 19.5307 16.5278 19.114C17.1649 18.6973 17.3729 18.2397 17.3729 18.2397C17.3729 18.2397 17.6169 19.3885 16.8247 19.8833Z" fill="#E938B5" stroke="black" stroke-width="0.356161" stroke-linecap="round" stroke-linejoin="round"/>
<path d="M17.3729 18.2394C17.3729 18.2394 17.1649 18.697 16.5278 19.1137C15.8907 19.5304 15.2012 19.5268 15.2012 19.5268C15.2012 19.5268 15.569 18.6497 15.781 18.6922C15.9933 18.7347 16.1063 18.8589 16.1913 18.6906C16.2762 18.5227 16.1772 18.3528 16.3892 18.2394C16.6016 18.1264 17.3729 18.2394 17.3729 18.2394Z" fill="#E938B5" stroke="black" stroke-width="0.356161" stroke-linecap="round" stroke-linejoin="round"/>
<path d="M17.5816 17.6326L17.3721 18.2404" stroke="black" stroke-width="0.356161" stroke-linecap="round" stroke-linejoin="round"/>
<path d="M17.1758 17.5255C17.2864 17.4898 17.4094 17.5122 17.5144 17.5627C17.6193 17.6132 17.7091 17.6897 17.7968 17.7659C17.8481 17.8103 17.9026 17.8612 17.913 17.9281" stroke="black" stroke-width="0.356161" stroke-linecap="round" stroke-linejoin="round"/>
<path d="M38.5672 30.6475C37.9221 31.5121 37.0017 32.1741 35.9756 32.5159C34.8533 32.8897 33.6188 32.8865 32.4832 32.5523C32.2144 32.4734 31.9511 32.376 31.6963 32.2606C31.0596 31.9725 30.4378 31.569 29.7594 31.4709C29.6488 31.4548 29.5366 31.4468 29.4228 31.4488C28.6728 31.4621 28.0064 31.906 27.3986 32.346C27.0721 32.5824 26.6906 32.8336 26.3055 32.8196C26.2354 32.8168 26.1657 32.8055 26.0956 32.7835C25.7318 32.6697 25.5102 32.3083 25.3427 31.9657C25.2978 31.874 25.2546 31.781 25.2129 31.6868C25.5254 30.5068 25.7302 29.5889 25.755 29.1325C25.7714 28.83 25.7807 28.574 25.7835 28.3576C25.8047 28.2939 25.8199 28.2378 25.8287 28.1897C26.0014 29.169 25.5406 30.2925 26.3184 30.7244C26.836 31.0117 27.5064 30.5978 28.0838 30.2973C28.3743 30.1462 28.6411 30.0236 28.8531 30.0332C28.8563 30.0332 28.8595 30.0336 28.8627 30.034C29.4946 30.0669 30.2683 30.5517 31.042 30.5517C31.1618 30.5517 31.2976 30.5461 31.4427 30.5373C32.2372 30.4896 33.3087 30.3434 33.5763 30.4652C33.8932 30.6094 34.9591 31.7902 35.7656 31.3583C36.5718 30.926 37.0326 30.6094 37.1191 30.3213C37.1356 30.266 37.1247 30.1466 37.0979 29.9847C37.517 30.0921 37.7674 30.1582 37.7847 30.1671C37.8319 30.1907 38.1701 30.3914 38.5672 30.6475Z" fill="#E0B836"/>
<path d="M32.5409 33.419C32.4659 33.5905 32.2972 33.6991 32.1378 33.7976C31.3989 34.2524 30.6605 34.7076 29.922 35.1623C30.4729 35.5274 31.3208 35.5049 31.6233 36.0927C31.772 36.3812 31.7279 36.7282 31.6626 37.0463C31.2162 39.2112 29.9917 41.0836 28.7348 42.9296C27.5856 43.4781 26.4092 44.0382 25.3174 44.5567C27.5155 41.2527 30.2217 36.9342 30.2217 36.6228C30.2217 36.1124 27.8481 35.2697 27.7716 34.9892C27.6946 34.7084 30.4513 33.1004 30.3748 32.6921C30.3539 32.582 30.1228 32.1031 29.7601 31.4713C29.5137 31.0405 29.206 30.5393 28.8634 30.0344C29.4953 30.0673 30.269 30.5521 31.0427 30.5521C31.1625 30.5521 31.2983 30.5465 31.4434 30.5377C31.8906 31.1643 32.2916 31.8255 32.484 32.5527C32.5204 32.6909 32.5493 32.8312 32.5697 32.9742C32.5909 33.1233 32.601 33.2807 32.5409 33.419Z" fill="#E0B836"/>
<path d="M30.2222 36.6226C30.2222 36.8678 28.5425 39.6 26.7551 42.3639C26.483 42.4396 26.1961 42.4533 25.9297 42.3659C26.1348 41.496 26.6445 40.7291 27.2071 40.0348C27.7696 39.3404 28.3959 38.6949 28.8939 37.9528C29.0582 37.7084 29.2137 37.4159 29.1331 37.133C29.0306 36.7728 28.6142 36.6234 28.26 36.5019C27.9054 36.3809 27.5004 36.1554 27.4956 35.7811C27.4919 35.5026 27.7219 35.2903 27.986 35.1753C28.5846 35.5455 30.2222 36.1986 30.2222 36.6226Z" fill="#FFE8A9"/>
<path d="M16.6739 45.7652C15.6357 45.4639 14.4905 45.1293 13.3807 44.804C12.8806 44.0919 12.4054 43.3615 11.9314 42.6323C11.3019 41.6646 10.6729 40.697 10.0434 39.7293C9.81099 39.3723 9.57579 39.0085 9.45198 38.6006C9.25364 37.9483 9.36262 37.2279 9.65512 36.612C9.94762 35.9962 10.4128 35.4761 10.9277 35.0293C11.0146 34.9544 11.1084 34.8719 11.1304 34.7593C11.1757 34.5297 10.9153 34.3714 10.7049 34.268C9.91636 33.8806 9.25724 33.2351 8.85376 32.455C8.78043 32.3131 8.71392 32.1581 8.72995 31.9994C8.74918 31.8107 8.8806 31.6548 9.00842 31.5142C9.61305 30.8478 10.267 30.2268 10.9625 29.6562C11.5523 29.1726 12.1578 28.7102 12.7484 28.227C13.1751 28.1516 13.5842 28.0799 13.9664 28.0122C12.4262 29.4567 10.8584 32.3949 10.8031 32.6906C10.7265 33.0989 13.4828 34.7068 13.4063 34.9877C13.3298 35.2681 10.9561 36.1108 10.9561 36.6212C10.9561 36.9726 14.4004 42.4239 16.6739 45.7652Z" fill="#E0B836"/>
<path d="M19.5433 30.8377C19.5124 31.0941 19.4631 31.3489 19.3686 31.5885C19.3221 31.7059 19.2612 31.8237 19.1594 31.8987C18.925 32.0714 18.572 31.9375 18.3973 31.7047C18.2226 31.4715 18.1721 31.1722 18.096 30.8914C17.9101 30.203 17.5495 29.5775 17.2405 28.9348C16.9641 28.3598 16.5618 27.5284 16.714 26.8701C16.7289 26.8064 16.7505 26.7487 16.779 26.697C16.7994 26.7082 16.8202 26.7207 16.8407 26.7347C16.9172 26.7864 18.9987 29.9974 19.5433 30.8377Z" fill="#63BABA"/>
<path d="M39.9847 31.8088C39.9539 32.1185 35.586 39.5219 35.3072 39.7386C35.1349 39.8729 29.5802 42.5326 25.3174 44.5564C27.5155 41.2524 30.2217 36.9339 30.2217 36.6226C30.2217 36.1121 27.8481 35.2694 27.7716 34.989C27.6946 34.7081 30.4513 33.1002 30.3748 32.6919C30.3399 32.5064 29.7092 31.2795 28.8634 30.0341C29.4953 30.067 30.269 30.5518 31.0427 30.5518C31.8164 30.5518 33.2605 30.3214 33.577 30.4653C33.894 30.6095 34.9598 31.7903 35.7663 31.3584C36.5725 30.9261 37.0333 30.6095 37.1198 30.3214C37.1363 30.2661 37.1255 30.1467 37.0986 29.9849C37.5177 30.0922 37.7681 30.1584 37.7854 30.1672C37.9092 30.2289 40.0156 31.499 39.9847 31.8088Z" stroke="black" stroke-width="0.356161" stroke-linecap="round" stroke-linejoin="round"/>
<path d="M30.2216 36.6215C30.2216 36.9328 27.5154 41.2513 25.3173 44.5553C23.6232 45.3595 22.1331 46.0631 21.266 46.4682C21.0272 46.0399 20.8545 45.7077 20.8545 45.7077C20.8545 45.7077 25.6282 31.4543 25.7556 29.1315C25.7721 28.829 25.7813 28.573 25.7841 28.3566C25.8053 28.2929 25.8205 28.2368 25.8294 28.1887C26.002 29.168 25.5413 30.2915 26.319 30.7234C27.0967 31.1554 28.2198 30.0034 28.8537 30.0323C28.8569 30.0323 28.8601 30.0327 28.8633 30.0331C29.7091 31.2784 30.3398 32.5053 30.3747 32.6908C30.4512 33.0991 27.6945 34.707 27.7715 34.9879C27.848 35.2684 30.2216 36.111 30.2216 36.6215Z" stroke="black" stroke-width="0.356161" stroke-linecap="round" stroke-linejoin="round"/>
<path d="M20.3225 45.7089C20.3225 45.7089 20.0957 46.1452 19.8024 46.6625C19.1221 46.4742 17.983 46.1472 16.6731 45.7665C14.3997 42.4253 10.9554 36.974 10.9554 36.6226C10.9554 36.1121 13.329 35.2695 13.4056 34.989C13.4821 34.7081 10.7258 33.1002 10.8023 32.6919C10.8576 32.3962 12.4255 29.458 13.9657 28.0136C14.5074 27.5051 15.046 27.1817 15.514 27.223C15.4262 27.2451 15.3084 27.3601 15.2447 27.7812C15.1994 28.0769 15.181 28.5236 15.2179 29.1952C15.3453 31.5179 20.3225 45.7089 20.3225 45.7089Z" stroke="black" stroke-width="0.356161" stroke-linecap="round" stroke-linejoin="round"/>
<path d="M16.6736 45.7652C12.9901 44.6958 7.95516 43.2068 7.95516 43.2068L2.10081 32.6437C2.10081 32.6437 2.0387 31.9934 3.99002 30.5064C4.39872 30.1951 5.17884 29.8962 6.16011 29.6145C8.3911 28.9734 11.6619 28.4205 13.9662 28.0122C12.426 29.4567 10.8581 32.3949 10.8028 32.6906C10.7263 33.0989 13.4826 34.7068 13.406 34.9877C13.3295 35.2681 10.9559 36.1108 10.9559 36.6212C10.9559 36.9726 14.4001 42.4239 16.6736 45.7652Z" stroke="black" stroke-width="0.356161" stroke-linecap="round" stroke-linejoin="round"/>
<path d="M23.6669 28.1868C23.6144 28.725 23.5483 29.2967 23.2085 29.7174C22.835 30.179 22.2112 30.3573 21.7692 30.754C21.2087 31.2581 21.0115 32.037 20.7355 32.7386C20.7227 32.771 20.7074 32.8059 20.6762 32.8219C20.6221 32.8492 20.5608 32.8031 20.5191 32.7594C20.4654 32.7029 20.4125 32.6416 20.3608 32.5759C20.0784 31.8366 19.8724 31.1535 19.8724 31.1535C19.7851 30.8746 20.8032 30.4499 22.2008 29.1593C22.692 28.7053 23.1295 28.255 23.503 27.8455C23.5635 27.8731 23.6184 27.9116 23.6472 27.9697C23.6805 28.0358 23.6741 28.1135 23.6669 28.1868Z" fill="#63BABA"/>
<path d="M20.992 6.06992C21.0581 6.10478 21.1323 6.12882 21.2128 6.14484C21.1848 6.15286 21.1571 6.16167 21.1295 6.17009C20.3554 6.4109 18.9902 6.81558 18.5234 5.85675C18.8211 5.68486 19.1745 5.50455 19.6962 5.34989C20.4736 5.1195 20.3874 5.75298 20.992 6.06992Z" fill="#6D1151"/>
<path d="M24.8577 6.96789C24.4349 6.89176 24.0258 6.78397 23.6708 6.55198C23.4625 6.41575 23.2802 6.24065 23.0606 6.12365C22.9424 6.06074 22.819 6.01747 22.6924 5.98942C23.0426 5.9197 23.3852 5.858 23.67 5.86802C24.2839 5.89005 24.4806 6.37969 24.8577 6.96789Z" fill="#6D1151"/>
<path d="M28.2899 9.66538C27.9825 9.52995 27.6331 9.42336 27.3879 9.2078C27.0542 8.9141 26.9576 8.46213 26.9355 8.00415C27.196 8.01417 27.44 8.05143 27.6448 8.20048C28.047 8.49298 28.0779 9.13327 28.2899 9.66538Z" fill="#6D1151"/>
<path d="M30.1786 12.291C30.1822 12.3035 30.1862 12.3155 30.1903 12.3275C30.1261 12.289 30.0628 12.2502 30.0003 12.2101C29.4987 11.888 29.0175 11.4228 28.9658 10.829C28.9533 10.6851 28.967 10.5377 28.9521 10.395C29.8909 10.7989 29.9206 11.4592 30.1786 12.291Z" fill="#6D1151"/>
<path d="M32.1883 16.8163C31.2311 16.3078 30.8092 14.9043 31.4206 13.9839C31.4931 14.0432 31.5693 14.1025 31.6482 14.1634C32.351 14.7039 32.1659 15.9292 32.1883 16.8163Z" fill="#6D1151"/>
<path d="M34.2477 20.8459C33.8975 20.7057 33.4623 20.6159 33.2247 20.3362C32.8673 19.9159 33.1049 19.2796 33.3377 18.7796C33.4054 18.6341 33.4687 18.4739 33.514 18.3108C33.6498 18.4354 33.7721 18.5833 33.8658 18.7708C34.297 19.6334 33.7953 20.0417 34.2477 20.8459Z" fill="#6D1151"/>
<path d="M37.0264 29.6093C36.8381 29.4859 36.6746 29.32 36.5544 29.1313C36.2603 28.6709 36.1866 28.1012 36.2126 27.5554C36.2375 27.0261 36.3481 26.4848 36.2074 25.9739C36.0011 25.2259 35.3127 24.7222 34.918 24.0543C34.5382 23.412 34.4468 22.6066 34.6728 21.8954C34.7017 21.8049 34.7357 21.7135 34.7574 21.6213C35.2117 22.3321 35.5575 23.0289 35.5355 23.7257C35.5066 24.6188 35.6505 24.9358 36.4282 25.3389C37.2059 25.7419 37.0044 26.6062 36.774 27.2974C36.6169 27.7678 36.8738 28.8653 37.0264 29.6093Z" fill="#6D1151"/>
<path d="M17.9252 34.2844C17.5982 34.3345 15.3552 28.1832 15.4193 27.7473C15.4389 27.6151 15.5123 27.4255 15.6249 27.2396C15.8829 26.8133 16.3465 26.4038 16.8393 26.7348C16.9227 26.7908 19.3768 30.5833 19.6469 31C20.1033 31.704 18.2525 34.2339 17.9252 34.2844Z" stroke="black" stroke-width="0.356161" stroke-linecap="round" stroke-linejoin="round"/>
<path d="M25.7841 28.358C25.3229 29.7327 22.0405 34.4347 21.4523 34.3955C20.8369 34.3542 19.8724 31.1535 19.8724 31.1535C19.7851 30.8747 20.8032 30.4499 22.2008 29.1593C23.8816 27.6059 24.9342 26.0981 24.9342 26.0981C24.9486 26.1226 24.9631 26.1474 24.9771 26.1727C25.3321 26.8013 25.6655 27.7181 25.7837 28.0575C25.7853 28.1484 25.7853 28.2478 25.7841 28.358Z" stroke="black" stroke-width="0.356161" stroke-linecap="round" stroke-linejoin="round"/>
<path d="M15.4502 9.66577C15.1721 9.95627 15.3096 10.768 15.3901 11.1619C15.4306 11.3595 15.4758 11.5666 15.6073 11.7197C15.7583 11.896 15.9947 11.9693 16.2199 12.025C16.732 12.1516 17.2561 12.2309 17.783 12.261C17.9448 12.2702 18.1107 12.2758 18.2602 12.3379C18.5687 12.4665 18.733 12.8015 18.836 13.1192C18.9389 13.437 19.0155 13.7808 19.2423 14.026C19.7451 14.5697 20.7572 14.401 21.1964 14.9972C21.4356 15.3222 21.4143 15.7625 21.4031 16.166C21.3919 16.5695 21.4232 17.0235 21.7241 17.2923C22.0098 17.548 22.4345 17.5448 22.8175 17.542C23.2006 17.5392 23.6345 17.5736 23.8781 17.8693C24.1181 18.1602 24.0753 18.5877 23.9779 18.952C23.8805 19.3162 23.7395 19.6924 23.826 20.0594C23.8437 20.1344 23.9142 20.2245 23.9787 20.1825" stroke="black" stroke-width="0.356161" stroke-linecap="round" stroke-linejoin="round"/>
<path d="M15.3378 9.79517C14.7941 10.3669 14.6459 11.2801 14.9804 11.9949C15.3154 12.7097 16.1116 13.1801 16.8989 13.1284C17.3448 13.0992 17.8533 12.9361 18.1975 13.2214C18.4627 13.4414 18.4948 13.8304 18.6515 14.1373C18.859 14.544 19.2918 14.7985 19.7369 14.8998C20.1821 15.0012 20.6457 14.9716 21.1012 14.9411" stroke="black" stroke-width="0.356161" stroke-linecap="round" stroke-linejoin="round"/>
<path d="M16.8411 26.7343C16.3483 26.4033 15.8847 26.8128 15.6267 27.2392C15.6267 27.2392 15.5786 27.2063 15.5149 27.2223C15.2236 27.1967 14.905 27.3121 14.5753 27.5257C14.5628 27.3738 14.5552 27.2215 14.55 27.0705C14.536 26.6714 14.534 26.2643 14.4074 25.8853C14.2808 25.5066 14.0019 25.1532 13.6148 25.0539C13.2342 24.9561 12.8399 25.1172 12.4477 25.1436C11.5758 25.2017 10.7684 24.5558 10.415 23.7568C10.0616 22.9579 10.0848 22.0419 10.2271 21.1797C10.4503 19.8226 10.9643 18.5664 11.6687 17.3908C11.6848 17.364 11.7012 17.3367 11.7172 17.3091C11.268 19.3546 11.4255 21.3055 12.9397 22.5147C14.0428 23.3958 15.5237 23.2728 16.9505 22.7688C16.9505 22.7688 16.9822 25.4289 16.8411 26.7343Z" fill="#210017"/>
<path d="M17.2688 10.7365C17.5633 11.0442 17.6859 11.4661 17.8313 11.874C17.3453 11.7919 16.8316 11.7522 16.469 11.5711C16.1621 11.418 15.8888 10.9492 15.6885 10.5069C16.1905 10.2492 16.8721 10.3214 17.2688 10.7365Z" fill="#6D1151"/>
<path d="M21.9692 15.1012C21.486 14.7117 20.2399 14.4585 19.8961 14.1636C19.7114 14.0049 19.5932 13.6715 19.4609 13.3149C19.7222 13.3883 19.9882 13.4544 20.2371 13.5477C20.9807 13.8262 21.601 14.3992 21.9692 15.1012Z" fill="#6D1151"/>
<path d="M25.8247 28.1583C25.8127 28.0942 25.7987 28.0301 25.7827 27.9656C25.7081 27.665 25.5919 27.3637 25.4525 27.0648C25.3119 26.7631 25.1476 26.4642 24.9781 26.1717C24.9641 26.1465 24.9497 26.1216 24.9352 26.0972C24.7802 25.8307 24.6223 25.5703 24.4761 25.3183C23.9576 24.4251 24.8114 23.3545 24.8691 22.3853C24.9264 21.4164 24.5077 21.2049 23.9315 20.5714C23.3557 19.9379 24.2749 18.9154 23.9868 18.1665C23.6987 17.4176 23.0652 17.7346 22.5179 17.2738C22.0836 16.908 22.2298 16.2156 22.2082 15.6863C22.2571 15.8514 22.2923 16.0204 22.3128 16.1919C22.328 16.321 22.3364 16.4544 22.3957 16.5698C22.5652 16.8999 23.018 16.9104 23.3798 16.9925C24.2953 17.2013 24.9256 18.2454 24.6844 19.1526C24.5706 19.5801 24.2953 19.9696 24.2893 20.4119C24.2881 20.5061 24.301 20.6042 24.3514 20.6836C24.4484 20.8346 24.6463 20.8739 24.8134 20.9404C25.5142 21.2193 25.7702 22.108 25.6733 22.8561C25.5759 23.6041 25.2269 24.2985 25.0955 25.0414C25.0642 25.2177 25.0458 25.4004 25.0851 25.5751C25.1416 25.8251 25.3087 26.0323 25.4389 26.2526C25.7783 26.828 25.8612 27.4851 25.8247 28.1583Z" fill="#6D1151"/>
<path d="M37.1 29.9846C36.987 29.2998 36.5891 27.8558 36.7758 27.2968C37.0062 26.6057 37.2077 25.7414 36.43 25.3383C35.6523 24.9352 35.5085 24.6183 35.5373 23.7252C35.5657 22.8324 34.99 21.9397 34.3561 21.0178C33.7226 20.0962 34.3272 19.6931 33.8665 18.7711C33.4057 17.8496 32.2537 17.8784 32.196 16.9857C32.1383 16.0926 32.3976 14.7391 31.6487 14.1629C30.8998 13.5867 30.439 13.1259 30.1798 12.2909C29.9206 11.4555 29.8917 10.7932 28.9413 10.3897C27.9909 9.98661 28.279 8.66155 27.6451 8.20077C27.0116 7.73999 26.0035 8.34501 25.2835 7.53844C24.5634 6.73187 24.4769 5.89685 23.6707 5.868C22.8642 5.83915 21.5968 6.38648 20.9918 6.06955C20.3871 5.75261 20.4733 5.11913 19.696 5.34952C18.9182 5.57991 18.5148 5.868 18.1117 6.09839C18.1117 6.09839 16.8892 4.79137 16.083 5.30024C15.2765 5.8087 14.4014 6.68379 14.0732 6.75671C13.7455 6.82964 12.6516 6.68379 12.2505 7.12133C11.8494 7.55888 11.5942 8.77294 11.1206 9.05903C10.6466 9.34512 9.33395 10.2567 9.15164 10.7307C8.96933 11.2043 9.15164 11.8241 8.89641 12.4804C8.64118 13.1368 7.83941 14.2667 7.62064 14.8865C7.40187 15.5064 8.20403 16.2721 7.98526 16.9645C7.76649 17.6572 7.11017 18.7511 7.07371 19.2616C7.03725 19.7716 7.36541 20.2821 7.21956 21.4489C7.07371 22.6153 6.1257 23.2351 6.01631 23.9279C5.90693 24.6207 6.85494 25.6777 6.5997 26.3705C6.5997 26.3705 5.57877 26.9539 5.46978 27.5008C5.37082 27.9956 6.23949 29.0206 6.16096 29.6156C8.39195 28.9745 11.6627 28.4215 13.967 28.0133C14.5087 27.5048 15.0473 27.1814 15.5153 27.2227C15.579 27.2067 15.6271 27.2395 15.6271 27.2395C15.8851 26.8132 16.3487 26.4037 16.8415 26.7347C16.9826 25.4293 16.9509 22.7691 16.9509 22.7691C15.5241 23.2732 14.0432 23.3962 12.9401 22.5151C9.12119 19.4651 13.9314 11.6963 15.345 9.59193C15.355 9.62599 15.8426 11.2572 16.4701 11.5709C17.1036 11.8874 18.1982 11.7724 18.8028 12.2044C19.4079 12.6363 19.494 13.8171 19.8975 14.1629C20.3006 14.5087 21.9426 14.7968 22.1441 15.3149C22.3457 15.8333 21.971 16.8126 22.5184 17.2738C23.0657 17.7346 23.6992 17.4176 23.9873 18.1665C24.2754 18.9154 23.3562 19.9379 23.932 20.5714C24.5081 21.2049 24.9269 21.4164 24.8696 22.3853C24.8119 23.3545 23.958 24.4252 24.4765 25.3183C24.6227 25.5703 24.7806 25.8307 24.9357 26.0972C24.9501 26.1216 24.9645 26.1465 24.9785 26.1717C25.148 26.4642 25.3123 26.7631 25.453 27.0648C25.5924 27.3638 25.7086 27.6651 25.7831 27.9656C25.8019 28.0405 25.8176 28.115 25.8308 28.1896C26.0035 29.1688 25.5427 30.2923 26.3204 30.7243C27.0982 31.1562 28.2213 30.0042 28.8551 30.0331C28.8583 30.0331 28.8616 30.0335 28.8648 30.0339C29.4966 30.0667 30.2703 30.5516 31.0441 30.5516C31.8178 30.5516 33.2618 30.3212 33.5784 30.465C33.8953 30.6093 34.9611 31.7901 35.7677 31.3581C36.5739 30.9258 37.0346 30.6093 37.1212 30.3212C37.1376 30.2659 37.1268 30.1465 37.1 29.9846ZM25.5523 27.2395C25.5523 27.2395 25.5976 27.181 25.6481 27.2239C25.6156 27.2275 25.584 27.2323 25.5523 27.2395Z" stroke="black" stroke-width="0.356161" stroke-linecap="round" stroke-linejoin="round"/>
<path d="M15.5293 13.8599H19.2216V14.557C19.2216 15.5567 18.4102 16.3681 17.4105 16.3681H17.3408C16.3411 16.3681 15.5297 15.5567 15.5297 14.557V13.8599H15.5293Z" fill="#E86F3A" stroke="black" stroke-width="0.356161" stroke-linecap="round" stroke-linejoin="round"/>
<path d="M10.5879 13.8599H14.2802V14.557C14.2802 15.5567 13.4688 16.3681 12.4691 16.3681H12.3994C11.3997 16.3681 10.5883 15.5567 10.5883 14.557V13.8599H10.5879Z" fill="#E86F3A" stroke="black" stroke-width="0.356161" stroke-linecap="round" stroke-linejoin="round"/>
<path d="M14.2812 14.5571C14.2812 14.5571 14.6895 13.9112 15.5306 14.5571" stroke="black" stroke-width="0.356161" stroke-linecap="round" stroke-linejoin="round"/>
</g>
<defs>
<clipPath id="clip0_4572_4473">
<rect width="40" height="40" rx="20" fill="white"/>
</clipPath>
</defs>
</svg>
