<svg width="20" height="20" viewBox="0 0 20 20" fill="none" xmlns="http://www.w3.org/2000/svg">
<path d="M5.875 9.625C5.43179 9.625 4.99292 9.5377 4.58344 9.36809C4.17397 9.19848 3.80191 8.94988 3.48851 8.63649C3.17512 8.32309 2.92652 7.95103 2.75691 7.54156C2.5873 7.13208 2.5 6.69321 2.5 6.25C2.5 5.80679 2.5873 5.36792 2.75691 4.95844C2.92652 4.54897 3.17512 4.17691 3.48851 3.86351C3.80191 3.55012 4.17397 3.30152 4.58344 3.13191C4.99292 2.9623 5.43179 2.875 5.875 2.875C6.77011 2.875 7.62855 3.23058 8.26149 3.86351C8.89442 4.49645 9.25 5.35489 9.25 6.25C9.25 7.14511 8.89442 8.00355 8.26149 8.63649C7.62855 9.26942 6.77011 9.625 5.875 9.625V9.625ZM6.25 17.125C5.35489 17.125 4.49645 16.7694 3.86351 16.1365C3.23058 15.5035 2.875 14.6451 2.875 13.75C2.875 12.8549 3.23058 11.9965 3.86351 11.3635C4.49645 10.7306 5.35489 10.375 6.25 10.375C7.14511 10.375 8.00355 10.7306 8.63649 11.3635C9.26942 11.9965 9.625 12.8549 9.625 13.75C9.625 14.6451 9.26942 15.5035 8.63649 16.1365C8.00355 16.7694 7.14511 17.125 6.25 17.125V17.125ZM13.75 9.625C13.3068 9.625 12.8679 9.5377 12.4584 9.36809C12.049 9.19848 11.6769 8.94988 11.3635 8.63649C11.0501 8.32309 10.8015 7.95103 10.6319 7.54156C10.4623 7.13208 10.375 6.69321 10.375 6.25C10.375 5.80679 10.4623 5.36792 10.6319 4.95844C10.8015 4.54897 11.0501 4.17691 11.3635 3.86351C11.6769 3.55012 12.049 3.30152 12.4584 3.13191C12.8679 2.9623 13.3068 2.875 13.75 2.875C14.6451 2.875 15.5035 3.23058 16.1365 3.86351C16.7694 4.49645 17.125 5.35489 17.125 6.25C17.125 7.14511 16.7694 8.00355 16.1365 8.63649C15.5035 9.26942 14.6451 9.625 13.75 9.625V9.625ZM13.75 17.125C12.8549 17.125 11.9965 16.7694 11.3635 16.1365C10.7306 15.5035 10.375 14.6451 10.375 13.75C10.375 12.8549 10.7306 11.9965 11.3635 11.3635C11.9965 10.7306 12.8549 10.375 13.75 10.375C14.6451 10.375 15.5035 10.7306 16.1365 11.3635C16.7694 11.9965 17.125 12.8549 17.125 13.75C17.125 14.6451 16.7694 15.5035 16.1365 16.1365C15.5035 16.7694 14.6451 17.125 13.75 17.125ZM5.875 8.125C6.37228 8.125 6.84919 7.92746 7.20083 7.57583C7.55246 7.22419 7.75 6.74728 7.75 6.25C7.75 5.75272 7.55246 5.27581 7.20083 4.92417C6.84919 4.57254 6.37228 4.375 5.875 4.375C5.37772 4.375 4.90081 4.57254 4.54917 4.92417C4.19754 5.27581 4 5.75272 4 6.25C4 6.74728 4.19754 7.22419 4.54917 7.57583C4.90081 7.92746 5.37772 8.125 5.875 8.125V8.125ZM6.25 15.625C6.74728 15.625 7.22419 15.4275 7.57583 15.0758C7.92746 14.7242 8.125 14.2473 8.125 13.75C8.125 13.2527 7.92746 12.7758 7.57583 12.4242C7.22419 12.0725 6.74728 11.875 6.25 11.875C5.75272 11.875 5.27581 12.0725 4.92417 12.4242C4.57254 12.7758 4.375 13.2527 4.375 13.75C4.375 14.2473 4.57254 14.7242 4.92417 15.0758C5.27581 15.4275 5.75272 15.625 6.25 15.625ZM13.75 8.125C14.2473 8.125 14.7242 7.92746 15.0758 7.57583C15.4275 7.22419 15.625 6.74728 15.625 6.25C15.625 5.75272 15.4275 5.27581 15.0758 4.92417C14.7242 4.57254 14.2473 4.375 13.75 4.375C13.2527 4.375 12.7758 4.57254 12.4242 4.92417C12.0725 5.27581 11.875 5.75272 11.875 6.25C11.875 6.74728 12.0725 7.22419 12.4242 7.57583C12.7758 7.92746 13.2527 8.125 13.75 8.125ZM13.75 15.625C14.2473 15.625 14.7242 15.4275 15.0758 15.0758C15.4275 14.7242 15.625 14.2473 15.625 13.75C15.625 13.2527 15.4275 12.7758 15.0758 12.4242C14.7242 12.0725 14.2473 11.875 13.75 11.875C13.2527 11.875 12.7758 12.0725 12.4242 12.4242C12.0725 12.7758 11.875 13.2527 11.875 13.75C11.875 14.2473 12.0725 14.7242 12.4242 15.0758C12.7758 15.4275 13.2527 15.625 13.75 15.625Z" fill="#868C98"/>
</svg>
