<svg width="17" height="15" viewBox="0 0 17 15" fill="none" xmlns="http://www.w3.org/2000/svg">
<path d="M5.98462 10.9448L8.52862 12.5663L11.0726 10.9455L12.4676 11.8343L8.52862 14.3438L4.58962 11.8343L5.98462 10.9455V10.9448ZM5.32687 4.73476L7.12162 3.57001L5.30287 2.38951L3.46012 3.52726L5.32762 4.73476H5.32687ZM6.70687 5.62726L8.50012 6.78901L10.2926 5.62876L8.50012 4.46401L6.70687 5.62801V5.62726ZM9.88012 7.68226L11.6981 8.85826L13.5356 7.73176L11.6719 6.52276L9.88012 7.68151V7.68226ZM8.50012 2.67526L11.6779 0.614258L16.3451 3.49726L13.0511 5.62951L16.3459 7.76701L11.6764 10.6313L8.50012 8.57476L5.32387 10.6298L0.651367 7.76701L3.94837 5.62876L0.654367 3.49726L5.32237 0.615008L8.50012 2.67601V2.67526ZM9.87787 3.56926L11.6726 4.73476L13.5394 3.52726L11.6974 2.38951L9.87787 3.57001V3.56926ZM7.12012 7.68226L5.32762 6.52276L3.46312 7.73251L5.30137 8.85901L7.12012 7.68226Z" fill="#868C98"/>
</svg>
