<svg width="88" height="88" viewBox="0 0 88 88" fill="none" xmlns="http://www.w3.org/2000/svg">
<rect x="0.5" y="0.5" width="87" height="87" rx="43.5" fill="url(#paint0_linear_348_41917)"/>
<rect x="0.5" y="0.5" width="87" height="87" rx="43.5" stroke="url(#paint1_linear_348_41917)"/>
<g filter="url(#filter0_d_348_41917)">
<rect x="16" y="16" width="56" height="56" rx="28" fill="white"/>
<rect x="16.5" y="16.5" width="55" height="55" rx="27.5" stroke="#E2E4E9"/>
<path d="M54.5 46.1H52.4V38.9999L44.0756 46.455L35.6 38.9768V51.35H46.1V53.4501H34.55C34.2715 53.4501 34.0045 53.3394 33.8075 53.1425C33.6106 52.9456 33.5 52.6785 33.5 52.4V35.6C33.5 35.3216 33.6106 35.0545 33.8075 34.8576C34.0045 34.6607 34.2715 34.55 34.55 34.55H53.45C53.7285 34.55 53.9955 34.6607 54.1925 34.8576C54.3894 35.0545 54.5 35.3216 54.5 35.6V46.1ZM36.1365 36.65L44.064 43.6451L51.8771 36.65H36.1365ZM51.35 54.5L47.6372 50.7873L49.1229 49.3025L51.35 51.5307L55.0628 47.8178L56.5475 49.3025L51.35 54.5Z" fill="#525866"/>
</g>
<defs>
<filter id="filter0_d_348_41917" x="12" y="14" width="64" height="64" filterUnits="userSpaceOnUse" color-interpolation-filters="sRGB">
<feFlood flood-opacity="0" result="BackgroundImageFix"/>
<feColorMatrix in="SourceAlpha" type="matrix" values="0 0 0 0 0 0 0 0 0 0 0 0 0 0 0 0 0 0 127 0" result="hardAlpha"/>
<feOffset dy="2"/>
<feGaussianBlur stdDeviation="2"/>
<feColorMatrix type="matrix" values="0 0 0 0 0.105882 0 0 0 0 0.109804 0 0 0 0 0.113725 0 0 0 0.04 0"/>
<feBlend mode="normal" in2="BackgroundImageFix" result="effect1_dropShadow_348_41917"/>
<feBlend mode="normal" in="SourceGraphic" in2="effect1_dropShadow_348_41917" result="shape"/>
</filter>
<linearGradient id="paint0_linear_348_41917" x1="44" y1="0" x2="44" y2="88" gradientUnits="userSpaceOnUse">
<stop stop-color="#E4E5E7" stop-opacity="0.48"/>
<stop offset="1" stop-color="#F7F8F8" stop-opacity="0"/>
<stop offset="1" stop-color="#E4E5E7" stop-opacity="0"/>
</linearGradient>
<linearGradient id="paint1_linear_348_41917" x1="44" y1="0" x2="44" y2="88" gradientUnits="userSpaceOnUse">
<stop stop-color="#E4E5E7"/>
<stop offset="0.765625" stop-color="#E4E5E7" stop-opacity="0"/>
</linearGradient>
</defs>
</svg>
