<svg width="14" height="12" viewBox="0 0 14 12" fill="none" xmlns="http://www.w3.org/2000/svg">
<path d="M0.508789 6.0001C1.07279 2.9281 3.76499 0.600098 7.00019 0.600098C10.2354 0.600098 12.927 2.9281 13.4916 6.0001C12.9276 9.0721 10.2354 11.4001 7.00019 11.4001C3.76499 11.4001 1.07339 9.0721 0.508789 6.0001ZM7.00019 9.0001C7.79584 9.0001 8.5589 8.68403 9.12151 8.12142C9.68412 7.55881 10.0002 6.79575 10.0002 6.0001C10.0002 5.20445 9.68412 4.44139 9.12151 3.87878C8.5589 3.31617 7.79584 3.0001 7.00019 3.0001C6.20454 3.0001 5.44148 3.31617 4.87887 3.87878C4.31626 4.44139 4.00019 5.20445 4.00019 6.0001C4.00019 6.79575 4.31626 7.55881 4.87887 8.12142C5.44148 8.68403 6.20454 9.0001 7.00019 9.0001ZM7.00019 7.8001C6.5228 7.8001 6.06496 7.61046 5.7274 7.27289C5.38983 6.93532 5.20019 6.47749 5.20019 6.0001C5.20019 5.52271 5.38983 5.06487 5.7274 4.72731C6.06496 4.38974 6.5228 4.2001 7.00019 4.2001C7.47758 4.2001 7.93542 4.38974 8.27298 4.72731C8.61055 5.06487 8.80019 5.52271 8.80019 6.0001C8.80019 6.47749 8.61055 6.93532 8.27298 7.27289C7.93542 7.61046 7.47758 7.8001 7.00019 7.8001Z" fill="#375DFB"/>
</svg>
