<svg width="24" height="24" viewBox="0 0 24 24" fill="none" xmlns="http://www.w3.org/2000/svg">
<path d="M14.6972 3L20.0999 8.4L20.1008 12.234C19.5733 11.7963 18.9602 11.4735 18.3008 11.2863L18.2999 9.3H13.7999V4.8H5.6999V19.2H10.2539C10.3569 19.8487 10.6085 20.4648 10.9892 21H4.7936C4.57483 21 4.36366 20.9197 4.2001 20.7744C4.03655 20.6291 3.93198 20.4289 3.9062 20.2116L3.8999 20.1072V3.8928C3.8999 3.4446 4.2482 3.0585 4.6964 3.0063L4.8017 3H14.6972ZM16.9499 12.9C17.7853 12.9 18.5865 13.2319 19.1773 13.8226C19.768 14.4134 20.0999 15.2146 20.0999 16.05L20.099 16.1427C20.662 16.3013 21.1507 16.6543 21.4783 17.1389C21.8059 17.6235 21.9512 18.2085 21.8885 18.7901C21.8259 19.3717 21.5592 19.9123 21.1359 20.316C20.7126 20.7197 20.16 20.9604 19.5761 20.9955L19.4249 21H14.4749L14.3237 20.9955C13.7399 20.9601 13.1875 20.7191 12.7645 20.3153C12.3414 19.9114 12.0751 19.3708 12.0126 18.7893C11.9502 18.2078 12.0957 17.6229 12.4234 17.1385C12.751 16.654 13.2396 16.3012 13.8026 16.1427L13.7999 16.05C13.7999 15.2146 14.1318 14.4134 14.7225 13.8226C15.3133 13.2319 16.1145 12.9 16.9499 12.9ZM16.9499 14.7C16.6363 14.6999 16.3325 14.809 16.0906 15.0086C15.8487 15.2081 15.6838 15.4856 15.6242 15.7935L15.6062 15.9195L15.5999 16.05V17.508L14.3003 17.8734C14.1505 17.9134 14.0191 18.0037 13.9281 18.1291C13.837 18.2546 13.7919 18.4076 13.8004 18.5623C13.8088 18.7171 13.8703 18.8643 13.9744 18.9791C14.0786 19.0939 14.2191 19.1694 14.3723 19.1928L14.4704 19.2H19.4294C19.5926 19.1988 19.7498 19.1384 19.8719 19.0302C19.9941 18.922 20.0729 18.7732 20.0937 18.6113C20.1146 18.4495 20.0761 18.2855 19.9854 18.1499C19.8947 18.0142 19.7579 17.916 19.6004 17.8734L18.6887 17.6187L18.2999 17.508V16.05L18.2936 15.9204C18.2614 15.5864 18.1059 15.2763 17.8575 15.0507C17.6091 14.825 17.2855 14.7 16.9499 14.7Z" fill="#525866"/>
</svg>
