<svg width="20" height="20" viewBox="0 0 20 20" fill="none" xmlns="http://www.w3.org/2000/svg">
<path d="M10 2.5C14.1422 2.5 17.5 5.85775 17.5 10C17.5 14.1422 14.1422 17.5 10 17.5C5.85775 17.5 2.5 14.1422 2.5 10C2.5 8.902 2.7355 7.8595 3.16 6.9205C3.5095 6.21625 4.08475 5.515 4.5475 5.275C4.05775 6.23725 3.81775 7.18 3.7675 7.81225C4.108 6.68725 4.75375 5.7445 5.6575 5.07925C7.207 3.94 9.2935 3.889 10.1245 4.61425C8.5825 5.1445 6.9025 7.27525 7.27225 9.77125C7.33225 10.1837 7.456 10.5843 7.639 10.9578C7.351 10.2003 7.3255 9.133 7.7905 8.43925C8.3095 7.66675 9.049 7.50325 9.445 7.58725C9.289 7.55425 8.944 8.21425 8.893 8.3305C8.76325 8.626 8.69875 8.9455 8.70475 9.268C8.7159 9.94178 8.99369 10.5837 9.47725 11.053C10.9188 12.4563 13.2445 11.9043 14.2863 10.3015C15.001 9.19825 15.088 7.3255 14.17 5.8375C13.941 5.47517 13.6679 5.14263 13.357 4.8475C11.9695 3.523 9.997 2.92 8.1205 3.19375C7.291 3.3265 6.58525 3.56575 6.0025 3.91075C6.81625 3.0985 8.4325 2.5 10 2.5ZM6.15625 6.77875C4.4665 7.3645 3.5305 9.15625 4.222 11.6237C4.56793 12.8525 5.29652 13.9389 6.30198 14.7253C7.30743 15.5118 8.53739 15.9572 9.81325 15.997L10 16C11.527 16.0001 12.9965 15.418 14.1092 14.3723C15.2219 13.3266 15.8941 11.896 15.9888 10.372L15.9955 10.213C15.898 10.4748 15.7833 10.7185 15.6483 10.948L15.5433 11.1183C13.9653 13.5475 10.5325 14.1745 8.43325 12.1292C8.14768 11.8522 7.90456 11.5345 7.71175 11.1865L7.63225 11.0357C6.33025 10.7455 5.69425 10.0413 5.725 8.923C5.74525 8.17975 5.8975 7.453 6.15625 6.778V6.77875Z" fill="#525866"/>
</svg>
