<svg width="21" height="20" viewBox="0 0 21 20" fill="none" xmlns="http://www.w3.org/2000/svg">
<path d="M1.44922 7.47222C1.44922 5.29424 1.44922 4.20525 1.87308 3.37337C2.24592 2.64163 2.84085 2.0467 3.57259 1.67386C4.40447 1.25 5.49346 1.25 7.67144 1.25H12.727C14.905 1.25 15.994 1.25 16.8258 1.67386C17.5576 2.0467 18.1525 2.64163 18.5254 3.37337C18.9492 4.20525 18.9492 5.29424 18.9492 7.47222V12.5278C18.9492 14.7058 18.9492 15.7948 18.5254 16.6266C18.1525 17.3584 17.5576 17.9533 16.8258 18.3261C15.994 18.75 14.905 18.75 12.727 18.75H7.67144C5.49346 18.75 4.40447 18.75 3.57259 18.3261C2.84085 17.9533 2.24592 17.3584 1.87308 16.6266C1.44922 15.7948 1.44922 14.7058 1.44922 12.5278V7.47222Z" fill="white"/>
<path d="M10.2009 7.78168L8.03785 3.96436C8.10966 3.89123 8.19229 3.84327 8.27492 3.81104C7.63705 4.02097 7.34437 4.73726 7.34437 4.73726L3.3928 11.7091C3.3372 11.9277 3.32175 12.125 3.32871 12.2988H7.64168L10.2009 7.78168Z" fill="#34A853"/>
<path d="M10.2002 7.78168L12.7594 12.2988H17.0724C17.0793 12.125 17.0639 11.9277 17.0083 11.7091L13.0567 4.73726C13.0567 4.73726 12.7633 4.02097 12.1262 3.81104C12.208 3.84327 12.2914 3.89123 12.3632 3.96436L10.2002 7.78168Z" fill="#FBBC05"/>
<path d="M10.2002 7.78214L12.3632 3.96482C12.2914 3.89169 12.208 3.84373 12.1261 3.81149C12.0319 3.78083 11.9308 3.76039 11.8211 3.75488H11.7068H8.69352H8.57922C8.47034 3.7596 8.3684 3.78004 8.27419 3.81149C8.19233 3.84373 8.10893 3.89169 8.03711 3.96482L10.2002 7.78214Z" fill="#188038"/>
<path d="M7.64186 12.2988L5.50352 16.0729C5.50352 16.0729 5.43247 16.0383 5.33594 15.9668C5.63943 16.2003 5.93443 16.2498 5.93443 16.2498H14.3326C14.7959 16.2498 14.8925 16.0729 14.8925 16.0729C14.894 16.0721 14.8948 16.0713 14.8963 16.0705L12.7595 12.2988H7.64186Z" fill="#4285F4"/>
<path d="M7.64208 12.2988H3.3291C3.35072 12.8115 3.57313 13.111 3.57313 13.111L3.7353 13.3925C3.74689 13.409 3.75384 13.4185 3.75384 13.4185L4.10675 14.038L4.89907 15.4172C4.92224 15.473 4.94927 15.5241 4.97784 15.5728C4.98865 15.5894 4.99869 15.6074 5.01027 15.6232C5.01336 15.6279 5.01645 15.6326 5.01954 15.6373C5.11762 15.7757 5.22728 15.8826 5.33693 15.9668C5.43346 16.0391 5.50451 16.0729 5.50451 16.0729L7.64208 12.2988Z" fill="#1967D2"/>
<path d="M12.7598 12.2988H17.0727C17.0511 12.8115 16.8287 13.111 16.8287 13.111L16.6665 13.3925C16.655 13.409 16.648 13.4185 16.648 13.4185L16.2951 14.038L15.5028 15.4172C15.4796 15.473 15.4526 15.5241 15.424 15.5728C15.4132 15.5894 15.4032 15.6074 15.3916 15.6232C15.3885 15.6279 15.3854 15.6326 15.3823 15.6373C15.2842 15.7757 15.1746 15.8826 15.0649 15.9668C14.9684 16.0391 14.8973 16.0729 14.8973 16.0729L12.7598 12.2988Z" fill="#EA4335"/>
</svg>
