<svg width="21" height="20" viewBox="0 0 21 20" fill="none" xmlns="http://www.w3.org/2000/svg">
<path d="M10.5 4C8.9087 4 7.38258 4.63214 6.25736 5.75736C5.13214 6.88258 4.5 8.4087 4.5 10H6.75C7.14782 10 7.52936 10.158 7.81066 10.4393C8.09196 10.7206 8.25 11.1022 8.25 11.5V15.25C8.25 15.6478 8.09196 16.0294 7.81066 16.3107C7.52936 16.592 7.14782 16.75 6.75 16.75H4.5C4.10218 16.75 3.72064 16.592 3.43934 16.3107C3.15804 16.0294 3 15.6478 3 15.25V10C3 5.85775 6.35775 2.5 10.5 2.5C14.6423 2.5 18 5.85775 18 10V15.25C18 15.6478 17.842 16.0294 17.5607 16.3107C17.2794 16.592 16.8978 16.75 16.5 16.75H14.25C13.8522 16.75 13.4706 16.592 13.1893 16.3107C12.908 16.0294 12.75 15.6478 12.75 15.25V11.5C12.75 11.1022 12.908 10.7206 13.1893 10.4393C13.4706 10.158 13.8522 10 14.25 10H16.5C16.5 8.4087 15.8679 6.88258 14.7426 5.75736C13.6174 4.63214 12.0913 4 10.5 4ZM4.5 11.5V15.25H6.75V11.5H4.5ZM14.25 11.5V15.25H16.5V11.5H14.25Z" fill="#525866"/>
</svg>
