<svg width="44" height="44" viewBox="0 0 44 44" fill="none" xmlns="http://www.w3.org/2000/svg">
<g filter="url(#filter0_d_370_22631)">
<rect x="2" y="1" width="40" height="40" rx="20" fill="white"/>
<rect x="2.5" y="1.5" width="39" height="39" rx="19.5" stroke="#E2E4E9"/>
<path d="M22 27.25V26H17.625V16H23.875V18.5H26.375V21.625H27.6249V17.875L24.5 14.75H16.9991C16.6547 14.75 16.375 15.0275 16.375 15.3699V26.6301C16.375 26.9654 16.653 27.25 16.9959 27.25H22ZM27.9598 26.7008L26.6339 25.3749L27.9598 24.0491L27.0759 23.1652L25.7501 24.4911L24.4243 23.1652L23.5404 24.0491L24.8662 25.3749L23.5404 26.7008L24.4243 27.5846L25.7501 26.2588L27.0759 27.5846L27.9598 26.7008Z" fill="#F27B2C"/>
</g>
<defs>
<filter id="filter0_d_370_22631" x="0" y="0" width="44" height="44" filterUnits="userSpaceOnUse" color-interpolation-filters="sRGB">
<feFlood flood-opacity="0" result="BackgroundImageFix"/>
<feColorMatrix in="SourceAlpha" type="matrix" values="0 0 0 0 0 0 0 0 0 0 0 0 0 0 0 0 0 0 127 0" result="hardAlpha"/>
<feOffset dy="1"/>
<feGaussianBlur stdDeviation="1"/>
<feComposite in2="hardAlpha" operator="out"/>
<feColorMatrix type="matrix" values="0 0 0 0 0.894118 0 0 0 0 0.898039 0 0 0 0 0.905882 0 0 0 0.24 0"/>
<feBlend mode="normal" in2="BackgroundImageFix" result="effect1_dropShadow_370_22631"/>
<feBlend mode="normal" in="SourceGraphic" in2="effect1_dropShadow_370_22631" result="shape"/>
</filter>
</defs>
</svg>
