<svg width="3" height="14" viewBox="0 0 3 14" fill="none" xmlns="http://www.w3.org/2000/svg">
<path d="M1.39941 0.25C0.780664 0.25 0.274414 0.75625 0.274414 1.375C0.274414 1.99375 0.780664 2.5 1.39941 2.5C2.01816 2.5 2.52441 1.99375 2.52441 1.375C2.52441 0.75625 2.01816 0.25 1.39941 0.25ZM1.39941 11.5C0.780664 11.5 0.274414 12.0063 0.274414 12.625C0.274414 13.2437 0.780664 13.75 1.39941 13.75C2.01816 13.75 2.52441 13.2437 2.52441 12.625C2.52441 12.0063 2.01816 11.5 1.39941 11.5ZM1.39941 5.875C0.780664 5.875 0.274414 6.38125 0.274414 7C0.274414 7.61875 0.780664 8.125 1.39941 8.125C2.01816 8.125 2.52441 7.61875 2.52441 7C2.52441 6.38125 2.01816 5.875 1.39941 5.875Z" fill="#0A0D14"/>
</svg>
