<svg width="12" height="12" viewBox="0 0 12 12" fill="none" xmlns="http://www.w3.org/2000/svg">
<path d="M6 0C6.15913 0 6.31174 0.0632141 6.42426 0.175736C6.53679 0.288258 6.6 0.44087 6.6 0.6V2.4C6.6 2.55913 6.53679 2.71174 6.42426 2.82426C6.31174 2.93679 6.15913 3 6 3C5.84087 3 5.68826 2.93679 5.57574 2.82426C5.46321 2.71174 5.4 2.55913 5.4 2.4V0.6C5.4 0.44087 5.46321 0.288258 5.57574 0.175736C5.68826 0.0632141 5.84087 0 6 0ZM6 9C6.15913 9 6.31174 9.06321 6.42426 9.17574C6.53679 9.28826 6.6 9.44087 6.6 9.6V11.4C6.6 11.5591 6.53679 11.7117 6.42426 11.8243C6.31174 11.9368 6.15913 12 6 12C5.84087 12 5.68826 11.9368 5.57574 11.8243C5.46321 11.7117 5.4 11.5591 5.4 11.4V9.6C5.4 9.44087 5.46321 9.28826 5.57574 9.17574C5.68826 9.06321 5.84087 9 6 9ZM12 6C12 6.15913 11.9368 6.31174 11.8243 6.42426C11.7117 6.53679 11.5591 6.6 11.4 6.6H9.6C9.44087 6.6 9.28826 6.53679 9.17574 6.42426C9.06321 6.31174 9 6.15913 9 6C9 5.84087 9.06321 5.68826 9.17574 5.57574C9.28826 5.46321 9.44087 5.4 9.6 5.4H11.4C11.5591 5.4 11.7117 5.46321 11.8243 5.57574C11.9368 5.68826 12 5.84087 12 6ZM3 6C3 6.15913 2.93679 6.31174 2.82426 6.42426C2.71174 6.53679 2.55913 6.6 2.4 6.6H0.6C0.44087 6.6 0.288258 6.53679 0.175736 6.42426C0.0632141 6.31174 0 6.15913 0 6C0 5.84087 0.0632141 5.68826 0.175736 5.57574C0.288258 5.46321 0.44087 5.4 0.6 5.4H2.4C2.55913 5.4 2.71174 5.46321 2.82426 5.57574C2.93679 5.68826 3 5.84087 3 6ZM10.2426 10.2426C10.1301 10.3551 9.9775 10.4183 9.8184 10.4183C9.6593 10.4183 9.50672 10.3551 9.3942 10.2426L8.1216 8.97C8.01231 8.85684 7.95183 8.70528 7.9532 8.54796C7.95456 8.39064 8.01766 8.24015 8.12891 8.12891C8.24015 8.01766 8.39064 7.95456 8.54796 7.9532C8.70528 7.95183 8.85684 8.01231 8.97 8.1216L10.2426 9.3936C10.2984 9.44932 10.3426 9.5155 10.3728 9.58834C10.403 9.66118 10.4186 9.73925 10.4186 9.8181C10.4186 9.89695 10.403 9.97503 10.3728 10.0479C10.3426 10.1207 10.2984 10.1869 10.2426 10.2426ZM3.8784 3.8784C3.76588 3.99088 3.6133 4.05407 3.4542 4.05407C3.2951 4.05407 3.14252 3.99088 3.03 3.8784L1.758 2.6064C1.64542 2.4939 1.58213 2.34127 1.58208 2.18211C1.58202 2.02295 1.6452 1.87028 1.7577 1.7577C1.8702 1.64512 2.02283 1.58183 2.18199 1.58178C2.34115 1.58172 2.49382 1.6449 2.6064 1.7574L3.8784 3.03C3.99088 3.14252 4.05407 3.2951 4.05407 3.4542C4.05407 3.6133 3.99088 3.76588 3.8784 3.8784ZM1.758 10.2426C1.64552 10.1301 1.58233 9.9775 1.58233 9.8184C1.58233 9.6593 1.64552 9.50672 1.758 9.3942L3.0306 8.1216C3.08595 8.06429 3.15216 8.01858 3.22536 7.98714C3.29856 7.95569 3.37729 7.93914 3.45696 7.93845C3.53663 7.93776 3.61563 7.95294 3.68937 7.98311C3.76311 8.01328 3.8301 8.05783 3.88644 8.11416C3.94277 8.1705 3.98732 8.23749 4.01749 8.31123C4.04766 8.38497 4.06284 8.46397 4.06215 8.54364C4.06146 8.62331 4.04491 8.70204 4.01346 8.77524C3.98202 8.84844 3.93631 8.91465 3.879 8.97L2.607 10.2426C2.55128 10.2984 2.4851 10.3426 2.41226 10.3728C2.33943 10.403 2.26135 10.4186 2.1825 10.4186C2.10365 10.4186 2.02557 10.403 1.95274 10.3728C1.8799 10.3426 1.81372 10.2984 1.758 10.2426ZM8.1216 3.8784C8.00912 3.76588 7.94593 3.6133 7.94593 3.4542C7.94593 3.2951 8.00912 3.14252 8.1216 3.03L9.3936 1.7574C9.50611 1.64482 9.65873 1.58153 9.81789 1.58148C9.97705 1.58142 10.1297 1.6446 10.2423 1.7571C10.3549 1.86961 10.4182 2.02223 10.4182 2.18139C10.4183 2.34055 10.3551 2.49322 10.2426 2.6058L8.97 3.8784C8.85748 3.99088 8.7049 4.05407 8.5458 4.05407C8.3867 4.05407 8.23412 3.99088 8.1216 3.8784Z" fill="#375DFB"/>
</svg>
