<svg width="20" height="20" viewBox="0 0 20 20" fill="none" xmlns="http://www.w3.org/2000/svg">
<path d="M11.0057 4C10.8358 4.48182 10.7493 4.98909 10.75 5.5H4.75V16H15.25V10C15.7609 10.0007 16.2682 9.91417 16.75 9.74425V16.75C16.75 16.9489 16.671 17.1397 16.5303 17.2803C16.3897 17.421 16.1989 17.5 16 17.5H4C3.80109 17.5 3.61032 17.421 3.46967 17.2803C3.32902 17.1397 3.25 16.9489 3.25 16.75V4.75C3.25 4.55109 3.32902 4.36032 3.46967 4.21967C3.61032 4.07902 3.80109 4 4 4H11.0057ZM15.25 7C15.6478 7 16.0294 6.84196 16.3107 6.56066C16.592 6.27936 16.75 5.89782 16.75 5.5C16.75 5.10218 16.592 4.72064 16.3107 4.43934C16.0294 4.15804 15.6478 4 15.25 4C14.8522 4 14.4706 4.15804 14.1893 4.43934C13.908 4.72064 13.75 5.10218 13.75 5.5C13.75 5.89782 13.908 6.27936 14.1893 6.56066C14.4706 6.84196 14.8522 7 15.25 7V7ZM15.25 8.5C14.4544 8.5 13.6913 8.18393 13.1287 7.62132C12.5661 7.05871 12.25 6.29565 12.25 5.5C12.25 4.70435 12.5661 3.94129 13.1287 3.37868C13.6913 2.81607 14.4544 2.5 15.25 2.5C16.0456 2.5 16.8087 2.81607 17.3713 3.37868C17.9339 3.94129 18.25 4.70435 18.25 5.5C18.25 6.29565 17.9339 7.05871 17.3713 7.62132C16.8087 8.18393 16.0456 8.5 15.25 8.5Z" fill="#868C98"/>
</svg>
