<svg width="20" height="20" viewBox="0 0 20 20" fill="none" xmlns="http://www.w3.org/2000/svg">
<path d="M3.83725 3.1195L10 1.75L16.1627 3.1195C16.3293 3.15652 16.4782 3.24922 16.585 3.3823C16.6918 3.51538 16.75 3.68089 16.75 3.8515V11.3417C16.7499 12.0826 16.567 12.8119 16.2174 13.465C15.8678 14.1181 15.3624 14.6749 14.746 15.0858L10 18.25L5.254 15.0858C4.63771 14.6749 4.13235 14.1183 3.78276 13.4653C3.43318 12.8124 3.25018 12.0832 3.25 11.3425V3.8515C3.25003 3.68089 3.30823 3.51538 3.41499 3.3823C3.52176 3.24922 3.6707 3.15652 3.83725 3.1195V3.1195ZM4.75 4.453V11.3417C4.75001 11.8356 4.87193 12.3218 5.10495 12.7572C5.33796 13.1926 5.67486 13.5638 6.08575 13.8378L10 16.4478L13.9142 13.8378C14.325 13.5639 14.6619 13.1928 14.8949 12.7575C15.1279 12.3223 15.2499 11.8362 15.25 11.3425V4.453L10 3.2875L4.75 4.453ZM10 9.25C9.50272 9.25 9.02581 9.05246 8.67417 8.70083C8.32254 8.34919 8.125 7.87228 8.125 7.375C8.125 6.87772 8.32254 6.40081 8.67417 6.04917C9.02581 5.69754 9.50272 5.5 10 5.5C10.4973 5.5 10.9742 5.69754 11.3258 6.04917C11.6775 6.40081 11.875 6.87772 11.875 7.375C11.875 7.87228 11.6775 8.34919 11.3258 8.70083C10.9742 9.05246 10.4973 9.25 10 9.25V9.25ZM6.64525 13C6.73617 12.1738 7.12876 11.4102 7.74781 10.8555C8.36686 10.3009 9.16881 9.99416 10 9.99416C10.8312 9.99416 11.6331 10.3009 12.2522 10.8555C12.8712 11.4102 13.2638 12.1738 13.3547 13H6.64525Z" fill="#868C98"/>
</svg>
