<svg width="13" height="14" viewBox="0 0 13 14" fill="none" xmlns="http://www.w3.org/2000/svg">
<path d="M0.599609 7.60002H4.19961V6.40001H0.599609V0.907615C0.599618 0.855483 0.613212 0.804254 0.639049 0.758977C0.664887 0.713699 0.702078 0.675936 0.746955 0.649409C0.791833 0.622882 0.842848 0.608507 0.894973 0.607702C0.947098 0.606896 0.998533 0.619687 1.04421 0.644815L12.1214 6.73722C12.1684 6.76311 12.2077 6.80116 12.235 6.84738C12.2623 6.89361 12.2767 6.94632 12.2767 7.00001C12.2767 7.05371 12.2623 7.10642 12.235 7.15265C12.2077 7.19887 12.1684 7.23692 12.1214 7.26281L1.04421 13.3552C0.998533 13.3803 0.947098 13.3931 0.894973 13.3923C0.842848 13.3915 0.791833 13.3771 0.746955 13.3506C0.702078 13.3241 0.664887 13.2863 0.639049 13.2411C0.613212 13.1958 0.599618 13.1445 0.599609 13.0924V7.60002Z" fill="#F27B2C"/>
</svg>
