<svg width="18" height="18" viewBox="0 0 18 18" fill="none" xmlns="http://www.w3.org/2000/svg">
<path d="M6.51453 3.00004L8.46979 1.04479C8.61043 0.904182 8.80116 0.825195 9.00003 0.825195C9.19891 0.825195 9.38964 0.904182 9.53028 1.04479L11.4855 3.00004H14.25C14.4489 3.00004 14.6397 3.07905 14.7804 3.21971C14.921 3.36036 15 3.55112 15 3.75004V6.51453L16.9553 8.46979C17.0959 8.61043 17.1749 8.80116 17.1749 9.00003C17.1749 9.19891 17.0959 9.38964 16.9553 9.53028L15 11.4855V14.25C15 14.4489 14.921 14.6397 14.7804 14.7804C14.6397 14.921 14.4489 15 14.25 15H11.4855L9.53028 16.9553C9.38964 17.0959 9.19891 17.1749 9.00003 17.1749C8.80116 17.1749 8.61043 17.0959 8.46979 16.9553L6.51453 15H3.75004C3.55112 15 3.36036 14.921 3.21971 14.7804C3.07905 14.6397 3.00004 14.4489 3.00004 14.25V11.4855L1.04479 9.53028C0.904182 9.38964 0.825195 9.19891 0.825195 9.00003C0.825195 8.80116 0.904182 8.61043 1.04479 8.46979L3.00004 6.51453V3.75004C3.00004 3.55112 3.07905 3.36036 3.21971 3.21971C3.36036 3.07905 3.55112 3.00004 3.75004 3.00004H6.51453ZM4.50003 4.50003V7.13629L2.63629 9.00003L4.50003 10.8638V13.5H7.13629L9.00003 15.3638L10.8638 13.5H13.5V10.8638L15.3638 9.00003L13.5 7.13629V4.50003H10.8638L9.00003 2.63629L7.13629 4.50003H4.50003ZM9.00003 12C8.20438 12 7.44132 11.684 6.87871 11.1214C6.31611 10.5587 6.00003 9.79568 6.00003 9.00003C6.00003 8.20438 6.31611 7.44132 6.87871 6.87871C7.44132 6.31611 8.20438 6.00003 9.00003 6.00003C9.79568 6.00003 10.5587 6.31611 11.1214 6.87871C11.684 7.44132 12 8.20438 12 9.00003C12 9.79568 11.684 10.5587 11.1214 11.1214C10.5587 11.684 9.79568 12 9.00003 12ZM9.00003 10.5C9.39786 10.5 9.77939 10.342 10.0607 10.0607C10.342 9.77939 10.5 9.39786 10.5 9.00003C10.5 8.60221 10.342 8.22068 10.0607 7.93937C9.77939 7.65807 9.39786 7.50003 9.00003 7.50003C8.60221 7.50003 8.22068 7.65807 7.93937 7.93937C7.65807 8.22068 7.50003 8.60221 7.50003 9.00003C7.50003 9.39786 7.65807 9.77939 7.93937 10.0607C8.22068 10.342 8.60221 10.5 9.00003 10.5Z" fill="#525866"/>
</svg>
