<svg width="80" height="80" viewBox="0 0 80 80" fill="none" xmlns="http://www.w3.org/2000/svg">
<path d="M40 10C40.7956 10 41.5587 10.3161 42.1213 10.8787C42.6839 11.4413 43 12.2044 43 13V22C43 22.7956 42.6839 23.5587 42.1213 24.1213C41.5587 24.6839 40.7956 25 40 25C39.2044 25 38.4413 24.6839 37.8787 24.1213C37.3161 23.5587 37 22.7956 37 22V13C37 12.2044 37.3161 11.4413 37.8787 10.8787C38.4413 10.3161 39.2044 10 40 10V10ZM40 55C40.7956 55 41.5587 55.3161 42.1213 55.8787C42.6839 56.4413 43 57.2044 43 58V67C43 67.7956 42.6839 68.5587 42.1213 69.1213C41.5587 69.6839 40.7956 70 40 70C39.2044 70 38.4413 69.6839 37.8787 69.1213C37.3161 68.5587 37 67.7956 37 67V58C37 57.2044 37.3161 56.4413 37.8787 55.8787C38.4413 55.3161 39.2044 55 40 55V55ZM70 40C70 40.7956 69.6839 41.5587 69.1213 42.1213C68.5587 42.6839 67.7956 43 67 43H58C57.2044 43 56.4413 42.6839 55.8787 42.1213C55.3161 41.5587 55 40.7956 55 40C55 39.2044 55.3161 38.4413 55.8787 37.8787C56.4413 37.3161 57.2044 37 58 37H67C67.7956 37 68.5587 37.3161 69.1213 37.8787C69.6839 38.4413 70 39.2044 70 40ZM25 40C25 40.7956 24.6839 41.5587 24.1213 42.1213C23.5587 42.6839 22.7956 43 22 43H13C12.2044 43 11.4413 42.6839 10.8787 42.1213C10.3161 41.5587 10 40.7956 10 40C10 39.2044 10.3161 38.4413 10.8787 37.8787C11.4413 37.3161 12.2044 37 13 37H22C22.7956 37 23.5587 37.3161 24.1213 37.8787C24.6839 38.4413 25 39.2044 25 40ZM61.213 61.213C60.6504 61.7754 59.8875 62.0914 59.092 62.0914C58.2965 62.0914 57.5336 61.7754 56.971 61.213L50.608 54.85C50.0615 54.2842 49.7591 53.5264 49.766 52.7398C49.7728 51.9532 50.0883 51.2008 50.6445 50.6445C51.2008 50.0883 51.9532 49.7728 52.7398 49.766C53.5264 49.7591 54.2842 50.0615 54.85 50.608L61.213 56.968C61.4919 57.2466 61.7132 57.5775 61.8642 57.9417C62.0152 58.3059 62.0929 58.6963 62.0929 59.0905C62.0929 59.4847 62.0152 59.8751 61.8642 60.2393C61.7132 60.6035 61.4919 60.9344 61.213 61.213V61.213ZM29.392 29.392C28.8294 29.9544 28.0665 30.2704 27.271 30.2704C26.4755 30.2704 25.7126 29.9544 25.15 29.392L18.79 23.032C18.2271 22.4695 17.9107 21.7064 17.9104 20.9106C17.9101 20.1148 18.226 19.3514 18.7885 18.7885C19.351 18.2256 20.1141 17.9092 20.9099 17.9089C21.7057 17.9086 22.4691 18.2245 23.032 18.787L29.392 25.15C29.9544 25.7126 30.2704 26.4755 30.2704 27.271C30.2704 28.0665 29.9544 28.8294 29.392 29.392V29.392ZM18.79 61.213C18.2276 60.6504 17.9116 59.8875 17.9116 59.092C17.9116 58.2965 18.2276 57.5336 18.79 56.971L25.153 50.608C25.4297 50.3215 25.7608 50.0929 26.1268 49.9357C26.4928 49.7785 26.8865 49.6957 27.2848 49.6922C27.6831 49.6888 28.0782 49.7647 28.4469 49.9155C28.8156 50.0664 29.1505 50.2891 29.4322 50.5708C29.7139 50.8525 29.9366 51.1874 30.0875 51.5561C30.2383 51.9248 30.3142 52.3199 30.3108 52.7182C30.3073 53.1165 30.2245 53.5102 30.0673 53.8762C29.9101 54.2422 29.6815 54.5733 29.395 54.85L23.035 61.213C22.7564 61.4919 22.4255 61.7132 22.0613 61.8642C21.6971 62.0152 21.3067 62.0929 20.9125 62.0929C20.5183 62.0929 20.1279 62.0152 19.7637 61.8642C19.3995 61.7132 19.0686 61.4919 18.79 61.213V61.213ZM50.608 29.392C50.0456 28.8294 49.7296 28.0665 49.7296 27.271C49.7296 26.4755 50.0456 25.7126 50.608 25.15L56.968 18.787C57.5305 18.2241 58.2936 17.9077 59.0894 17.9074C59.8852 17.9071 60.6486 18.223 61.2115 18.7855C61.7744 19.348 62.0908 20.1111 62.0911 20.9069C62.0914 21.7027 61.7755 22.4661 61.213 23.029L54.85 29.392C54.2874 29.9544 53.5245 30.2704 52.729 30.2704C51.9335 30.2704 51.1706 29.9544 50.608 29.392V29.392Z" fill="#339EEC"/>
</svg>
