<svg width="18" height="17" viewBox="0 0 18 17" fill="none" xmlns="http://www.w3.org/2000/svg">
<path d="M9.00018 0.375L12.1697 5.01225L17.5599 6.594L14.1287 11.0415L14.2899 16.656L9.00018 14.7675L3.71043 16.656L3.87168 11.0415L0.44043 6.594L5.83068 5.01225L9.00018 0.375ZM9.00018 3.033L6.76668 6.3015L2.96793 7.41525L5.38668 10.5487L5.27193 14.505L9.00018 13.1745L12.7277 14.505L12.6137 10.5487L15.0317 7.41525L11.2337 6.3015L9.00018 3.033ZM7.50018 9C7.50018 9.39782 7.65821 9.77936 7.93952 10.0607C8.22082 10.342 8.60235 10.5 9.00018 10.5C9.398 10.5 9.77953 10.342 10.0608 10.0607C10.3421 9.77936 10.5002 9.39782 10.5002 9H12.0002C12.0002 9.79565 11.6841 10.5587 11.1215 11.1213C10.5589 11.6839 9.79583 12 9.00018 12C8.20453 12 7.44147 11.6839 6.87886 11.1213C6.31625 10.5587 6.00018 9.79565 6.00018 9H7.50018Z" fill="#525866"/>
</svg>
