<svg width="14" height="16" viewBox="0 0 14 16" fill="none" xmlns="http://www.w3.org/2000/svg">
<path d="M3.0498 3.5V1.25C3.0498 1.05109 3.12882 0.860322 3.26947 0.71967C3.41013 0.579018 3.60089 0.5 3.7998 0.5H12.7998C12.9987 0.5 13.1895 0.579018 13.3301 0.71967C13.4708 0.860322 13.5498 1.05109 13.5498 1.25V11.75C13.5498 11.9489 13.4708 12.1397 13.3301 12.2803C13.1895 12.421 12.9987 12.5 12.7998 12.5H10.5498V14.75C10.5498 15.164 10.2123 15.5 9.79455 15.5H0.805055C0.70615 15.5006 0.608103 15.4816 0.516546 15.4442C0.42499 15.4068 0.34173 15.3517 0.271549 15.282C0.201368 15.2123 0.145649 15.1294 0.107595 15.0381C0.0695414 14.9468 0.0499017 14.8489 0.0498047 14.75L0.0520547 4.25C0.0520547 3.836 0.389555 3.5 0.806555 3.5H3.0498ZM1.5513 5L1.5498 14H9.0498V5H1.5513ZM4.5498 3.5H10.5498V11H12.0498V2H4.5498V3.5ZM3.0498 7.25H7.5498V8.75H3.0498V7.25ZM3.0498 10.25H7.5498V11.75H3.0498V10.25Z" fill="#868C98"/>
</svg>
