<svg width="45" height="44" viewBox="0 0 45 44" fill="none" xmlns="http://www.w3.org/2000/svg">
<g filter="url(#filter0_d_370_22690)">
<rect x="2.5" y="1" width="40" height="40" rx="20" fill="white"/>
<rect x="3" y="1.5" width="39" height="39" rx="19.5" stroke="#E2E4E9"/>
<path d="M17.25 26.2501H18.3105L25.296 19.2646L24.2355 18.2041L17.25 25.1896V26.2501ZM29.25 27.7501H15.75V24.5678L25.8263 14.4916C25.9669 14.351 26.1576 14.272 26.3565 14.272C26.5554 14.272 26.7461 14.351 26.8868 14.4916L29.0085 16.6133C29.1491 16.754 29.2281 16.9447 29.2281 17.1436C29.2281 17.3424 29.1491 17.5332 29.0085 17.6738L20.4323 26.2501H29.25V27.7501ZM25.296 17.1436L26.3565 18.2041L27.417 17.1436L26.3565 16.0831L25.296 17.1436Z" fill="#6E3FF3"/>
</g>
<defs>
<filter id="filter0_d_370_22690" x="0.5" y="0" width="44" height="44" filterUnits="userSpaceOnUse" color-interpolation-filters="sRGB">
<feFlood flood-opacity="0" result="BackgroundImageFix"/>
<feColorMatrix in="SourceAlpha" type="matrix" values="0 0 0 0 0 0 0 0 0 0 0 0 0 0 0 0 0 0 127 0" result="hardAlpha"/>
<feOffset dy="1"/>
<feGaussianBlur stdDeviation="1"/>
<feComposite in2="hardAlpha" operator="out"/>
<feColorMatrix type="matrix" values="0 0 0 0 0.894118 0 0 0 0 0.898039 0 0 0 0 0.905882 0 0 0 0.24 0"/>
<feBlend mode="normal" in2="BackgroundImageFix" result="effect1_dropShadow_370_22690"/>
<feBlend mode="normal" in="SourceGraphic" in2="effect1_dropShadow_370_22690" result="shape"/>
</filter>
</defs>
</svg>
