<svg width="44" height="44" viewBox="0 0 44 44" fill="none" xmlns="http://www.w3.org/2000/svg">
<g filter="url(#filter0_d_554_46824)">
<rect x="2" y="1" width="40" height="40" rx="20" fill="white"/>
<rect x="2.5" y="1.5" width="39" height="39" rx="19.5" stroke="#E2E4E9"/>
<path d="M24.2477 13.5L28.75 18L28.7507 21.195C28.3112 20.8302 27.8003 20.5612 27.2507 20.4052L27.25 18.75H23.5V15H16.75V27H20.545C20.6308 27.5406 20.8405 28.054 21.1578 28.5H15.9948C15.8124 28.5 15.6365 28.4331 15.5002 28.312C15.3639 28.1909 15.2767 28.024 15.2552 27.843L15.25 27.756V14.244C15.25 13.8705 15.5403 13.5487 15.9137 13.5052L16.0015 13.5H24.2477ZM26.125 21.75C26.8212 21.75 27.4889 22.0266 27.9812 22.5188C28.4734 23.0111 28.75 23.6788 28.75 24.375L28.7493 24.4523C29.2184 24.5844 29.6257 24.8786 29.8986 25.2824C30.1716 25.6863 30.2928 26.1738 30.2405 26.6584C30.1883 27.1431 29.9661 27.5936 29.6134 27.93C29.2606 28.2664 28.8001 28.467 28.3135 28.4963L28.1875 28.5H24.0625L23.9365 28.4963C23.45 28.4668 22.9897 28.2659 22.6372 27.9294C22.2846 27.5928 22.0627 27.1423 22.0106 26.6577C21.9586 26.1731 22.0798 25.6858 22.3529 25.2821C22.6259 24.8783 23.0331 24.5844 23.5023 24.4523L23.5 24.375C23.5 23.6788 23.7766 23.0111 24.2688 22.5188C24.7611 22.0266 25.4288 21.75 26.125 21.75ZM26.125 23.25C25.8637 23.2499 25.6105 23.3409 25.4089 23.5071C25.2073 23.6734 25.0699 23.9047 25.0203 24.1613L25.0052 24.2662L25 24.375V25.59L23.917 25.8945C23.7922 25.9278 23.6827 26.0031 23.6068 26.1076C23.5309 26.2122 23.4934 26.3396 23.5004 26.4686C23.5074 26.5976 23.5587 26.7202 23.6455 26.8159C23.7322 26.9116 23.8493 26.9745 23.977 26.994L24.0588 27H28.1912C28.3272 26.999 28.4583 26.9487 28.56 26.8585C28.6618 26.7683 28.7275 26.6443 28.7449 26.5094C28.7623 26.3745 28.7302 26.2379 28.6546 26.1249C28.579 26.0118 28.465 25.93 28.3337 25.8945L27.574 25.6823L27.25 25.59V24.375L27.2448 24.267C27.2179 23.9886 27.0883 23.7302 26.8813 23.5422C26.6743 23.3542 26.4047 23.25 26.125 23.25Z" fill="#375DFB"/>
</g>
<defs>
<filter id="filter0_d_554_46824" x="0" y="0" width="44" height="44" filterUnits="userSpaceOnUse" color-interpolation-filters="sRGB">
<feFlood flood-opacity="0" result="BackgroundImageFix"/>
<feColorMatrix in="SourceAlpha" type="matrix" values="0 0 0 0 0 0 0 0 0 0 0 0 0 0 0 0 0 0 127 0" result="hardAlpha"/>
<feOffset dy="1"/>
<feGaussianBlur stdDeviation="1"/>
<feComposite in2="hardAlpha" operator="out"/>
<feColorMatrix type="matrix" values="0 0 0 0 0.894118 0 0 0 0 0.898039 0 0 0 0 0.905882 0 0 0 0.24 0"/>
<feBlend mode="normal" in2="BackgroundImageFix" result="effect1_dropShadow_554_46824"/>
<feBlend mode="normal" in="SourceGraphic" in2="effect1_dropShadow_554_46824" result="shape"/>
</filter>
</defs>
</svg>
