<svg width="20" height="20" viewBox="0 0 20 20" fill="none" xmlns="http://www.w3.org/2000/svg">
<path d="M13.75 5.5H17.5V7H16V16.75C16 16.9489 15.921 17.1397 15.7803 17.2803C15.6397 17.421 15.4489 17.5 15.25 17.5H4.75C4.55109 17.5 4.36032 17.421 4.21967 17.2803C4.07902 17.1397 4 16.9489 4 16.75V7H2.5V5.5H6.25V3.25C6.25 3.05109 6.32902 2.86032 6.46967 2.71967C6.61032 2.57902 6.80109 2.5 7 2.5H13C13.1989 2.5 13.3897 2.57902 13.5303 2.71967C13.671 2.86032 13.75 3.05109 13.75 3.25V5.5ZM14.5 7H5.5V16H14.5V7ZM7.75 9.25H9.25V13.75H7.75V9.25ZM10.75 9.25H12.25V13.75H10.75V9.25ZM7.75 4V5.5H12.25V4H7.75Z" fill="#525866"/>
</svg>
