<svg width="70" height="16" viewBox="0 0 70 16" fill="none" xmlns="http://www.w3.org/2000/svg">
<path d="M6.97727 3.27273H8.2983V9.01278C8.2983 9.62358 8.15483 10.1648 7.8679 10.6364C7.58097 11.1051 7.17756 11.4744 6.65767 11.7443C6.13778 12.0114 5.52841 12.1449 4.82955 12.1449C4.13352 12.1449 3.52557 12.0114 3.00568 11.7443C2.4858 11.4744 2.08239 11.1051 1.79545 10.6364C1.50852 10.1648 1.36506 9.62358 1.36506 9.01278V3.27273H2.68182V8.90625C2.68182 9.30114 2.76847 9.65199 2.94176 9.95881C3.1179 10.2656 3.36648 10.5071 3.6875 10.6832C4.00852 10.8565 4.3892 10.9432 4.82955 10.9432C5.27273 10.9432 5.65483 10.8565 5.97585 10.6832C6.29972 10.5071 6.54688 10.2656 6.71733 9.95881C6.89063 9.65199 6.97727 9.30114 6.97727 8.90625V3.27273ZM10.1104 14.4545V5.45455H11.3548V6.51562H11.4613C11.5352 6.37926 11.6417 6.22159 11.7809 6.04261C11.9201 5.86364 12.1133 5.70739 12.3604 5.57386C12.6076 5.4375 12.9343 5.36932 13.3406 5.36932C13.869 5.36932 14.3406 5.50284 14.7553 5.76989C15.1701 6.03693 15.4954 6.42187 15.7312 6.92472C15.9698 7.42756 16.0891 8.03267 16.0891 8.74006C16.0891 9.44744 15.9712 10.054 15.7354 10.5597C15.4996 11.0625 15.1758 11.4503 14.7638 11.723C14.3519 11.9929 13.8817 12.1278 13.3533 12.1278C12.9556 12.1278 12.6303 12.0611 12.3775 11.9276C12.1275 11.794 11.9315 11.6378 11.7894 11.4588C11.6474 11.2798 11.538 11.1207 11.4613 10.9815H11.3846V14.4545H10.1104ZM11.359 8.72727C11.359 9.1875 11.4258 9.59091 11.5593 9.9375C11.6928 10.2841 11.886 10.5554 12.1388 10.7514C12.3917 10.9446 12.7013 11.0412 13.0678 11.0412C13.4485 11.0412 13.7667 10.9403 14.0224 10.7386C14.2781 10.5341 14.4712 10.2571 14.6019 9.90767C14.7354 9.55824 14.8022 9.16477 14.8022 8.72727C14.8022 8.29545 14.7369 7.90767 14.6062 7.56392C14.4783 7.22017 14.2852 6.94886 14.0266 6.75C13.771 6.55114 13.4513 6.4517 13.0678 6.4517C12.6985 6.4517 12.386 6.54687 12.1303 6.73722C11.8775 6.92756 11.6857 7.19318 11.555 7.53409C11.4244 7.875 11.359 8.27273 11.359 8.72727ZM20.261 14.5909C19.7411 14.5909 19.2937 14.5227 18.9187 14.3864C18.5465 14.25 18.2425 14.0696 18.0067 13.8452C17.771 13.6207 17.5948 13.375 17.4783 13.108L18.5735 12.6562C18.6502 12.7812 18.7525 12.9134 18.8803 13.0526C19.011 13.1946 19.1871 13.3153 19.4087 13.4148C19.6332 13.5142 19.9215 13.5639 20.2738 13.5639C20.7567 13.5639 21.1559 13.446 21.4712 13.2102C21.7866 12.9773 21.9442 12.6051 21.9442 12.0938V10.8068H21.8633C21.7866 10.946 21.6758 11.1009 21.5309 11.2713C21.3888 11.4418 21.1928 11.5895 20.9428 11.7145C20.6928 11.8395 20.3675 11.902 19.967 11.902C19.4499 11.902 18.984 11.7812 18.5692 11.5398C18.1573 11.2955 17.8306 10.9361 17.5891 10.4616C17.3505 9.98437 17.2312 9.39773 17.2312 8.7017C17.2312 8.00568 17.3491 7.40909 17.5849 6.91193C17.8235 6.41477 18.1502 6.03409 18.565 5.76989C18.9798 5.50284 19.4499 5.36932 19.9755 5.36932C20.3817 5.36932 20.7099 5.4375 20.9599 5.57386C21.2099 5.70739 21.4045 5.86364 21.5437 6.04261C21.6857 6.22159 21.7951 6.37926 21.8718 6.51562H21.9656V5.45455H23.2141V12.1449C23.2141 12.7074 23.0835 13.169 22.8221 13.5298C22.5607 13.8906 22.207 14.1577 21.761 14.331C21.3178 14.5043 20.8178 14.5909 20.261 14.5909ZM20.2482 10.8452C20.6147 10.8452 20.9244 10.7599 21.1772 10.5895C21.4329 10.4162 21.6261 10.169 21.7567 9.84801C21.8903 9.52415 21.957 9.13636 21.957 8.68466C21.957 8.24432 21.8917 7.85653 21.761 7.52131C21.6303 7.18608 21.4386 6.92472 21.1857 6.73722C20.9329 6.54687 20.6204 6.4517 20.2482 6.4517C19.8647 6.4517 19.5451 6.55114 19.2894 6.75C19.0337 6.94602 18.8406 7.21307 18.7099 7.55114C18.582 7.8892 18.5181 8.26705 18.5181 8.68466C18.5181 9.11364 18.5835 9.49006 18.7141 9.81392C18.8448 10.1378 19.038 10.3906 19.2937 10.5724C19.5522 10.7543 19.8704 10.8452 20.2482 10.8452ZM24.9229 12V5.45455H26.1545V6.49432H26.2227C26.342 6.14205 26.5522 5.86506 26.8533 5.66335C27.1573 5.45881 27.5011 5.35653 27.8846 5.35653C27.9641 5.35653 28.0579 5.35937 28.1658 5.36506C28.2766 5.37074 28.3633 5.37784 28.4258 5.38636V6.60511C28.3746 6.59091 28.2837 6.57528 28.1531 6.55824C28.0224 6.53835 27.8917 6.52841 27.761 6.52841C27.4599 6.52841 27.1914 6.59233 26.9556 6.72017C26.7227 6.84517 26.538 7.01989 26.4016 7.24432C26.2653 7.46591 26.1971 7.71875 26.1971 8.00284V12H24.9229ZM31.3746 12.1449C30.9599 12.1449 30.5849 12.0682 30.2496 11.9148C29.9144 11.7585 29.6488 11.5327 29.4528 11.2372C29.2596 10.9418 29.163 10.5795 29.163 10.1506C29.163 9.78125 29.234 9.47727 29.3761 9.23864C29.5181 9 29.7099 8.81108 29.9513 8.67188C30.1928 8.53267 30.4627 8.42756 30.761 8.35653C31.0593 8.28551 31.3633 8.23153 31.6729 8.1946C32.065 8.14915 32.3832 8.11222 32.6275 8.08381C32.8718 8.05256 33.0494 8.00284 33.1602 7.93466C33.271 7.86648 33.3263 7.75568 33.3263 7.60227V7.57244C33.3263 7.20028 33.2212 6.91193 33.011 6.70739C32.8036 6.50284 32.494 6.40057 32.082 6.40057C31.6531 6.40057 31.315 6.49574 31.0678 6.68608C30.8235 6.87358 30.6545 7.08239 30.5607 7.3125L29.3633 7.03977C29.5053 6.64205 29.7127 6.32102 29.9854 6.0767C30.261 5.82955 30.5778 5.65057 30.9357 5.53977C31.2937 5.42614 31.6701 5.36932 32.065 5.36932C32.3263 5.36932 32.6033 5.40057 32.896 5.46307C33.1914 5.52273 33.467 5.63352 33.7227 5.79545C33.9812 5.95739 34.1928 6.18892 34.3576 6.49006C34.5224 6.78835 34.6048 7.17614 34.6048 7.65341V12H33.3604V11.1051H33.3093C33.2269 11.2699 33.1033 11.4318 32.9386 11.5909C32.7738 11.75 32.5621 11.8821 32.3036 11.9872C32.0451 12.0923 31.7354 12.1449 31.3746 12.1449ZM31.6516 11.1222C32.0039 11.1222 32.305 11.0526 32.555 10.9134C32.8079 10.7741 32.9996 10.5923 33.1303 10.3679C33.2638 10.1406 33.3306 9.89773 33.3306 9.6392V8.79545C33.2852 8.84091 33.1971 8.88352 33.0664 8.9233C32.9386 8.96023 32.7923 8.9929 32.6275 9.02131C32.4627 9.04687 32.3022 9.07102 32.146 9.09375C31.9897 9.11364 31.859 9.13068 31.7539 9.14489C31.5067 9.17614 31.2809 9.22869 31.0763 9.30256C30.8746 9.37642 30.7127 9.48295 30.5906 9.62216C30.4712 9.75852 30.4116 9.94034 30.4116 10.1676C30.4116 10.483 30.5281 10.7216 30.761 10.8835C30.994 11.0426 31.2908 11.1222 31.6516 11.1222ZM38.7521 12.1278C38.2237 12.1278 37.7521 11.9929 37.3374 11.723C36.9254 11.4503 36.6016 11.0625 36.3658 10.5597C36.1328 10.054 36.0163 9.44744 36.0163 8.74006C36.0163 8.03267 36.1342 7.42756 36.37 6.92472C36.6087 6.42187 36.9354 6.03693 37.3501 5.76989C37.7649 5.50284 38.2351 5.36932 38.7607 5.36932C39.1669 5.36932 39.4936 5.4375 39.7408 5.57386C39.9908 5.70739 40.1839 5.86364 40.3203 6.04261C40.4595 6.22159 40.5675 6.37926 40.6442 6.51562H40.7209V3.27273H41.995V12H40.7507V10.9815H40.6442C40.5675 11.1207 40.4567 11.2798 40.3118 11.4588C40.1697 11.6378 39.9737 11.794 39.7237 11.9276C39.4737 12.0611 39.1499 12.1278 38.7521 12.1278ZM39.0334 11.0412C39.3999 11.0412 39.7095 10.9446 39.9624 10.7514C40.218 10.5554 40.4112 10.2841 40.5419 9.9375C40.6754 9.59091 40.7422 9.1875 40.7422 8.72727C40.7422 8.27273 40.6768 7.875 40.5462 7.53409C40.4155 7.19318 40.2237 6.92756 39.9709 6.73722C39.718 6.54687 39.4055 6.4517 39.0334 6.4517C38.6499 6.4517 38.3303 6.55114 38.0746 6.75C37.8189 6.94886 37.6257 7.22017 37.495 7.56392C37.3672 7.90767 37.3033 8.29545 37.3033 8.72727C37.3033 9.16477 37.3686 9.55824 37.4993 9.90767C37.63 10.2571 37.8232 10.5341 38.0788 10.7386C38.3374 10.9403 38.6555 11.0412 39.0334 11.0412ZM46.6346 12.1321C45.9897 12.1321 45.4343 11.9943 44.9684 11.7188C44.5053 11.4403 44.1474 11.0497 43.8945 10.5469C43.6445 10.0412 43.5195 9.44886 43.5195 8.76989C43.5195 8.09943 43.6445 7.50852 43.8945 6.99716C44.1474 6.4858 44.4996 6.08665 44.9513 5.79972C45.4059 5.51278 45.9371 5.36932 46.5451 5.36932C46.9144 5.36932 47.2724 5.4304 47.619 5.55256C47.9656 5.67472 48.2766 5.86648 48.5522 6.12784C48.8278 6.3892 49.0451 6.72869 49.2042 7.14631C49.3633 7.56108 49.4428 8.06534 49.4428 8.65909V9.1108H44.2397V8.15625H48.1942C48.1942 7.82102 48.1261 7.52415 47.9897 7.26562C47.8533 7.00426 47.6616 6.7983 47.4144 6.64773C47.1701 6.49716 46.8832 6.42188 46.5536 6.42188C46.1957 6.42188 45.8832 6.50994 45.6161 6.68608C45.3519 6.85937 45.1474 7.08665 45.0025 7.3679C44.8604 7.64631 44.7894 7.94886 44.7894 8.27557V9.02131C44.7894 9.45881 44.8661 9.83097 45.0195 10.1378C45.1758 10.4446 45.3931 10.679 45.6715 10.8409C45.9499 11 46.2752 11.0795 46.6474 11.0795C46.8888 11.0795 47.109 11.0455 47.3079 10.9773C47.5067 10.9062 47.6786 10.8011 47.8235 10.6619C47.9684 10.5227 48.0792 10.3509 48.1559 10.1463L49.3619 10.3636C49.2653 10.7187 49.092 11.0298 48.842 11.2969C48.5948 11.5611 48.2837 11.767 47.9087 11.9148C47.5366 12.0597 47.1119 12.1321 46.6346 12.1321Z" fill="#162664"/>
<path d="M60.2 2.60004V3.80004H57.2V12.2H66.8V6.80004H68V12.8C68 12.9592 67.9368 13.1118 67.8243 13.2243C67.7117 13.3368 67.5591 13.4 67.4 13.4H56.6C56.4409 13.4 56.2883 13.3368 56.1757 13.2243C56.0632 13.1118 56 12.9592 56 12.8V3.20004C56 3.04091 56.0632 2.8883 56.1757 2.77578C56.2883 2.66325 56.4409 2.60004 56.6 2.60004H60.2ZM66.17 3.80004L64.4 2.03004L65.2484 1.18164L68.4524 4.38564C68.5027 4.43599 68.5369 4.5001 68.5508 4.5699C68.5646 4.63969 68.5575 4.71202 68.5303 4.77776C68.5031 4.84351 68.457 4.89971 68.3978 4.93927C68.3387 4.97883 68.2692 4.99998 68.198 5.00004H63.2C62.8817 5.00004 62.5765 5.12647 62.3515 5.35151C62.1264 5.57656 62 5.88178 62 6.20004V9.80004H60.8V6.20004C60.8 5.56352 61.0529 4.95307 61.5029 4.50298C61.953 4.0529 62.5635 3.80004 63.2 3.80004H66.17Z" fill="#162664"/>
</svg>
