<svg width="20" height="18" viewBox="0 0 20 18" fill="none" xmlns="http://www.w3.org/2000/svg">
<path d="M9.99981 9.5274L13.8185 13.3452L12.545 14.6187L10.8998 12.9735V18H9.09981V12.9717L7.45461 14.6187L6.18111 13.3452L9.99981 9.5274ZM9.99981 1.99944e-08C11.5451 7.35929e-05 13.0365 0.568002 14.1904 1.59581C15.3443 2.62361 16.0803 4.03962 16.2584 5.5746C17.3782 5.87998 18.3552 6.56919 19.0184 7.52178C19.6816 8.47436 19.989 9.62972 19.8869 10.786C19.7847 11.9422 19.2794 13.0257 18.4594 13.8472C17.6394 14.6687 16.5567 15.1759 15.4007 15.2802V13.4676C15.8149 13.4085 16.2131 13.2674 16.5721 13.0527C16.9312 12.8379 17.2439 12.5539 17.4919 12.217C17.74 11.8801 17.9184 11.4972 18.0169 11.0906C18.1153 10.6839 18.1318 10.2618 18.0653 9.84876C17.9989 9.43572 17.8508 9.04005 17.6298 8.68486C17.4087 8.32967 17.1191 8.02208 16.7779 7.78002C16.4367 7.53797 16.0506 7.36631 15.6424 7.27507C15.2341 7.18383 14.8117 7.17483 14.3999 7.2486C14.5409 6.5924 14.5332 5.91297 14.3776 5.2601C14.222 4.60722 13.9223 3.99743 13.5004 3.47538C13.0786 2.95333 12.5454 2.53225 11.9397 2.24298C11.3341 1.9537 10.6714 1.80357 10.0003 1.80357C9.32909 1.80357 8.66642 1.9537 8.06078 2.24298C7.45515 2.53225 6.92189 2.95333 6.50007 3.47538C6.07825 3.99743 5.77854 4.60722 5.62291 5.2601C5.46728 5.91297 5.45966 6.5924 5.60061 7.2486C4.7795 7.0944 3.93076 7.27271 3.24112 7.74429C2.55147 8.21586 2.0774 8.94209 1.92321 9.7632C1.76901 10.5843 1.94731 11.433 2.41889 12.1227C2.89047 12.8123 3.6167 13.2864 4.43781 13.4406L4.59981 13.4676V15.2802C3.44371 15.1761 2.36097 14.669 1.54083 13.8476C0.720683 13.0261 0.215301 11.9426 0.113014 10.7863C0.0107261 9.63009 0.318038 8.47466 0.981239 7.522C1.64444 6.56934 2.62134 5.88005 3.74121 5.5746C3.91914 4.03954 4.65507 2.62342 5.80903 1.59558C6.96298 0.567738 8.45447 -0.000123032 9.99981 1.99944e-08Z" fill="#525866"/>
</svg>
