<svg width="18" height="16" viewBox="0 0 18 16" fill="none" xmlns="http://www.w3.org/2000/svg">
<path d="M9.00016 8.4395L12.1824 11.621L11.1212 12.6823L9.75016 11.3113V15.5H8.25016V11.3097L6.87916 12.6823L5.81791 11.621L9.00016 8.4395ZM9.00016 0.5C10.2879 0.500061 11.5307 0.973335 12.4923 1.82984C13.4539 2.68634 14.0672 3.86635 14.2157 5.1455C15.1489 5.39999 15.963 5.97433 16.5157 6.76815C17.0684 7.56196 17.3245 8.52477 17.2394 9.48829C17.1542 10.4518 16.7332 11.3548 16.0498 12.0394C15.3665 12.7239 14.4643 13.1466 13.5009 13.2335V11.723C13.846 11.6737 14.1779 11.5562 14.4771 11.3772C14.7763 11.1983 15.0369 10.9615 15.2436 10.6808C15.4503 10.4001 15.599 10.081 15.6811 9.74213C15.7631 9.40329 15.7768 9.0515 15.7215 8.7073C15.6661 8.3631 15.5427 8.03338 15.3585 7.73739C15.1742 7.4414 14.9329 7.18506 14.6486 6.98335C14.3642 6.78164 14.0425 6.63859 13.7023 6.56256C13.3621 6.48652 13.0101 6.47902 12.6669 6.5405C12.7844 5.99366 12.778 5.42748 12.6483 4.88341C12.5186 4.33935 12.2689 3.83119 11.9174 3.39615C11.5658 2.96111 11.1215 2.6102 10.6168 2.36915C10.1121 2.12809 9.55985 2.00298 9.00054 2.00298C8.44123 2.00298 7.88901 2.12809 7.38431 2.36915C6.87962 2.6102 6.43524 2.96111 6.08372 3.39615C5.7322 3.83119 5.48245 4.33935 5.35275 4.88341C5.22306 5.42748 5.21671 5.99366 5.33417 6.5405C4.64991 6.412 3.94263 6.56059 3.36792 6.95357C2.79322 7.34655 2.39816 7.95174 2.26967 8.636C2.14117 9.32026 2.28975 10.0275 2.68274 10.6022C3.07572 11.1769 3.68091 11.572 4.36517 11.7005L4.50016 11.723V13.2335C3.53675 13.1467 2.63447 12.7242 1.95101 12.0396C1.26756 11.3551 0.84641 10.4522 0.76117 9.48862C0.675931 8.52507 0.932024 7.56221 1.48469 6.76833C2.03736 5.97445 2.85144 5.40004 3.78467 5.1455C3.93294 3.86628 4.54622 2.68618 5.50785 1.82965C6.46948 0.973115 7.71238 0.499897 9.00016 0.5Z" fill="white"/>
</svg>
