<svg width="20" height="20" viewBox="0 0 20 20" fill="none" xmlns="http://www.w3.org/2000/svg">
<path d="M8.75456 3.81504C7.87858 3.53147 6.92631 3.92591 6.50741 4.74584L6.00379 5.73158C5.94396 5.8487 5.8487 5.94396 5.73158 6.00379L4.74584 6.50741C3.92591 6.92631 3.53147 7.87858 3.81504 8.75456L4.15595 9.80768C4.19646 9.93281 4.19646 10.0676 4.15595 10.1927L3.81504 11.2458C3.53147 12.1218 3.92591 13.0741 4.74584 13.493L5.73158 13.9966C5.8487 14.0564 5.94396 14.1517 6.00379 14.2688L6.50741 15.2546C6.92631 16.0745 7.87858 16.4689 8.75456 16.1854L9.80768 15.8444C9.93281 15.8039 10.0676 15.8039 10.1927 15.8444L11.2458 16.1854C12.1218 16.4689 13.0741 16.0745 13.493 15.2546L13.9966 14.2688C14.0564 14.1517 14.1517 14.0564 14.2688 13.9966L15.2546 13.493C16.0745 13.0741 16.4689 12.1218 16.1854 11.2458L15.8444 10.1927C15.8039 10.0676 15.8039 9.93281 15.8444 9.80768L16.1854 8.75456C16.4689 7.87858 16.0745 6.92631 15.2546 6.50741L14.2688 6.00379C14.1517 5.94396 14.0564 5.8487 13.9966 5.73158L13.493 4.74584C13.0741 3.92591 12.1218 3.53147 11.2458 3.81504L10.1927 4.15595C10.0676 4.19645 9.93281 4.19646 9.80768 4.15595L8.75456 3.81504ZM6.72504 9.84849L7.60893 8.96456L9.37668 10.7324L12.9122 7.19684L13.7961 8.08072L9.37668 12.5001L6.72504 9.84849Z" fill="#35B9E9"/>
</svg>
